<svg id="svg" version="1.1" xmlns="http://www.w3.org/2000/svg" xmlns:xlink="http://www.w3.org/1999/xlink" width="200" height="200" viewBox="0, 0, 400,400"><g id="svgg"><path id="path0" d="M177.344 91.250 C 134.600 94.036,103.082 107.270,93.841 126.312 C 90.144 133.927,90.418 163.087,94.370 182.778 C 95.430 188.062,95.471 187.876,93.039 188.816 C 73.270 196.460,54.815 212.101,48.597 226.484 C 28.519 272.923,97.205 316.234,190.820 316.165 C 284.802 316.096,351.787 274.101,333.149 226.935 C 331.177 221.945,323.994 211.328,322.589 211.328 C 322.365 211.328,323.152 210.280,324.338 208.999 C 352.420 178.667,337.039 139.064,296.616 137.618 L 290.303 137.393 290.036 134.733 C 287.872 113.189,257.930 96.663,212.500 91.939 C 207.181 91.386,182.637 90.905,177.344 91.250 M213.255 98.997 C 250.095 102.910,277.034 115.588,282.388 131.531 C 284.087 136.592,283.406 163.891,281.247 177.238 C 273.089 227.671,235.596 260.905,188.281 259.644 C 142.626 258.426,107.443 225.068,100.038 175.977 C 98.064 162.892,97.417 136.252,98.962 131.641 C 106.693 108.555,159.972 93.338,213.255 98.997 M175.444 131.290 C 148.205 133.249,126.749 142.006,123.127 152.642 L 122.693 153.918 126.483 155.799 C 153.993 169.451,204.980 172.070,240.582 161.660 C 248.636 159.305,260.570 154.109,259.072 153.610 C 258.809 153.522,258.594 153.194,258.594 152.882 C 258.594 152.569,258.219 151.578,257.761 150.680 C 250.668 136.778,215.227 128.429,175.444 131.290 M306.188 145.301 C 343.986 155.350,338.695 202.261,298.013 217.786 C 291.394 220.312,279.650 222.656,273.613 222.656 C 271.045 222.656,271.061 222.935,273.401 219.024 C 274.456 217.262,276.342 213.755,277.592 211.231 C 279.758 206.861,279.932 206.632,281.242 206.413 C 309.400 201.714,326.929 178.800,313.002 164.896 C 308.133 160.036,296.783 157.135,291.254 159.338 C 289.760 159.933,289.853 160.549,290.121 151.799 L 290.359 144.052 296.644 144.243 C 301.425 144.389,303.710 144.642,306.188 145.301 M302.968 166.453 C 314.286 169.917,312.875 183.786,300.388 191.799 L 298.499 193.011 292.389 190.353 L 286.280 187.695 286.512 186.523 C 287.320 182.430,288.684 173.822,289.046 170.530 C 289.553 165.919,289.141 166.461,292.642 165.814 C 295.998 165.194,299.577 165.416,302.968 166.453 M290.039 196.659 C 291.021 197.029,290.298 197.351,285.971 198.471 C 282.523 199.362,282.661 199.440,283.433 197.039 C 283.773 195.982,284.116 194.905,284.195 194.645 C 284.294 194.316,285.086 194.506,286.798 195.268 C 288.151 195.871,289.609 196.496,290.039 196.659 M98.273 197.754 C 105.224 218.657,118.078 236.767,134.060 248.171 C 135.952 249.521,136.791 250.402,137.112 251.376 C 137.356 252.115,138.396 254.006,139.423 255.579 C 158.577 284.921,229.538 282.873,243.921 252.563 C 245.157 249.959,245.546 249.529,249.041 246.902 C 253.463 243.578,260.528 236.812,263.867 232.702 L 266.211 229.818 271.680 229.577 C 288.841 228.822,305.354 223.907,314.835 216.732 L 316.967 215.117 319.071 217.422 C 333.718 233.473,332.796 253.671,316.644 270.598 C 287.128 301.529,213.000 316.856,146.289 305.821 C 50.189 289.925,20.446 231.174,91.211 197.029 C 97.525 193.983,97.001 193.929,98.273 197.754 M152.453 258.650 C 173.019 269.047,206.129 269.261,228.089 259.140 C 231.798 257.431,231.932 257.635,228.570 259.871 C 211.190 271.428,180.161 273.006,159.017 263.410 C 156.506 262.270,149.609 257.989,149.609 257.570 C 149.609 257.271,150.073 257.447,152.453 258.650 " stroke="none" fill="#3e291f" fill-rule="evenodd"></path><path id="path1" d="M0.000 200.000 L 0.000 400.000 200.000 400.000 L 400.000 400.000 400.000 200.000 L 400.000 0.000 200.000 0.000 L 0.000 0.000 0.000 200.000 M207.813 91.449 C 254.321 94.536,290.150 113.638,290.229 135.389 L 290.234 136.988 295.890 137.245 C 307.304 137.764,315.392 140.203,322.934 145.401 C 342.818 159.106,343.903 188.466,325.249 208.103 L 322.526 210.970 324.089 212.614 C 344.714 234.295,339.069 264.520,310.547 285.118 C 236.771 338.399,70.989 320.248,47.664 256.336 C 38.285 230.636,56.962 202.942,93.459 188.434 C 94.568 187.993,95.243 187.502,95.135 187.217 C 91.948 178.808,89.769 139.264,92.016 130.635 C 98.849 104.402,148.717 87.526,207.813 91.449 M175.977 98.455 C 136.737 100.972,104.389 114.933,99.210 131.584 C 97.714 136.393,98.177 161.070,100.011 174.306 C 107.082 225.337,143.537 259.550,190.820 259.530 C 235.346 259.511,271.185 228.298,280.255 181.641 C 283.275 166.105,284.344 137.049,282.117 131.055 C 274.213 109.779,226.737 95.198,175.977 98.455 M208.398 105.890 C 256.090 109.208,284.505 129.567,267.067 147.925 C 244.441 171.744,161.364 175.485,123.224 154.403 C 117.959 151.492,112.562 146.962,111.909 144.905 C 111.194 142.652,118.817 136.527,127.485 132.391 C 129.663 131.352,131.290 130.494,131.100 130.485 C 128.970 130.385,117.805 137.247,113.932 141.037 C 110.628 144.270,111.165 144.203,110.147 141.504 C 101.770 119.284,149.941 101.823,208.398 105.890 M184.082 121.386 C 187.681 121.451,193.569 121.451,197.168 121.386 C 200.767 121.322,197.822 121.269,190.625 121.269 C 183.428 121.269,180.483 121.322,184.082 121.386 M167.773 122.093 L 163.867 122.594 167.383 122.376 C 169.316 122.255,172.393 122.032,174.219 121.878 L 177.539 121.599 174.609 121.595 C 172.998 121.593,169.922 121.817,167.773 122.093 M205.362 121.766 C 206.056 121.853,207.286 121.854,208.097 121.769 C 208.907 121.685,208.340 121.614,206.836 121.613 C 205.332 121.611,204.669 121.680,205.362 121.766 M211.914 122.281 C 213.203 122.441,214.961 122.566,215.820 122.559 C 217.162 122.548,217.079 122.504,215.234 122.249 C 214.053 122.086,212.295 121.961,211.328 121.971 C 209.723 121.988,209.774 122.015,211.914 122.281 M161.626 122.933 C 162.112 123.026,162.815 123.022,163.188 122.925 C 163.562 122.827,163.164 122.750,162.305 122.755 C 161.445 122.759,161.140 122.839,161.626 122.933 M218.266 122.933 C 218.752 123.026,219.455 123.022,219.829 122.925 C 220.202 122.827,219.805 122.750,218.945 122.755 C 218.086 122.759,217.780 122.839,218.266 122.933 M156.055 123.625 C 152.917 124.286,154.547 124.308,158.008 123.653 C 159.512 123.368,160.215 123.134,159.570 123.133 C 158.926 123.133,157.344 123.354,156.055 123.625 M222.070 123.460 C 222.930 123.638,224.072 123.773,224.609 123.761 C 225.236 123.746,225.026 123.622,224.023 123.415 C 223.164 123.237,222.021 123.102,221.484 123.114 C 220.858 123.129,221.068 123.253,222.070 123.460 M228.320 124.477 C 229.824 124.790,232.883 125.478,235.117 126.006 C 237.351 126.534,239.247 126.898,239.330 126.815 C 239.639 126.507,227.539 123.786,226.227 123.869 C 225.874 123.891,226.816 124.165,228.320 124.477 M149.219 124.852 C 145.282 125.711,140.571 127.030,140.761 127.219 C 140.855 127.313,141.918 127.103,143.123 126.753 C 144.329 126.402,147.204 125.704,149.513 125.201 C 151.822 124.698,153.271 124.288,152.734 124.292 C 152.197 124.295,150.615 124.547,149.219 124.852 M240.430 127.344 C 240.859 127.528,241.475 127.679,241.797 127.679 C 242.166 127.679,242.094 127.555,241.602 127.344 C 241.172 127.159,240.557 127.008,240.234 127.008 C 239.865 127.008,239.937 127.132,240.430 127.344 M136.401 128.392 C 134.830 128.934,133.613 129.446,133.696 129.529 C 133.779 129.612,135.328 129.168,137.138 128.541 C 138.949 127.915,140.166 127.403,139.844 127.404 C 139.521 127.405,137.972 127.849,136.401 128.392 M244.922 128.711 C 246.705 129.398,247.407 129.388,245.898 128.697 C 245.254 128.402,244.463 128.166,244.141 128.172 C 243.818 128.179,244.170 128.421,244.922 128.711 M250.423 130.626 C 250.776 130.966,257.422 133.922,257.422 133.739 C 257.422 133.631,255.925 132.852,254.094 132.006 C 251.067 130.607,249.981 130.199,250.423 130.626 M257.817 134.099 C 257.927 134.220,259.421 135.235,261.137 136.355 C 262.854 137.475,265.532 139.665,267.090 141.222 C 268.647 142.779,269.922 143.926,269.922 143.772 C 269.922 143.216,264.206 137.995,261.914 136.457 C 259.650 134.938,257.407 133.646,257.817 134.099 M290.234 151.800 C 290.234 158.936,290.281 159.440,290.918 159.190 C 297.184 156.727,308.828 160.030,314.110 165.768 C 326.264 178.974,308.605 202.027,283.067 206.294 L 280.001 206.806 277.733 211.330 C 275.650 215.487,274.281 217.972,272.176 221.418 L 271.382 222.719 274.656 222.459 C 308.256 219.790,331.265 200.837,331.323 175.781 C 331.367 156.612,316.486 144.141,293.570 144.141 L 290.234 144.141 290.234 151.800 M292.773 165.865 C 289.434 166.726,289.582 166.557,289.295 169.837 C 288.993 173.295,287.290 183.947,286.723 185.924 C 286.247 187.583,285.684 187.170,292.652 190.267 L 298.586 192.904 300.367 191.699 C 312.499 183.488,314.122 170.759,303.547 166.760 C 301.394 165.947,294.636 165.385,292.773 165.865 M90.609 197.574 C 60.787 212.371,47.558 231.762,53.660 251.734 C 72.435 313.181,238.436 330.319,308.157 278.008 C 331.664 260.371,336.067 233.743,318.268 216.869 L 316.902 215.574 313.538 217.767 C 302.126 225.205,286.092 229.688,270.893 229.688 L 266.585 229.688 263.273 233.652 C 259.312 238.392,253.841 243.579,249.006 247.176 C 245.651 249.672,245.390 249.975,243.813 253.194 C 236.930 267.243,218.008 275.834,192.383 276.544 L 182.617 276.814 190.507 276.883 C 216.396 277.112,237.765 267.524,244.507 252.654 C 245.271 250.970,246.125 249.759,246.961 249.177 C 249.759 247.228,254.289 243.388,257.864 239.934 L 261.626 236.300 262.671 237.542 C 275.361 252.624,260.118 272.949,229.450 281.837 C 170.952 298.792,99.578 272.100,117.613 240.013 C 119.529 236.605,119.896 236.452,121.704 238.320 C 123.822 240.507,130.119 245.942,133.281 248.312 C 135.480 249.959,136.148 250.755,137.460 253.290 C 142.612 263.247,153.124 270.503,167.749 274.196 C 172.981 275.518,178.038 276.389,178.395 276.032 C 178.533 275.894,178.241 275.781,177.747 275.781 C 174.102 275.781,161.537 272.297,156.065 269.769 C 147.919 266.005,140.366 258.945,137.284 252.214 C 136.473 250.442,135.781 249.665,133.604 248.082 C 117.596 236.438,101.169 212.663,97.481 195.801 C 97.131 194.201,97.708 194.052,90.609 197.574 M283.826 196.359 C 283.081 198.545,283.062 198.828,283.665 198.828 C 284.578 198.828,290.265 197.166,290.058 196.959 C 289.882 196.783,284.746 194.531,284.521 194.531 C 284.481 194.531,284.168 195.354,283.826 196.359 M151.172 258.560 C 154.100 260.890,163.741 265.686,164.324 265.103 C 164.428 264.999,164.103 264.796,163.604 264.650 C 162.284 264.265,156.612 261.617,156.769 261.460 C 156.843 261.386,157.943 261.686,159.213 262.125 C 178.430 268.775,201.519 269.056,220.078 262.866 C 222.635 262.013,224.797 261.386,224.884 261.472 C 225.546 262.135,212.157 266.735,206.634 267.742 C 205.026 268.035,204.114 268.294,204.606 268.317 C 208.984 268.524,221.275 264.243,227.572 260.318 C 231.197 258.059,231.210 257.912,227.637 259.559 C 208.013 268.603,179.228 269.353,158.213 261.368 C 157.097 260.944,155.906 260.703,155.567 260.834 C 155.213 260.969,155.051 260.907,155.187 260.686 C 155.318 260.475,154.248 259.735,152.810 259.042 C 151.125 258.231,150.543 258.059,151.172 258.560 M166.720 265.992 C 169.392 266.987,175.275 268.250,178.516 268.524 C 180.467 268.689,180.105 268.571,176.953 268.016 C 174.697 267.618,171.445 266.925,169.727 266.475 C 164.987 265.235,164.459 265.150,166.720 265.992 M197.461 268.824 C 195.742 269.022,191.436 269.106,187.891 269.009 C 182.482 268.862,181.948 268.893,184.570 269.206 C 187.832 269.595,198.915 269.319,201.953 268.773 L 203.711 268.457 202.148 268.460 C 201.289 268.462,199.180 268.626,197.461 268.824 M179.791 276.452 C 180.384 276.542,181.263 276.540,181.744 276.447 C 182.224 276.354,181.738 276.281,180.664 276.284 C 179.590 276.287,179.197 276.362,179.791 276.452 " stroke="none" fill="#f9f9f9" fill-rule="evenodd"></path><path id="path2" d="M182.721 121.706 C 182.599 121.828,179.889 122.001,176.699 122.090 C 173.509 122.179,169.580 122.423,167.969 122.631 C 166.357 122.839,163.929 123.110,162.571 123.233 C 154.292 123.984,132.224 129.532,130.859 131.206 C 130.752 131.337,130.400 131.500,130.078 131.567 C 127.149 132.173,118.219 137.635,114.732 140.953 C 111.760 143.782,111.489 144.450,112.835 145.634 C 113.403 146.133,113.604 146.410,113.281 146.250 C 112.959 146.090,113.574 146.834,114.648 147.902 C 115.723 148.971,116.909 149.962,117.285 150.106 C 117.661 150.249,117.969 150.547,117.969 150.769 C 117.969 150.991,118.238 151.172,118.567 151.172 C 118.896 151.172,119.266 151.435,119.389 151.756 C 119.512 152.077,119.770 152.242,119.963 152.123 C 120.155 152.004,120.313 152.104,120.313 152.344 C 120.313 152.584,120.477 152.679,120.679 152.554 C 120.881 152.429,121.227 152.639,121.448 153.019 C 121.670 153.400,121.859 153.535,121.869 153.320 C 121.879 153.105,122.050 153.187,122.249 153.502 C 122.537 153.957,122.698 153.836,123.033 152.916 C 133.306 124.649,243.548 122.820,257.761 150.680 C 258.219 151.578,258.594 152.564,258.594 152.872 C 258.594 153.661,259.654 153.978,259.926 153.271 C 260.050 152.949,260.328 152.794,260.544 152.928 C 260.760 153.062,260.938 152.975,260.938 152.734 C 260.938 152.494,261.104 152.401,261.309 152.527 C 261.513 152.653,261.878 152.385,262.121 151.931 C 262.364 151.477,262.660 151.202,262.779 151.320 C 262.897 151.439,263.343 151.093,263.768 150.552 C 264.194 150.011,264.643 149.669,264.767 149.793 C 265.029 150.055,268.359 146.879,268.359 146.368 C 268.359 146.179,268.755 145.702,269.238 145.310 L 270.117 144.596 267.383 141.817 C 260.178 134.494,243.115 126.800,230.469 125.171 C 229.717 125.075,227.788 124.729,226.181 124.404 C 224.575 124.078,223.007 123.910,222.697 124.029 C 222.387 124.148,222.025 124.071,221.893 123.858 C 221.761 123.644,220.429 123.372,218.932 123.252 C 217.436 123.132,214.893 122.869,213.281 122.667 C 206.210 121.780,183.365 121.062,182.721 121.706 M295.801 165.504 C 296.177 165.602,296.792 165.602,297.168 165.504 C 297.544 165.405,297.236 165.325,296.484 165.325 C 295.732 165.325,295.425 165.405,295.801 165.504 M189.746 168.255 C 190.659 168.337,192.153 168.337,193.066 168.255 C 193.979 168.173,193.232 168.105,191.406 168.105 C 189.580 168.105,188.833 168.173,189.746 168.255 M253.302 234.082 L 251.758 235.742 253.418 234.198 C 254.331 233.349,255.078 232.602,255.078 232.538 C 255.078 232.242,254.738 232.538,253.302 234.082 " stroke="none" fill="#8c5124" fill-rule="evenodd"></path><path id="path3" d="M189.347 90.907 C 190.040 90.993,191.271 90.995,192.081 90.910 C 192.892 90.826,192.324 90.755,190.820 90.753 C 189.316 90.751,188.653 90.821,189.347 90.907 M179.395 98.316 C 179.771 98.414,180.386 98.414,180.762 98.316 C 181.138 98.218,180.830 98.138,180.078 98.138 C 179.326 98.138,179.019 98.218,179.395 98.316 M184.375 105.325 C 136.236 106.894,103.174 123.008,110.147 141.504 C 111.074 143.963,111.201 144.074,111.937 143.066 C 112.212 142.690,112.627 142.383,112.859 142.383 C 113.091 142.383,113.294 142.207,113.309 141.992 C 113.351 141.403,114.516 140.227,114.852 140.435 C 115.013 140.535,115.385 140.311,115.678 139.937 C 116.142 139.346,116.132 139.309,115.607 139.648 C 115.274 139.863,115.440 139.654,115.974 139.183 C 116.509 138.713,117.077 138.408,117.235 138.506 C 117.394 138.604,117.651 138.479,117.807 138.227 C 117.995 137.923,117.906 137.867,117.541 138.059 C 117.239 138.219,117.432 137.986,117.969 137.543 C 118.950 136.732,119.394 136.559,120.117 136.705 C 120.332 136.748,120.377 136.653,120.217 136.493 C 119.793 136.069,121.399 135.061,121.973 135.392 C 122.242 135.546,122.330 135.528,122.170 135.352 C 121.768 134.908,123.334 133.874,123.889 134.217 C 124.189 134.402,124.232 134.322,124.020 133.978 C 123.786 133.600,123.879 133.530,124.370 133.718 C 124.822 133.892,124.949 133.828,124.761 133.523 C 124.572 133.218,124.700 133.154,125.152 133.328 C 125.603 133.501,125.731 133.437,125.542 133.132 C 125.354 132.827,125.481 132.764,125.933 132.937 C 126.384 133.110,126.512 133.047,126.323 132.742 C 126.135 132.437,126.262 132.373,126.714 132.546 C 127.166 132.720,127.293 132.656,127.105 132.351 C 126.916 132.046,127.044 131.982,127.495 132.156 C 127.947 132.329,128.074 132.265,127.886 131.960 C 127.697 131.655,127.825 131.592,128.277 131.765 C 128.675 131.918,128.850 131.866,128.708 131.636 C 128.490 131.284,129.113 131.099,130.367 131.144 C 130.633 131.154,130.736 130.976,130.596 130.749 C 130.437 130.492,130.586 130.430,130.991 130.585 C 131.349 130.723,131.641 130.646,131.641 130.415 C 131.641 130.184,131.913 130.099,132.247 130.227 C 132.643 130.379,132.756 130.303,132.573 130.007 C 132.387 129.705,132.510 129.638,132.944 129.804 C 133.302 129.942,133.594 129.865,133.594 129.633 C 133.594 129.402,133.867 129.318,134.200 129.446 C 134.593 129.597,134.709 129.521,134.530 129.231 C 134.341 128.926,134.522 128.854,135.096 129.004 C 135.636 129.145,135.846 129.075,135.682 128.808 C 135.517 128.542,135.727 128.472,136.268 128.613 C 136.808 128.754,137.018 128.684,136.854 128.418 C 136.689 128.151,136.899 128.081,137.439 128.222 C 137.980 128.364,138.190 128.293,138.025 128.027 C 137.861 127.761,138.071 127.690,138.611 127.832 C 139.151 127.973,139.362 127.903,139.197 127.636 C 139.033 127.370,139.243 127.300,139.783 127.441 C 140.246 127.562,140.625 127.481,140.625 127.262 C 140.625 127.042,140.977 126.954,141.407 127.066 C 141.899 127.195,142.093 127.117,141.932 126.855 C 141.767 126.589,141.977 126.519,142.518 126.660 C 143.052 126.800,143.268 126.730,143.107 126.469 C 142.944 126.206,143.219 126.129,143.875 126.254 C 144.501 126.374,144.804 126.298,144.657 126.059 C 144.509 125.820,144.812 125.744,145.438 125.863 C 146.071 125.984,146.368 125.908,146.217 125.664 C 146.059 125.409,146.445 125.360,147.303 125.524 C 148.303 125.717,148.487 125.676,148.047 125.362 C 147.593 125.039,147.743 124.979,148.710 125.097 C 149.438 125.186,149.863 125.094,149.729 124.877 C 149.594 124.658,149.997 124.578,150.705 124.682 C 151.413 124.785,151.817 124.705,151.682 124.486 C 151.546 124.267,151.957 124.188,152.679 124.294 C 153.354 124.393,153.906 124.309,153.906 124.107 C 153.906 123.905,154.424 123.815,155.057 123.908 C 155.742 124.009,156.114 123.923,155.974 123.698 C 155.829 123.462,156.383 123.405,157.439 123.547 C 158.644 123.708,158.974 123.659,158.573 123.380 C 158.168 123.097,158.479 123.038,159.668 123.174 C 160.772 123.300,161.243 123.225,161.074 122.952 C 160.904 122.677,161.418 122.609,162.630 122.745 C 163.797 122.877,164.352 122.809,164.195 122.554 C 164.037 122.298,164.731 122.224,166.172 122.344 C 167.394 122.445,168.192 122.403,167.945 122.251 C 167.301 121.853,174.571 121.371,177.451 121.621 C 179.079 121.762,179.495 121.725,178.711 121.509 C 178.032 121.322,183.045 121.186,190.625 121.186 C 197.822 121.186,203.184 121.322,202.539 121.489 C 201.867 121.662,203.118 121.723,205.469 121.631 C 208.173 121.525,209.304 121.594,208.789 121.833 C 208.260 122.078,208.952 122.141,210.938 122.028 C 212.883 121.918,213.605 121.981,213.086 122.217 C 212.562 122.454,213.142 122.511,214.844 122.388 C 216.689 122.255,217.223 122.317,216.797 122.616 C 216.370 122.915,216.795 122.968,218.359 122.810 C 219.950 122.649,220.356 122.701,219.922 123.012 C 219.489 123.323,219.836 123.366,221.252 123.178 C 222.427 123.022,223.080 123.067,222.940 123.294 C 222.806 123.512,223.286 123.598,224.104 123.502 C 225.025 123.395,225.410 123.481,225.240 123.756 C 225.066 124.037,225.451 124.097,226.419 123.939 C 227.310 123.795,227.766 123.851,227.620 124.087 C 227.479 124.316,227.866 124.397,228.592 124.291 C 229.300 124.187,229.703 124.268,229.568 124.486 C 229.433 124.705,229.837 124.785,230.545 124.682 C 231.253 124.578,231.656 124.658,231.521 124.877 C 231.386 125.095,231.790 125.176,232.498 125.072 C 233.235 124.964,233.612 125.046,233.466 125.282 C 233.321 125.516,233.630 125.591,234.250 125.473 C 234.875 125.353,235.179 125.429,235.031 125.668 C 234.883 125.907,235.186 125.983,235.812 125.863 C 236.438 125.744,236.741 125.820,236.593 126.059 C 236.446 126.298,236.749 126.374,237.375 126.254 C 238.031 126.129,238.306 126.206,238.143 126.469 C 237.985 126.725,238.184 126.803,238.671 126.676 C 239.101 126.563,239.453 126.651,239.453 126.871 C 239.453 127.091,239.832 127.171,240.295 127.050 C 240.835 126.909,241.045 126.979,240.881 127.246 C 240.719 127.508,240.913 127.586,241.406 127.457 C 241.836 127.345,242.188 127.443,242.188 127.677 C 242.188 127.910,242.451 127.999,242.773 127.876 C 243.096 127.752,243.359 127.829,243.359 128.047 C 243.359 128.264,243.738 128.343,244.202 128.222 C 244.741 128.081,244.952 128.151,244.787 128.418 C 244.622 128.684,244.833 128.754,245.373 128.613 C 245.946 128.463,246.127 128.536,245.939 128.840 C 245.760 129.130,245.876 129.206,246.269 129.055 C 246.602 128.927,246.875 129.012,246.875 129.243 C 246.875 129.474,247.139 129.562,247.461 129.438 C 247.783 129.314,248.047 129.402,248.047 129.633 C 248.047 129.865,248.339 129.942,248.697 129.804 C 249.131 129.638,249.254 129.705,249.067 130.007 C 248.885 130.303,248.998 130.379,249.394 130.227 C 249.727 130.099,250.000 130.184,250.000 130.415 C 250.000 130.646,250.292 130.723,250.650 130.585 C 251.122 130.404,251.212 130.478,250.980 130.853 C 250.779 131.179,250.812 131.277,251.071 131.117 C 251.596 130.792,254.015 131.792,253.632 132.176 C 253.474 132.334,253.675 132.336,254.080 132.181 C 254.588 131.986,254.729 132.038,254.536 132.351 C 254.347 132.656,254.475 132.720,254.927 132.546 C 255.378 132.373,255.506 132.437,255.317 132.742 C 255.138 133.032,255.244 133.115,255.614 132.973 C 255.930 132.852,256.555 133.117,257.001 133.564 C 257.447 134.010,257.900 134.375,258.008 134.375 C 258.115 134.375,258.389 134.375,258.617 134.375 C 258.844 134.375,258.905 134.578,258.752 134.826 C 258.579 135.105,258.645 135.171,258.923 134.999 C 259.464 134.664,261.057 135.688,260.642 136.103 C 260.482 136.263,260.527 136.358,260.742 136.314 C 261.578 136.146,262.144 136.347,261.908 136.728 C 261.772 136.949,261.806 137.104,261.983 137.073 C 262.780 136.934,263.306 137.144,263.080 137.510 C 262.944 137.730,262.977 137.868,263.155 137.817 C 263.769 137.640,265.255 138.713,264.990 139.142 C 264.843 139.380,264.897 139.466,265.109 139.335 C 265.517 139.083,268.862 142.259,268.791 142.830 C 268.769 143.014,268.932 143.164,269.155 143.164 C 269.378 143.164,269.721 143.425,269.918 143.743 C 271.607 146.477,272.856 134.712,271.243 131.250 C 263.613 114.866,226.991 103.937,184.375 105.325 M91.147 142.188 C 91.147 143.799,91.216 144.458,91.300 143.652 C 91.384 142.847,91.384 141.528,91.300 140.723 C 91.216 139.917,91.147 140.576,91.147 142.188 M98.204 145.703 C 98.204 149.033,98.264 150.396,98.337 148.730 C 98.410 147.065,98.410 144.341,98.337 142.676 C 98.264 141.011,98.204 142.373,98.204 145.703 M91.137 150.977 C 91.139 152.266,91.212 152.746,91.299 152.044 C 91.386 151.342,91.384 150.287,91.295 149.700 C 91.206 149.113,91.134 149.688,91.137 150.977 M318.927 204.395 L 317.383 206.055 319.043 204.511 C 320.587 203.075,320.883 202.734,320.587 202.734 C 320.523 202.734,319.776 203.481,318.927 204.395 M260.359 236.711 C 259.966 237.145,259.796 237.500,259.982 237.500 C 260.167 237.500,259.550 238.283,258.610 239.241 C 257.671 240.198,256.779 240.906,256.628 240.813 C 256.478 240.720,256.023 241.035,255.619 241.513 C 254.889 242.376,254.890 242.378,255.688 241.797 C 256.131 241.475,255.696 241.944,254.722 242.840 C 253.747 243.736,252.826 244.392,252.674 244.299 C 252.522 244.205,252.271 244.334,252.115 244.585 C 251.926 244.891,252.014 244.944,252.381 244.744 C 252.683 244.580,252.402 244.888,251.758 245.428 C 251.114 245.968,250.427 246.312,250.233 246.192 C 250.038 246.071,249.993 246.158,250.133 246.383 C 250.380 246.783,249.343 247.461,248.701 247.318 C 248.524 247.279,248.485 247.418,248.615 247.627 C 248.867 248.035,247.533 248.922,247.122 248.619 C 246.986 248.519,246.962 248.554,247.068 248.695 C 247.278 248.976,245.664 250.239,245.261 250.110 C 245.125 250.066,245.021 250.243,245.029 250.504 C 245.071 251.754,244.887 252.368,244.536 252.151 C 244.306 252.009,244.254 252.185,244.407 252.583 C 244.580 253.035,244.516 253.162,244.211 252.973 C 243.907 252.785,243.843 252.912,244.016 253.364 C 244.190 253.816,244.126 253.943,243.821 253.755 C 243.516 253.566,243.452 253.694,243.626 254.145 C 243.814 254.636,243.744 254.730,243.365 254.496 C 243.021 254.283,242.941 254.327,243.126 254.626 C 243.461 255.167,242.437 256.760,242.022 256.345 C 241.862 256.185,241.774 256.230,241.826 256.445 C 241.993 257.133,241.339 258.208,240.914 257.945 C 240.679 257.800,240.620 257.879,240.775 258.130 C 241.102 258.659,236.421 263.384,235.892 263.058 C 235.692 262.934,235.576 263.009,235.635 263.225 C 235.783 263.768,233.178 265.656,232.694 265.356 C 232.471 265.219,232.422 265.309,232.580 265.565 C 232.843 265.990,232.317 266.205,231.445 266.029 C 231.230 265.986,231.185 266.081,231.345 266.241 C 231.760 266.656,230.167 267.679,229.626 267.345 C 229.358 267.179,229.282 267.238,229.438 267.490 C 229.687 267.894,228.288 268.611,227.608 268.427 C 227.431 268.379,227.415 268.550,227.574 268.807 C 227.773 269.128,227.653 269.193,227.192 269.016 C 226.741 268.843,226.613 268.907,226.802 269.211 C 226.990 269.516,226.863 269.580,226.411 269.407 C 225.959 269.233,225.832 269.297,226.020 269.602 C 226.209 269.907,226.081 269.971,225.630 269.797 C 225.178 269.624,225.051 269.688,225.239 269.993 C 225.432 270.306,225.292 270.358,224.783 270.163 C 224.378 270.008,224.177 270.010,224.335 270.168 C 224.718 270.552,222.300 271.551,221.774 271.227 C 221.534 271.078,221.479 271.160,221.642 271.424 C 221.901 271.843,221.360 272.029,220.024 271.981 C 219.757 271.971,219.653 272.147,219.792 272.371 C 219.951 272.629,219.733 272.698,219.201 272.559 C 218.661 272.418,218.451 272.488,218.615 272.754 C 218.780 273.021,218.569 273.091,218.029 272.950 C 217.489 272.808,217.279 272.878,217.443 273.145 C 217.608 273.411,217.398 273.481,216.857 273.340 C 216.394 273.219,216.100 273.258,216.204 273.426 C 216.448 273.822,214.113 274.296,213.571 273.961 C 213.315 273.803,213.278 273.898,213.474 274.215 C 213.710 274.597,213.535 274.674,212.765 274.527 C 212.146 274.409,211.837 274.484,211.981 274.718 C 212.127 274.954,211.751 275.036,211.014 274.928 C 210.306 274.824,209.902 274.905,210.037 275.123 C 210.172 275.342,209.768 275.422,209.060 275.318 C 208.360 275.216,207.949 275.296,208.082 275.510 C 208.215 275.726,207.731 275.812,206.917 275.717 C 206.109 275.622,205.619 275.708,205.750 275.920 C 205.885 276.139,205.226 276.202,204.107 276.076 C 202.841 275.933,202.413 275.987,202.779 276.244 C 203.143 276.499,202.486 276.563,200.781 276.440 C 199.263 276.330,198.556 276.386,199.023 276.577 C 199.465 276.759,196.066 276.898,191.211 276.898 C 186.129 276.898,182.936 276.762,183.398 276.566 C 183.869 276.365,183.106 276.323,181.481 276.460 C 179.622 276.616,178.863 276.558,179.040 276.271 C 179.214 275.991,178.770 275.926,177.675 276.073 C 176.703 276.204,176.144 276.143,176.280 275.922 C 176.413 275.707,175.928 275.622,175.115 275.717 C 174.300 275.812,173.816 275.726,173.949 275.510 C 174.082 275.296,173.671 275.216,172.971 275.318 C 172.234 275.427,171.857 275.345,172.003 275.109 C 172.148 274.875,171.838 274.799,171.219 274.918 C 170.617 275.033,170.292 274.958,170.429 274.737 C 170.567 274.513,170.172 274.432,169.455 274.537 C 168.718 274.645,168.341 274.564,168.487 274.328 C 168.632 274.094,168.323 274.018,167.704 274.137 C 167.047 274.262,166.772 274.185,166.935 273.921 C 167.096 273.661,166.880 273.591,166.346 273.731 C 165.829 273.866,165.598 273.798,165.747 273.555 C 165.899 273.310,165.603 273.234,164.969 273.355 C 164.313 273.481,164.037 273.404,164.200 273.140 C 164.361 272.879,164.146 272.810,163.611 272.950 C 163.071 273.091,162.861 273.021,163.025 272.754 C 163.190 272.488,162.980 272.418,162.439 272.559 C 161.899 272.700,161.689 272.630,161.854 272.364 C 162.018 272.097,161.808 272.027,161.268 272.168 C 160.736 272.307,160.518 272.238,160.677 271.981 C 160.816 271.756,160.711 271.580,160.445 271.590 C 159.229 271.634,158.565 271.456,158.762 271.138 C 158.880 270.947,158.758 270.799,158.492 270.809 C 157.238 270.854,156.615 270.669,156.833 270.317 C 156.975 270.088,156.800 270.035,156.402 270.188 C 155.950 270.361,155.822 270.298,156.011 269.993 C 156.199 269.688,156.072 269.624,155.620 269.797 C 155.169 269.971,155.041 269.907,155.230 269.602 C 155.418 269.297,155.291 269.233,154.839 269.407 C 154.387 269.580,154.260 269.516,154.448 269.211 C 154.637 268.907,154.509 268.843,154.058 269.016 C 153.606 269.190,153.479 269.126,153.667 268.821 C 153.856 268.516,153.728 268.452,153.277 268.626 C 152.815 268.803,152.696 268.737,152.895 268.416 C 153.053 268.159,153.038 267.989,152.861 268.036 C 152.228 268.208,150.774 267.515,151.000 267.150 C 151.126 266.945,151.085 266.803,150.908 266.833 C 150.049 266.983,149.588 266.755,149.844 266.309 C 149.999 266.040,149.986 265.946,149.816 266.100 C 149.341 266.528,147.986 265.653,148.294 265.117 C 148.442 264.859,148.424 264.774,148.253 264.928 C 147.796 265.341,146.418 264.486,146.729 263.983 C 146.888 263.726,146.817 263.661,146.555 263.824 C 145.969 264.186,140.892 259.109,141.254 258.524 C 141.417 258.261,141.352 258.190,141.096 258.349 C 140.592 258.660,139.738 257.282,140.150 256.825 C 140.304 256.655,140.217 256.637,139.958 256.786 C 139.416 257.097,138.151 254.965,138.590 254.479 C 138.742 254.310,138.676 254.280,138.443 254.413 C 137.925 254.708,136.600 252.070,136.968 251.475 C 137.124 251.222,137.048 251.163,136.779 251.330 C 136.514 251.494,136.328 251.364,136.328 251.013 C 136.328 250.686,135.972 250.227,135.536 249.994 C 135.100 249.761,134.864 249.376,135.010 249.139 C 135.160 248.896,135.100 248.817,134.872 248.958 C 134.649 249.095,133.963 248.829,133.347 248.365 C 131.928 247.298,131.246 246.647,131.994 247.073 C 132.373 247.290,132.452 247.239,132.248 246.909 C 132.086 246.647,131.860 246.526,131.745 246.640 C 131.357 247.029,130.053 246.061,130.325 245.586 C 130.473 245.328,130.454 245.243,130.284 245.397 C 129.909 245.736,127.937 244.256,127.912 243.617 C 127.902 243.368,127.706 243.200,127.476 243.244 C 127.245 243.289,125.834 242.146,124.340 240.705 C 122.846 239.265,122.339 238.701,123.214 239.453 L 124.805 240.820 123.276 239.176 C 122.436 238.272,121.621 237.611,121.465 237.707 C 121.310 237.803,120.961 237.616,120.691 237.291 C 120.038 236.503,119.140 237.297,117.613 240.013 C 107.907 257.281,125.510 276.156,158.203 283.539 C 209.009 295.011,266.797 276.956,266.797 249.609 C 266.797 243.322,262.381 234.476,260.359 236.711 M336.435 242.188 C 336.435 243.154,336.511 243.550,336.604 243.066 C 336.697 242.583,336.697 241.792,336.604 241.309 C 336.511 240.825,336.435 241.221,336.435 242.188 M155.299 260.505 C 155.152 260.743,155.229 260.938,155.469 260.938 C 155.709 260.938,155.798 261.111,155.667 261.324 C 155.525 261.553,155.700 261.605,156.098 261.453 C 156.589 261.264,156.683 261.334,156.449 261.713 C 156.244 262.045,156.281 262.136,156.553 261.968 C 157.080 261.642,159.807 262.899,159.533 263.341 C 159.424 263.518,159.636 263.547,160.005 263.406 C 160.427 263.244,160.580 263.302,160.420 263.561 C 160.279 263.788,160.382 263.966,160.649 263.957 C 161.873 263.913,162.528 264.092,162.327 264.417 C 162.207 264.612,162.488 264.672,162.951 264.550 C 163.524 264.401,163.706 264.473,163.517 264.778 C 163.338 265.068,163.454 265.144,163.847 264.993 C 164.180 264.865,164.453 264.938,164.453 265.156 C 164.453 265.374,164.832 265.453,165.295 265.332 C 165.835 265.190,166.045 265.261,165.881 265.527 C 165.716 265.793,165.927 265.864,166.467 265.722 C 167.095 265.558,167.229 265.633,166.993 266.014 C 166.797 266.331,166.829 266.432,167.077 266.279 C 167.683 265.905,173.443 267.253,173.165 267.703 C 173.030 267.921,173.125 267.966,173.384 267.807 C 173.636 267.651,174.823 267.646,176.023 267.796 C 177.285 267.954,178.001 268.195,177.722 268.367 C 177.456 268.532,178.079 268.571,179.107 268.455 C 180.167 268.336,180.884 268.396,180.762 268.595 C 180.639 268.795,183.664 268.991,187.832 269.051 C 191.839 269.109,195.645 269.241,196.289 269.343 C 197.161 269.482,197.264 269.445,196.692 269.202 C 195.727 268.792,202.667 268.208,203.718 268.611 C 204.236 268.810,204.342 268.748,204.112 268.377 C 203.873 267.989,204.125 267.909,205.193 268.033 C 205.959 268.123,206.514 268.080,206.427 267.939 C 206.209 267.586,209.747 267.130,210.257 267.445 C 210.513 267.603,210.550 267.508,210.354 267.191 C 210.118 266.809,210.293 266.732,211.063 266.879 C 211.689 266.999,211.992 266.923,211.844 266.684 C 211.696 266.445,212.000 266.369,212.625 266.488 C 213.259 266.610,213.555 266.533,213.404 266.288 C 213.254 266.046,213.485 265.978,214.002 266.113 C 214.542 266.254,214.753 266.184,214.588 265.918 C 214.423 265.651,214.634 265.581,215.174 265.722 C 215.714 265.864,215.924 265.793,215.760 265.527 C 215.595 265.261,215.806 265.190,216.346 265.332 C 216.886 265.473,217.096 265.403,216.932 265.136 C 216.767 264.870,216.977 264.800,217.518 264.941 C 217.981 265.062,218.270 265.015,218.159 264.835 C 217.886 264.394,219.409 263.941,219.979 264.293 C 220.282 264.481,220.327 264.402,220.113 264.056 C 219.879 263.678,219.973 263.608,220.464 263.796 C 220.833 263.938,221.048 263.914,220.943 263.744 C 220.723 263.388,225.777 261.082,226.367 261.269 C 226.582 261.337,226.622 261.258,226.457 261.092 C 226.045 260.680,224.597 260.601,224.846 261.004 C 225.030 261.302,224.341 261.477,223.149 261.434 C 222.882 261.424,222.778 261.600,222.917 261.824 C 223.076 262.082,222.858 262.151,222.326 262.012 C 221.786 261.871,221.576 261.941,221.740 262.207 C 221.905 262.474,221.694 262.544,221.154 262.403 C 220.614 262.261,220.404 262.332,220.568 262.598 C 220.733 262.864,220.523 262.935,219.982 262.793 C 219.442 262.652,219.232 262.722,219.396 262.989 C 219.561 263.255,219.351 263.325,218.811 263.184 C 218.270 263.043,218.060 263.113,218.225 263.379 C 218.389 263.646,218.179 263.716,217.639 263.575 C 217.104 263.435,216.889 263.504,217.050 263.765 C 217.213 264.029,216.937 264.106,216.281 263.980 C 215.655 263.861,215.352 263.936,215.500 264.176 C 215.647 264.415,215.344 264.491,214.718 264.371 C 214.092 264.251,213.789 264.327,213.937 264.566 C 214.085 264.805,213.782 264.881,213.156 264.762 C 212.537 264.643,212.227 264.719,212.372 264.953 C 212.518 265.189,212.141 265.270,211.404 265.162 C 210.696 265.058,210.293 265.139,210.428 265.358 C 210.563 265.576,210.159 265.657,209.451 265.553 C 208.729 265.447,208.339 265.528,208.479 265.755 C 208.625 265.991,208.070 266.048,207.014 265.907 C 206.048 265.777,205.541 265.819,205.840 266.004 C 206.517 266.422,200.832 266.978,199.559 266.617 C 198.922 266.437,198.799 266.470,199.165 266.724 C 199.505 266.959,196.476 267.088,190.766 267.079 C 185.855 267.072,182.275 266.937,182.813 266.778 C 183.350 266.620,182.559 266.574,181.055 266.675 C 179.282 266.796,178.504 266.731,178.842 266.492 C 179.185 266.250,178.651 266.182,177.279 266.293 C 175.756 266.417,175.353 266.353,175.781 266.055 C 176.211 265.756,175.960 265.713,174.842 265.892 C 173.919 266.041,173.406 265.991,173.545 265.768 C 173.678 265.552,173.175 265.455,172.336 265.537 C 171.238 265.643,171.037 265.577,171.484 265.260 C 171.923 264.949,171.736 264.909,170.740 265.101 C 169.913 265.260,169.499 265.212,169.645 264.975 C 169.787 264.746,169.399 264.665,168.674 264.772 C 167.760 264.906,167.543 264.827,167.778 264.445 C 167.972 264.132,167.934 264.038,167.679 264.196 C 167.153 264.520,164.798 264.062,165.034 263.681 C 165.131 263.523,164.750 263.482,164.188 263.590 C 163.532 263.715,163.256 263.638,163.419 263.374 C 163.580 263.114,163.365 263.044,162.830 263.184 C 162.202 263.348,162.068 263.274,162.304 262.892 C 162.512 262.556,162.468 262.473,162.178 262.653 C 161.637 262.987,158.546 262.112,158.802 261.697 C 158.903 261.534,158.606 261.500,158.143 261.621 C 157.569 261.771,157.388 261.699,157.576 261.394 C 157.761 261.095,157.631 261.032,157.183 261.204 C 156.692 261.392,156.598 261.322,156.832 260.944 C 157.055 260.583,157.002 260.519,156.657 260.732 C 156.376 260.905,156.034 260.829,155.865 260.555 C 155.652 260.212,155.489 260.197,155.299 260.505 M192.090 267.467 C 191.499 267.557,190.532 267.557,189.941 267.467 C 189.351 267.378,189.834 267.305,191.016 267.305 C 192.197 267.305,192.681 267.378,192.090 267.467 M182.329 309.261 C 182.815 309.354,183.518 309.351,183.891 309.253 C 184.265 309.155,183.867 309.079,183.008 309.083 C 182.148 309.087,181.843 309.167,182.329 309.261 M196.391 309.261 C 196.877 309.354,197.580 309.351,197.954 309.253 C 198.327 309.155,197.930 309.079,197.070 309.083 C 196.211 309.087,195.905 309.167,196.391 309.261 " stroke="none" fill="#d3d4d3" fill-rule="evenodd"></path><path id="path4" d="M180.371 121.760 C 180.854 121.853,181.646 121.853,182.129 121.760 C 182.612 121.667,182.217 121.591,181.250 121.591 C 180.283 121.591,179.888 121.667,180.371 121.760 M199.516 121.761 C 200.002 121.854,200.705 121.851,201.079 121.753 C 201.452 121.655,201.055 121.579,200.195 121.583 C 199.336 121.587,199.030 121.667,199.516 121.761 M98.168 137.695 C 98.170 138.984,98.243 139.465,98.330 138.763 C 98.417 138.060,98.415 137.006,98.326 136.419 C 98.237 135.832,98.166 136.406,98.168 137.695 M292.491 137.396 C 293.410 137.478,294.816 137.477,295.616 137.393 C 296.416 137.309,295.664 137.242,293.945 137.243 C 292.227 137.245,291.572 137.313,292.491 137.396 M266.602 141.016 C 267.441 141.875,268.215 142.578,268.323 142.578 C 268.430 142.578,267.831 141.875,266.992 141.016 C 266.153 140.156,265.379 139.453,265.271 139.453 C 265.164 139.453,265.762 140.156,266.602 141.016 M91.133 146.875 C 91.133 148.057,91.206 148.540,91.295 147.949 C 91.385 147.358,91.385 146.392,91.295 145.801 C 91.206 145.210,91.133 145.693,91.133 146.875 M98.164 153.516 C 98.164 154.697,98.237 155.181,98.327 154.590 C 98.416 153.999,98.416 153.032,98.327 152.441 C 98.237 151.851,98.164 152.334,98.164 153.516 M289.950 157.422 C 289.950 158.389,290.026 158.784,290.119 158.301 C 290.213 157.817,290.213 157.026,290.119 156.543 C 290.026 156.060,289.950 156.455,289.950 157.422 M185.254 168.249 C 185.845 168.338,186.812 168.338,187.402 168.249 C 187.993 168.159,187.510 168.086,186.328 168.086 C 185.146 168.086,184.663 168.159,185.254 168.249 M195.215 168.244 C 195.698 168.338,196.489 168.338,196.973 168.244 C 197.456 168.151,197.061 168.075,196.094 168.075 C 195.127 168.075,194.731 168.151,195.215 168.244 M257.989 239.160 L 256.445 240.820 258.105 239.276 C 259.649 237.840,259.945 237.500,259.650 237.500 C 259.586 237.500,258.839 238.247,257.989 239.160 M52.060 242.188 C 52.060 243.154,52.136 243.550,52.229 243.066 C 52.322 242.583,52.322 241.792,52.229 241.309 C 52.136 240.825,52.060 241.221,52.060 242.188 M45.013 242.188 C 45.013 242.939,45.093 243.247,45.191 242.871 C 45.289 242.495,45.289 241.880,45.191 241.504 C 45.093 241.128,45.013 241.436,45.013 242.188 M179.785 309.254 C 180.161 309.352,180.776 309.352,181.152 309.254 C 181.528 309.155,181.221 309.075,180.469 309.075 C 179.717 309.075,179.409 309.155,179.785 309.254 M199.121 309.260 C 199.604 309.353,200.396 309.353,200.879 309.260 C 201.362 309.167,200.967 309.091,200.000 309.091 C 199.033 309.091,198.638 309.167,199.121 309.260 M178.223 316.285 C 178.599 316.383,179.214 316.383,179.590 316.285 C 179.966 316.187,179.658 316.106,178.906 316.106 C 178.154 316.106,177.847 316.187,178.223 316.285 M200.879 316.285 C 201.255 316.383,201.870 316.383,202.246 316.285 C 202.622 316.187,202.314 316.106,201.563 316.106 C 200.811 316.106,200.503 316.187,200.879 316.285 " stroke="none" fill="#a09892" fill-rule="evenodd"></path></g></svg>