<svg id="svg" version="1.1" xmlns="http://www.w3.org/2000/svg" xmlns:xlink="http://www.w3.org/1999/xlink" width="200" height="200" viewBox="0, 0, 400,400"><g id="svgg"><path id="path0" d="M118.351 54.685 C 113.128 55.318,110.130 59.404,109.584 66.633 C 109.439 68.549,108.885 75.215,108.353 81.445 C 107.821 87.676,107.049 96.992,106.637 102.148 C 105.554 115.688,105.158 120.312,104.307 129.297 C 103.890 133.701,103.352 139.766,103.110 142.773 C 102.355 152.186,100.674 154.566,97.007 151.412 C 95.190 149.849,94.826 131.609,95.904 96.106 C 96.421 79.073,96.422 76.550,95.915 74.817 C 95.261 72.583,94.259 70.974,93.728 71.303 C 93.530 71.425,93.462 71.281,93.577 70.982 C 94.100 69.618,88.527 67.336,85.867 67.825 C 79.599 68.977,78.480 71.795,77.163 89.747 C 75.105 117.804,74.000 136.953,72.661 167.773 C 72.447 172.715,72.189 178.164,72.090 179.883 C 71.931 182.609,71.953 182.759,72.265 181.055 C 72.461 179.980,72.807 174.443,73.034 168.750 C 73.260 163.057,73.526 157.168,73.625 155.664 C 73.724 154.160,73.909 150.557,74.037 147.656 C 75.282 119.419,78.203 77.904,79.169 74.719 C 80.891 69.040,89.473 65.846,92.005 69.942 C 92.184 70.233,92.149 70.335,91.919 70.193 C 91.666 70.036,91.442 74.672,91.277 83.511 C 91.137 90.969,90.849 100.146,90.638 103.906 C 88.317 145.060,89.018 152.736,95.015 151.856 C 95.756 151.747,96.638 151.901,97.134 152.226 C 98.492 153.116,101.139 152.740,102.039 151.531 C 102.884 150.394,104.126 138.120,107.017 102.344 C 107.460 96.865,108.249 87.549,108.770 81.641 C 109.292 75.732,109.827 69.316,109.960 67.383 C 110.400 60.975,112.174 57.461,115.799 55.815 C 119.434 54.163,126.552 55.605,125.425 57.764 C 125.243 58.113,124.888 61.914,124.637 66.211 C 123.934 78.200,122.996 89.789,121.299 107.422 C 118.631 135.152,117.851 149.361,118.906 150.972 C 119.559 151.968,123.438 152.429,123.438 151.510 C 123.438 151.344,123.869 151.639,124.396 152.166 C 125.782 153.552,127.761 153.475,129.012 151.988 C 130.140 150.648,130.058 151.268,131.639 132.031 C 132.283 124.189,133.250 112.764,133.787 106.641 C 134.324 100.518,135.094 91.526,135.499 86.660 C 136.471 74.978,137.494 72.648,142.329 71.097 C 145.753 70.000,150.308 71.396,150.104 73.482 C 148.812 86.729,146.901 109.416,145.716 125.586 C 145.290 131.387,144.653 138.983,144.300 142.466 C 143.213 153.182,143.755 155.602,147.256 155.645 C 148.120 155.655,148.826 155.856,148.827 156.092 C 148.831 157.655,151.828 158.328,153.104 157.052 C 154.367 155.789,155.323 149.633,157.626 127.930 C 160.072 104.871,160.758 100.885,162.616 98.894 C 165.417 95.895,172.571 96.250,172.097 99.365 C 171.995 100.037,171.804 101.904,171.674 103.516 C 171.543 105.127,171.019 109.609,170.508 113.477 C 169.230 123.161,167.374 137.808,166.624 144.141 C 164.332 163.494,164.269 176.728,166.379 195.703 C 167.871 209.123,168.122 212.803,168.097 220.898 C 168.046 237.264,165.699 244.730,157.229 255.469 C 151.315 262.967,150.309 265.763,149.216 277.734 C 147.303 298.679,138.668 318.559,125.803 331.634 C 122.622 334.867,120.236 336.661,113.367 340.979 L 108.961 343.750 94.129 343.750 C 85.971 343.750,79.297 343.681,79.297 343.597 C 79.297 343.513,79.640 341.711,80.059 339.593 C 80.479 337.475,81.702 330.732,82.778 324.609 C 90.868 278.588,92.399 266.458,90.851 260.643 C 90.550 259.514,90.464 258.690,90.660 258.811 C 90.856 258.932,91.016 259.356,91.016 259.753 C 91.016 260.850,94.244 264.579,96.362 265.929 C 100.900 268.820,106.831 269.521,111.032 267.663 C 114.696 266.042,114.122 265.496,107.401 264.210 C 95.274 261.890,92.651 260.531,84.008 252.088 C 58.003 226.688,49.870 213.560,47.865 193.750 C 47.528 190.420,46.999 185.410,46.689 182.617 C 46.380 179.824,45.849 174.902,45.510 171.680 C 44.708 164.060,43.226 153.840,41.998 147.461 C 40.526 139.818,40.942 137.931,44.350 136.784 C 47.114 135.853,54.344 137.808,54.003 139.392 C 53.948 139.645,54.415 140.772,55.041 141.898 C 56.614 144.729,58.657 151.339,60.324 158.984 C 66.032 185.173,65.539 184.134,74.332 188.489 C 87.648 195.083,96.512 202.752,106.893 216.658 C 112.372 223.996,116.024 227.455,115.393 224.707 C 112.320 211.320,91.410 190.880,76.294 186.485 C 71.390 185.060,70.865 183.888,65.055 161.401 C 62.059 149.809,60.919 146.348,59.341 144.045 C 57.930 141.989,56.550 140.635,56.130 140.895 C 55.915 141.028,55.854 140.949,55.995 140.721 C 56.734 139.526,50.842 136.306,47.415 136.031 C 41.050 135.520,39.836 138.246,41.772 148.694 C 43.366 157.298,44.326 164.219,45.503 175.586 C 48.574 205.248,48.691 205.917,52.117 213.436 C 56.130 222.241,67.084 235.893,82.082 250.781 C 91.395 260.026,91.583 260.481,90.652 271.484 C 89.894 280.435,83.899 317.516,79.506 340.430 C 79.176 342.148,78.906 343.687,78.906 343.848 C 78.906 344.009,97.188 344.141,119.531 344.141 C 153.330 344.141,160.156 344.052,160.156 343.614 C 160.156 343.325,160.590 338.096,161.119 331.993 C 162.386 317.396,163.938 298.183,164.459 290.625 C 165.634 273.601,166.743 268.439,171.254 259.002 C 176.973 247.036,177.904 243.205,177.899 231.641 C 177.895 223.238,177.880 223.099,175.154 206.250 C 170.105 175.037,169.754 165.038,172.638 134.570 C 173.269 127.910,173.890 121.055,174.018 119.336 C 174.146 117.617,174.422 114.345,174.631 112.064 C 175.153 106.369,175.148 102.370,174.616 100.977 C 172.689 95.926,165.153 94.742,161.919 98.982 C 160.145 101.308,160.346 100.097,157.417 126.172 C 154.012 156.492,153.905 157.053,151.475 157.345 C 149.635 157.567,149.088 156.480,149.363 153.145 C 150.380 140.802,151.194 128.855,151.560 120.898 C 151.797 115.742,152.328 106.162,152.741 99.609 C 153.153 93.057,153.608 85.757,153.752 83.389 C 154.060 78.311,153.479 75.671,151.538 73.329 C 147.385 68.316,139.304 69.624,136.641 75.739 C 135.789 77.694,135.926 76.294,131.834 124.929 C 129.438 153.403,129.567 152.734,126.453 152.734 C 123.895 152.734,123.877 152.474,125.000 132.031 C 126.255 109.175,126.982 97.467,128.384 77.539 C 129.281 64.792,129.276 61.531,128.357 59.766 C 126.349 55.908,122.864 54.138,118.351 54.685 M276.367 55.430 C 270.662 58.077,270.458 59.492,272.249 83.996 C 273.511 101.259,274.919 126.688,275.638 145.201 C 275.929 152.672,275.815 153.125,273.653 153.125 C 270.666 153.125,270.447 151.911,267.973 121.680 C 263.951 72.541,264.436 76.113,261.370 73.059 C 256.616 68.326,249.139 69.944,247.077 76.152 C 246.336 78.383,246.323 77.996,248.049 104.492 C 248.469 110.938,249.086 121.484,249.421 127.930 C 249.756 134.375,250.287 143.164,250.601 147.461 C 251.245 156.255,251.049 157.227,248.633 157.227 C 246.228 157.227,245.304 151.449,240.983 109.375 C 240.372 103.422,239.918 101.475,238.753 99.808 C 234.883 94.272,226.429 95.852,225.030 102.373 C 224.624 104.267,224.665 104.812,227.560 136.328 C 230.035 163.273,229.408 178.698,224.615 208.789 C 220.357 235.518,220.927 243.197,228.226 257.413 C 233.571 267.824,234.000 269.930,235.734 294.336 C 236.070 299.063,237.044 312.068,237.899 323.236 C 238.754 334.405,239.453 343.678,239.453 343.842 C 239.453 344.006,257.921 344.141,280.492 344.141 C 303.063 344.141,321.445 344.002,321.341 343.833 C 320.745 342.870,311.084 285.123,309.986 275.961 C 308.350 262.317,308.883 260.256,315.898 253.097 C 320.565 248.335,321.968 246.679,320.643 247.498 C 320.361 247.672,320.298 247.605,320.474 247.320 C 320.630 247.068,320.905 246.954,321.087 247.066 C 321.759 247.481,334.543 233.164,340.368 225.472 C 349.563 213.330,351.176 208.379,353.688 184.570 C 355.858 164.006,356.582 158.161,357.873 150.781 C 360.120 137.932,359.355 135.649,352.930 136.029 C 344.206 136.546,339.359 143.282,334.927 161.047 C 332.156 172.151,330.229 178.934,329.154 181.363 C 328.034 183.897,328.109 184.359,329.272 182.081 C 330.272 180.121,332.278 173.272,334.739 163.422 C 339.037 146.216,341.842 140.880,348.236 137.750 C 351.280 136.259,357.031 135.967,357.031 137.302 C 357.031 137.375,355.907 141.097,354.533 145.573 C 351.150 156.596,349.746 163.506,348.238 176.563 C 345.785 197.798,342.871 206.812,334.478 219.128 C 327.015 230.079,319.408 238.122,308.185 246.926 C 306.369 248.351,303.213 250.861,301.172 252.504 C 295.751 256.868,289.869 259.619,279.801 262.499 C 275.422 263.752,275.562 264.486,280.725 267.360 C 288.164 271.501,290.169 274.597,291.362 283.789 C 291.771 286.942,291.891 288.168,292.625 296.680 C 292.848 299.258,293.123 310.813,293.238 322.358 L 293.446 343.349 307.172 343.457 C 314.722 343.517,302.661 343.607,280.371 343.658 C 258.081 343.708,239.844 343.614,239.844 343.449 C 239.844 343.283,239.235 335.241,238.491 325.578 C 237.747 315.914,236.689 301.768,236.140 294.141 C 234.396 269.885,234.028 267.984,229.229 258.443 C 221.453 242.981,220.715 235.405,224.640 211.328 C 230.479 175.510,230.723 166.244,226.920 124.805 C 224.965 103.506,224.942 102.592,226.304 100.268 C 229.259 95.225,236.984 95.721,237.330 100.977 C 238.359 116.596,242.378 148.193,244.000 153.413 C 244.543 155.162,245.703 156.958,245.703 156.050 C 245.703 155.887,246.075 156.227,246.529 156.804 C 247.727 158.327,249.867 158.115,250.880 156.375 C 251.574 155.183,251.579 154.800,251.010 147.000 C 250.684 142.527,250.146 133.682,249.813 127.344 C 249.220 116.027,248.782 108.721,248.047 97.852 C 246.933 81.382,246.830 78.573,247.278 76.886 C 248.892 70.821,255.962 68.814,260.647 73.092 C 261.559 73.924,262.032 74.513,261.699 74.400 C 261.173 74.222,261.129 74.569,261.363 77.039 C 261.511 78.603,261.745 83.926,261.884 88.867 C 262.414 107.727,262.843 116.043,263.878 127.539 C 265.382 144.241,266.794 151.166,268.992 152.606 C 270.585 153.649,274.688 153.726,275.591 152.729 C 276.445 151.785,276.445 153.040,275.588 134.375 C 274.420 108.928,273.725 97.191,272.258 78.125 C 270.910 60.599,271.328 58.299,276.295 55.894 C 279.492 54.347,287.005 55.783,286.328 57.813 C 285.743 59.567,286.757 78.141,288.482 97.266 C 289.208 105.322,289.989 115.518,290.218 119.922 C 291.788 150.206,291.842 150.638,294.142 151.368 C 295.876 151.918,296.802 151.220,296.649 149.480 L 296.506 147.852 296.866 149.518 C 297.754 153.621,302.252 154.285,304.102 150.586 C 305.050 148.690,305.239 106.183,304.383 87.484 C 303.684 72.226,305.067 68.797,312.067 68.444 C 316.265 68.231,317.182 68.957,317.391 72.661 C 317.483 74.269,317.913 82.617,318.348 91.211 C 318.782 99.805,319.571 112.373,320.099 119.141 C 322.235 146.494,322.275 156.769,320.290 168.199 C 318.430 178.913,316.570 182.232,307.471 191.071 C 295.765 202.443,288.418 212.808,284.991 222.786 C 284.077 225.446,283.743 228.126,284.593 225.977 C 284.763 225.547,285.813 223.877,286.927 222.266 C 288.041 220.654,289.932 217.897,291.128 216.139 C 300.160 202.867,309.425 194.260,320.553 188.803 C 328.502 184.905,327.939 186.404,327.371 170.650 C 325.907 130.055,322.639 78.553,321.273 74.543 C 318.919 67.636,310.478 65.518,306.089 70.733 C 303.452 73.867,303.423 74.351,304.290 100.391 C 304.741 113.964,304.767 135.626,304.343 144.427 C 304.010 151.324,303.548 152.344,300.756 152.344 C 297.501 152.344,297.453 152.144,295.703 131.250 C 295.262 125.986,294.818 121.152,294.716 120.508 C 294.614 119.863,293.737 108.789,292.768 95.898 C 291.798 83.008,290.843 70.352,290.644 67.773 C 289.835 57.270,283.746 52.006,276.367 55.430 M127.594 59.481 C 127.918 60.107,128.082 60.720,127.958 60.844 C 127.835 60.967,127.734 60.887,127.734 60.666 C 127.734 60.446,127.274 59.586,126.710 58.756 C 126.147 57.927,125.983 57.494,126.346 57.795 C 126.708 58.095,127.270 58.854,127.594 59.481 M128.401 68.066 C 128.308 68.550,128.231 68.154,128.231 67.188 C 128.231 66.221,128.308 65.825,128.401 66.309 C 128.494 66.792,128.494 67.583,128.401 68.066 M290.127 69.622 C 290.040 70.324,289.967 69.844,289.965 68.555 C 289.963 67.266,290.034 66.691,290.123 67.278 C 290.212 67.865,290.214 68.920,290.127 69.622 M128.014 73.730 C 127.925 74.321,127.851 73.838,127.851 72.656 C 127.851 71.475,127.925 70.991,128.014 71.582 C 128.104 72.173,128.104 73.140,128.014 73.730 M290.514 76.074 C 290.425 76.665,290.351 76.182,290.351 75.000 C 290.351 73.818,290.425 73.335,290.514 73.926 C 290.604 74.517,290.604 75.483,290.514 76.074 M263.279 76.930 C 263.278 77.265,263.014 77.036,262.693 76.420 C 261.954 75.004,261.962 74.576,262.708 75.563 C 263.023 75.980,263.280 76.595,263.279 76.930 M127.613 79.980 C 127.515 80.356,127.434 80.049,127.434 79.297 C 127.434 78.545,127.515 78.237,127.613 78.613 C 127.711 78.989,127.711 79.604,127.613 79.980 M290.894 80.371 C 290.796 80.747,290.716 80.439,290.716 79.688 C 290.716 78.936,290.796 78.628,290.894 79.004 C 290.993 79.380,290.993 79.995,290.894 80.371 M263.948 81.738 C 263.854 82.222,263.778 81.826,263.778 80.859 C 263.778 79.893,263.854 79.497,263.948 79.980 C 264.041 80.464,264.041 81.255,263.948 81.738 M321.765 83.100 C 321.675 83.694,321.599 83.301,321.596 82.227 C 321.593 81.152,321.667 80.667,321.759 81.147 C 321.852 81.627,321.854 82.506,321.765 83.100 M95.596 84.466 C 95.509 85.168,95.436 84.688,95.434 83.398 C 95.431 82.109,95.502 81.535,95.592 82.122 C 95.681 82.709,95.683 83.764,95.596 84.466 M127.233 85.840 C 127.143 86.431,127.070 85.947,127.070 84.766 C 127.070 83.584,127.143 83.101,127.233 83.691 C 127.322 84.282,127.322 85.249,127.233 85.840 M153.014 86.230 C 152.925 86.821,152.851 86.338,152.851 85.156 C 152.851 83.975,152.925 83.491,153.014 84.082 C 153.104 84.673,153.104 85.640,153.014 86.230 M264.332 85.840 C 264.234 86.216,264.153 85.908,264.153 85.156 C 264.153 84.404,264.234 84.097,264.332 84.473 C 264.430 84.849,264.430 85.464,264.332 85.840 M322.151 88.374 C 322.058 88.860,321.978 88.555,321.974 87.695 C 321.969 86.836,322.046 86.438,322.143 86.812 C 322.241 87.185,322.245 87.888,322.151 88.374 M264.729 89.546 C 264.636 90.032,264.556 89.727,264.552 88.867 C 264.547 88.008,264.624 87.610,264.722 87.984 C 264.819 88.357,264.823 89.060,264.729 89.546 M152.613 92.480 C 152.515 92.856,152.434 92.549,152.434 91.797 C 152.434 91.045,152.515 90.737,152.613 91.113 C 152.711 91.489,152.711 92.104,152.613 92.480 M322.535 94.043 C 322.437 94.419,322.356 94.111,322.356 93.359 C 322.356 92.607,322.437 92.300,322.535 92.676 C 322.633 93.052,322.633 93.667,322.535 94.043 M265.124 95.209 C 265.034 95.803,264.958 95.410,264.955 94.336 C 264.953 93.262,265.026 92.776,265.119 93.256 C 265.211 93.737,265.214 94.616,265.124 95.209 M95.211 100.473 C 95.135 101.824,95.072 100.820,95.071 98.242 C 95.070 95.664,95.133 94.559,95.210 95.785 C 95.287 97.012,95.288 99.122,95.211 100.473 M292.073 96.191 C 291.979 96.675,291.903 96.279,291.903 95.313 C 291.903 94.346,291.979 93.950,292.073 94.434 C 292.166 94.917,292.166 95.708,292.073 96.191 M126.448 97.359 C 126.355 97.845,126.275 97.539,126.270 96.680 C 126.266 95.820,126.342 95.423,126.440 95.796 C 126.538 96.170,126.542 96.873,126.448 97.359 M152.233 98.340 C 152.143 98.931,152.070 98.447,152.070 97.266 C 152.070 96.084,152.143 95.601,152.233 96.191 C 152.322 96.782,152.322 97.749,152.233 98.340 M322.926 98.730 C 322.827 99.106,322.747 98.799,322.747 98.047 C 322.747 97.295,322.827 96.987,322.926 97.363 C 323.024 97.739,323.024 98.354,322.926 98.730 M265.514 100.684 C 265.425 101.274,265.351 100.791,265.351 99.609 C 265.351 98.428,265.425 97.944,265.514 98.535 C 265.604 99.126,265.604 100.093,265.514 100.684 M292.468 101.069 C 292.378 101.663,292.302 101.270,292.299 100.195 C 292.296 99.121,292.370 98.635,292.462 99.116 C 292.555 99.596,292.558 100.475,292.468 101.069 M126.062 103.022 C 125.972 103.616,125.896 103.223,125.893 102.148 C 125.890 101.074,125.964 100.588,126.056 101.069 C 126.149 101.549,126.151 102.428,126.062 103.022 M323.327 104.194 C 323.237 104.788,323.162 104.395,323.159 103.320 C 323.156 102.246,323.229 101.760,323.322 102.241 C 323.415 102.721,323.417 103.600,323.327 104.194 M174.504 106.144 C 174.419 106.954,174.349 106.387,174.347 104.883 C 174.345 103.379,174.414 102.716,174.501 103.409 C 174.587 104.103,174.588 105.333,174.504 106.144 M265.905 104.975 C 265.816 105.569,265.740 105.176,265.737 104.102 C 265.734 103.027,265.807 102.542,265.900 103.022 C 265.993 103.502,265.995 104.381,265.905 104.975 M292.854 106.343 C 292.761 106.829,292.681 106.523,292.677 105.664 C 292.672 104.805,292.749 104.407,292.847 104.781 C 292.944 105.154,292.948 105.857,292.854 106.343 M125.670 109.277 C 125.581 109.868,125.508 109.385,125.508 108.203 C 125.508 107.021,125.581 106.538,125.670 107.129 C 125.760 107.720,125.760 108.687,125.670 109.277 M266.285 109.668 C 266.187 110.044,266.106 109.736,266.106 108.984 C 266.106 108.232,266.187 107.925,266.285 108.301 C 266.383 108.677,266.383 109.292,266.285 109.668 M323.713 110.645 C 323.620 111.128,323.544 110.732,323.544 109.766 C 323.544 108.799,323.620 108.403,323.713 108.887 C 323.806 109.370,323.806 110.161,323.713 110.645 M174.104 111.426 C 174.011 111.909,173.935 111.514,173.935 110.547 C 173.935 109.580,174.011 109.185,174.104 109.668 C 174.197 110.151,174.197 110.942,174.104 111.426 M151.448 111.816 C 151.354 112.300,151.278 111.904,151.278 110.938 C 151.278 109.971,151.354 109.575,151.448 110.059 C 151.541 110.542,151.541 111.333,151.448 111.816 M240.510 111.816 C 240.417 112.300,240.341 111.904,240.341 110.938 C 240.341 109.971,240.417 109.575,240.510 110.059 C 240.603 110.542,240.603 111.333,240.510 111.816 M293.245 111.421 C 293.152 111.907,293.072 111.602,293.067 110.742 C 293.063 109.883,293.139 109.485,293.237 109.859 C 293.335 110.232,293.338 110.935,293.245 111.421 M94.823 122.754 C 94.753 124.956,94.696 123.154,94.696 118.750 C 94.696 114.346,94.753 112.544,94.823 114.746 C 94.892 116.948,94.892 120.552,94.823 122.754 M125.287 116.884 C 125.204 117.803,125.135 117.148,125.134 115.430 C 125.132 113.711,125.200 112.959,125.284 113.759 C 125.368 114.559,125.369 115.965,125.287 116.884 M266.687 115.131 C 266.597 115.725,266.521 115.332,266.518 114.258 C 266.515 113.184,266.589 112.698,266.681 113.178 C 266.774 113.659,266.776 114.538,266.687 115.131 M240.901 115.327 C 240.808 115.813,240.728 115.508,240.724 114.648 C 240.719 113.789,240.796 113.392,240.893 113.765 C 240.991 114.138,240.995 114.842,240.901 115.327 M173.714 115.718 C 173.620 116.204,173.540 115.898,173.536 115.039 C 173.532 114.180,173.608 113.782,173.706 114.156 C 173.804 114.529,173.807 115.232,173.714 115.718 M293.629 115.527 C 293.530 115.903,293.450 115.596,293.450 114.844 C 293.450 114.092,293.530 113.784,293.629 114.160 C 293.727 114.536,293.727 115.151,293.629 115.527 M324.108 117.090 C 324.018 117.681,323.945 117.197,323.945 116.016 C 323.945 114.834,324.018 114.351,324.108 114.941 C 324.197 115.532,324.197 116.499,324.108 117.090 M151.064 118.841 C 150.977 119.543,150.904 119.063,150.902 117.773 C 150.900 116.484,150.971 115.910,151.060 116.497 C 151.149 117.084,151.151 118.139,151.064 118.841 M241.285 118.652 C 241.187 119.028,241.106 118.721,241.106 117.969 C 241.106 117.217,241.187 116.909,241.285 117.285 C 241.383 117.661,241.383 118.276,241.285 118.652 M267.073 119.234 C 266.980 119.720,266.900 119.414,266.895 118.555 C 266.891 117.695,266.967 117.298,267.065 117.671 C 267.163 118.045,267.167 118.748,267.073 119.234 M173.323 120.801 C 173.229 121.284,173.153 120.889,173.153 119.922 C 173.153 118.955,173.229 118.560,173.323 119.043 C 173.416 119.526,173.416 120.317,173.323 120.801 M324.501 123.145 C 324.415 123.843,324.344 123.271,324.344 121.875 C 324.344 120.479,324.415 119.907,324.501 120.605 C 324.588 121.304,324.588 122.446,324.501 123.145 M267.457 123.730 C 267.359 124.106,267.278 123.799,267.278 123.047 C 267.278 122.295,267.359 121.987,267.457 122.363 C 267.555 122.739,267.555 123.354,267.457 123.730 M124.890 124.897 C 124.800 125.491,124.724 125.098,124.721 124.023 C 124.718 122.949,124.792 122.463,124.884 122.944 C 124.977 123.424,124.979 124.303,124.890 124.897 M242.066 126.074 C 241.968 126.450,241.888 126.143,241.888 125.391 C 241.888 124.639,241.968 124.331,242.066 124.707 C 242.164 125.083,242.164 125.698,242.066 126.074 M150.667 127.046 C 150.573 127.532,150.493 127.227,150.489 126.367 C 150.485 125.508,150.561 125.110,150.659 125.484 C 150.757 125.857,150.760 126.560,150.667 127.046 M124.501 131.348 C 124.415 132.046,124.344 131.475,124.344 130.078 C 124.344 128.682,124.415 128.110,124.501 128.809 C 124.588 129.507,124.588 130.649,124.501 131.348 M324.890 130.366 C 324.800 130.959,324.724 130.566,324.721 129.492 C 324.718 128.418,324.792 127.932,324.884 128.413 C 324.977 128.893,324.979 129.772,324.890 130.366 M94.822 137.970 C 94.750 139.752,94.690 138.398,94.689 134.961 C 94.689 131.523,94.748 130.065,94.821 131.720 C 94.894 133.375,94.895 136.187,94.822 137.970 M268.245 132.515 C 268.152 133.001,268.072 132.695,268.067 131.836 C 268.063 130.977,268.139 130.579,268.237 130.952 C 268.335 131.326,268.338 132.029,268.245 132.515 M150.276 133.691 C 150.183 134.175,150.106 133.779,150.106 132.813 C 150.106 131.846,150.183 131.450,150.276 131.934 C 150.369 132.417,150.369 133.208,150.276 133.691 M172.151 133.296 C 172.058 133.782,171.978 133.477,171.974 132.617 C 171.969 131.758,172.046 131.360,172.143 131.734 C 172.241 132.107,172.245 132.810,172.151 133.296 M242.847 133.105 C 242.749 133.481,242.669 133.174,242.669 132.422 C 242.669 131.670,242.749 131.362,242.847 131.738 C 242.946 132.114,242.946 132.729,242.847 133.105 M295.198 133.691 C 295.104 134.175,295.028 133.779,295.028 132.813 C 295.028 131.846,295.104 131.450,295.198 131.934 C 295.291 132.417,295.291 133.208,295.198 133.691 M243.238 136.230 C 243.140 136.606,243.059 136.299,243.059 135.547 C 243.059 134.795,243.140 134.487,243.238 134.863 C 243.336 135.239,243.336 135.854,243.238 136.230 M268.639 137.793 C 268.550 138.384,268.476 137.900,268.476 136.719 C 268.476 135.537,268.550 135.054,268.639 135.645 C 268.729 136.235,268.729 137.202,268.639 137.793 M124.111 138.372 C 124.024 139.074,123.951 138.594,123.949 137.305 C 123.947 136.016,124.018 135.441,124.107 136.028 C 124.196 136.615,124.198 137.670,124.111 138.372 M171.764 138.184 C 171.675 138.774,171.601 138.291,171.601 137.109 C 171.601 135.928,171.675 135.444,171.764 136.035 C 171.854 136.626,171.854 137.593,171.764 138.184 M295.588 137.988 C 295.495 138.472,295.419 138.076,295.419 137.109 C 295.419 136.143,295.495 135.747,295.588 136.230 C 295.681 136.714,295.681 137.505,295.588 137.988 M325.285 139.347 C 325.201 140.157,325.130 139.590,325.128 138.086 C 325.126 136.582,325.196 135.919,325.282 136.612 C 325.368 137.306,325.370 138.536,325.285 139.347 M149.892 139.544 C 149.806 140.246,149.733 139.766,149.730 138.477 C 149.728 137.188,149.799 136.613,149.888 137.200 C 149.978 137.787,149.979 138.842,149.892 139.544 M243.636 139.937 C 243.542 140.423,243.462 140.117,243.458 139.258 C 243.454 138.398,243.530 138.001,243.628 138.374 C 243.726 138.748,243.729 139.451,243.636 139.937 M269.019 140.918 C 268.921 141.294,268.841 140.986,268.841 140.234 C 268.841 139.482,268.921 139.175,269.019 139.551 C 269.118 139.927,269.118 140.542,269.019 140.918 M171.369 142.285 C 171.276 142.769,171.200 142.373,171.200 141.406 C 171.200 140.439,171.276 140.044,171.369 140.527 C 171.463 141.011,171.463 141.802,171.369 142.285 M295.972 142.480 C 295.874 142.856,295.794 142.549,295.794 141.797 C 295.794 141.045,295.874 140.737,295.972 141.113 C 296.071 141.489,296.071 142.104,295.972 142.480 M244.026 143.452 C 243.933 143.938,243.853 143.633,243.849 142.773 C 243.844 141.914,243.921 141.517,244.018 141.890 C 244.116 142.263,244.120 142.967,244.026 143.452 M123.713 144.629 C 123.620 145.112,123.544 144.717,123.544 143.750 C 123.544 142.783,123.620 142.388,123.713 142.871 C 123.806 143.354,123.806 144.146,123.713 144.629 M149.499 144.819 C 149.409 145.413,149.333 145.020,149.330 143.945 C 149.328 142.871,149.401 142.385,149.494 142.866 C 149.586 143.346,149.589 144.225,149.499 144.819 M325.671 145.991 C 325.581 146.584,325.505 146.191,325.502 145.117 C 325.499 144.043,325.573 143.557,325.666 144.038 C 325.758 144.518,325.761 145.397,325.671 145.991 M170.983 146.777 C 170.893 147.368,170.820 146.885,170.820 145.703 C 170.820 144.521,170.893 144.038,170.983 144.629 C 171.072 145.220,171.072 146.187,170.983 146.777 M296.370 145.796 C 296.277 146.282,296.197 145.977,296.192 145.117 C 296.188 144.258,296.264 143.860,296.362 144.234 C 296.460 144.607,296.463 145.310,296.370 145.796 M244.410 147.168 C 244.312 147.544,244.231 147.236,244.231 146.484 C 244.231 145.732,244.312 145.425,244.410 145.801 C 244.508 146.177,244.508 146.792,244.410 147.168 M149.108 149.902 C 149.018 150.493,148.945 150.010,148.945 148.828 C 148.945 147.646,149.018 147.163,149.108 147.754 C 149.197 148.345,149.197 149.312,149.108 149.902 M95.451 150.000 C 95.628 150.962,95.588 151.193,95.318 150.781 C 95.107 150.459,94.931 149.771,94.928 149.251 C 94.920 147.998,95.142 148.315,95.451 150.000 M170.582 151.855 C 170.484 152.231,170.403 151.924,170.403 151.172 C 170.403 150.420,170.484 150.112,170.582 150.488 C 170.680 150.864,170.680 151.479,170.582 151.855 M326.066 154.590 C 325.982 155.396,325.913 154.736,325.913 153.125 C 325.913 151.514,325.982 150.854,326.066 151.660 C 326.150 152.466,326.150 153.784,326.066 154.590 M245.191 153.809 C 245.093 154.185,245.013 153.877,245.013 153.125 C 245.013 152.373,245.093 152.065,245.191 152.441 C 245.289 152.817,245.289 153.433,245.191 153.809 M148.714 154.390 C 148.620 154.876,148.540 154.570,148.536 153.711 C 148.532 152.852,148.608 152.454,148.706 152.827 C 148.804 153.201,148.807 153.904,148.714 154.390 M356.519 154.980 C 356.421 155.356,356.341 155.049,356.341 154.297 C 356.341 153.545,356.421 153.237,356.519 153.613 C 356.618 153.989,356.618 154.604,356.519 154.980 M356.129 158.105 C 356.030 158.481,355.950 158.174,355.950 157.422 C 355.950 156.670,356.030 156.362,356.129 156.738 C 356.227 157.114,356.227 157.729,356.129 158.105 M170.213 168.244 C 170.139 169.919,170.079 168.652,170.078 165.430 C 170.078 162.207,170.138 160.837,170.212 162.384 C 170.286 163.932,170.286 166.569,170.213 168.244 M326.454 164.551 C 326.368 165.249,326.297 164.678,326.297 163.281 C 326.297 161.885,326.368 161.313,326.454 162.012 C 326.541 162.710,326.541 163.853,326.454 164.551 M326.849 176.650 C 326.767 177.569,326.698 176.914,326.696 175.195 C 326.695 173.477,326.763 172.725,326.846 173.525 C 326.930 174.325,326.932 175.731,326.849 176.650 M354.176 174.902 C 354.077 175.278,353.997 174.971,353.997 174.219 C 353.997 173.467,354.077 173.159,354.176 173.535 C 354.274 173.911,354.274 174.526,354.176 174.902 M301.668 176.142 C 299.079 176.778,296.549 177.703,285.352 182.107 C 265.064 190.085,243.514 209.630,241.565 221.818 C 241.134 224.517,241.824 223.958,252.855 212.687 C 268.746 196.450,277.963 190.029,298.782 180.698 C 305.505 177.684,307.203 176.654,306.616 175.947 C 306.033 175.244,305.185 175.278,301.668 176.142 M94.922 179.682 C 94.922 180.457,98.059 182.105,104.281 184.600 C 122.966 192.091,134.069 199.744,150.200 216.248 C 158.274 224.508,159.192 224.834,156.701 218.555 C 153.245 209.845,143.269 199.962,129.733 191.838 C 118.081 184.844,94.922 176.757,94.922 179.682 M170.972 181.934 C 170.874 182.310,170.794 182.002,170.794 181.250 C 170.794 180.498,170.874 180.190,170.972 180.566 C 171.071 180.942,171.071 181.558,170.972 181.934 M353.011 185.640 C 352.917 186.126,352.837 185.820,352.833 184.961 C 352.829 184.102,352.905 183.704,353.003 184.077 C 353.101 184.451,353.104 185.154,353.011 185.640 M352.620 189.546 C 352.527 190.032,352.447 189.727,352.442 188.867 C 352.438 188.008,352.514 187.610,352.612 187.984 C 352.710 188.357,352.713 189.060,352.620 189.546 M352.229 192.671 C 352.136 193.157,352.056 192.852,352.052 191.992 C 352.047 191.133,352.124 190.735,352.222 191.109 C 352.319 191.482,352.323 192.185,352.229 192.671 M349.606 207.434 C 349.148 208.972,348.710 210.169,348.634 210.092 C 348.558 210.016,348.877 208.591,349.344 206.925 C 349.810 205.260,350.248 204.063,350.316 204.267 C 350.383 204.470,350.064 205.895,349.606 207.434 M347.055 213.965 C 346.719 214.771,346.255 215.605,346.026 215.820 C 345.751 216.077,345.758 215.918,346.046 215.358 C 346.287 214.889,346.655 214.054,346.865 213.503 C 347.075 212.951,347.341 212.500,347.457 212.500 C 347.572 212.500,347.392 213.159,347.055 213.965 M341.183 223.535 C 339.072 226.482,333.840 232.906,332.990 233.594 C 332.592 233.916,333.576 232.598,335.177 230.664 C 336.778 228.730,339.035 225.874,340.192 224.316 C 341.348 222.759,342.375 221.484,342.473 221.484 C 342.571 221.484,341.990 222.407,341.183 223.535 M177.229 226.660 C 177.136 227.144,177.060 226.748,177.060 225.781 C 177.060 224.814,177.136 224.419,177.229 224.902 C 177.322 225.386,177.322 226.177,177.229 226.660 M177.629 233.487 C 177.544 234.298,177.474 233.730,177.472 232.227 C 177.470 230.723,177.539 230.060,177.626 230.753 C 177.712 231.446,177.713 232.677,177.629 233.487 M332.422 234.497 C 332.422 234.564,331.851 235.136,331.152 235.767 L 329.883 236.914 331.030 235.645 C 332.100 234.461,332.422 234.195,332.422 234.497 M177.222 238.184 C 177.124 238.560,177.044 238.252,177.044 237.500 C 177.044 236.748,177.124 236.440,177.222 236.816 C 177.321 237.192,177.321 237.808,177.222 238.184 M328.516 238.867 C 327.567 239.834,326.703 240.625,326.595 240.625 C 326.488 240.625,327.176 239.834,328.125 238.867 C 329.074 237.900,329.938 237.109,330.045 237.109 C 330.153 237.109,329.464 237.900,328.516 238.867 M326.172 241.517 C 326.172 241.578,325.161 242.589,323.926 243.763 L 321.680 245.898 323.815 243.652 C 325.798 241.566,326.172 241.227,326.172 241.517 M175.411 247.481 C 175.222 248.114,175.052 248.340,175.034 247.981 C 174.996 247.254,175.413 245.986,175.621 246.194 C 175.695 246.268,175.601 246.847,175.411 247.481 M174.175 251.519 C 173.935 252.209,173.669 252.706,173.586 252.622 C 173.502 252.539,173.631 251.906,173.872 251.215 C 174.112 250.525,174.377 250.028,174.461 250.112 C 174.545 250.196,174.416 250.829,174.175 251.519 M317.969 250.106 C 317.969 250.164,316.343 251.790,314.355 253.719 L 310.742 257.227 314.250 253.613 C 317.507 250.257,317.969 249.822,317.969 250.106 M172.702 254.944 C 172.266 255.770,171.902 256.319,171.892 256.166 C 171.865 255.716,173.172 253.120,173.340 253.288 C 173.425 253.373,173.137 254.118,172.702 254.944 M169.256 261.903 C 168.679 263.079,168.142 263.975,168.062 263.895 C 167.886 263.720,169.857 259.766,170.120 259.766 C 170.221 259.766,169.832 260.728,169.256 261.903 M308.874 272.168 C 308.784 272.759,308.711 272.275,308.711 271.094 C 308.711 269.912,308.784 269.429,308.874 270.020 C 308.963 270.610,308.963 271.577,308.874 272.168 M165.113 277.246 C 165.015 277.622,164.934 277.314,164.934 276.563 C 164.934 275.811,165.015 275.503,165.113 275.879 C 165.211 276.255,165.211 276.870,165.113 277.246 M309.644 279.590 C 309.546 279.966,309.466 279.658,309.466 278.906 C 309.466 278.154,309.546 277.847,309.644 278.223 C 309.743 278.599,309.743 279.214,309.644 279.590 M164.339 284.859 C 164.245 285.345,164.165 285.039,164.161 284.180 C 164.157 283.320,164.233 282.923,164.331 283.296 C 164.429 283.670,164.432 284.373,164.339 284.859 M163.551 294.824 C 163.452 295.200,163.372 294.893,163.372 294.141 C 163.372 293.389,163.452 293.081,163.551 293.457 C 163.649 293.833,163.649 294.448,163.551 294.824 M163.170 300.293 C 163.081 300.884,163.008 300.400,163.008 299.219 C 163.008 298.037,163.081 297.554,163.170 298.145 C 163.260 298.735,163.260 299.702,163.170 300.293 M162.776 305.566 C 162.683 306.050,162.606 305.654,162.606 304.688 C 162.606 303.721,162.683 303.325,162.776 303.809 C 162.869 304.292,162.869 305.083,162.776 305.566 M162.389 310.840 C 162.300 311.431,162.226 310.947,162.226 309.766 C 162.226 308.584,162.300 308.101,162.389 308.691 C 162.479 309.282,162.479 310.249,162.389 310.840 M161.994 314.941 C 161.901 315.425,161.825 315.029,161.825 314.063 C 161.825 313.096,161.901 312.700,161.994 313.184 C 162.088 313.667,162.088 314.458,161.994 314.941 M315.504 315.918 C 315.405 316.294,315.325 315.986,315.325 315.234 C 315.325 314.482,315.405 314.175,315.504 314.551 C 315.602 314.927,315.602 315.542,315.504 315.918 M161.604 319.624 C 161.511 320.110,161.431 319.805,161.427 318.945 C 161.422 318.086,161.499 317.688,161.597 318.062 C 161.694 318.435,161.698 319.138,161.604 319.624 M161.207 323.730 C 161.109 324.106,161.028 323.799,161.028 323.047 C 161.028 322.295,161.109 321.987,161.207 322.363 C 161.305 322.739,161.305 323.354,161.207 323.730 M160.426 333.105 C 160.327 333.481,160.247 333.174,160.247 332.422 C 160.247 331.670,160.327 331.362,160.426 331.738 C 160.524 332.114,160.524 332.729,160.426 333.105 M160.035 337.012 C 159.937 337.388,159.856 337.080,159.856 336.328 C 159.856 335.576,159.937 335.269,160.035 335.645 C 160.133 336.021,160.133 336.636,160.035 337.012 M159.766 343.359 C 159.766 343.617,151.202 343.718,134.668 343.657 L 109.570 343.563 134.570 343.359 C 148.320 343.247,159.614 343.113,159.668 343.062 C 159.722 343.011,159.766 343.145,159.766 343.359 " stroke="none" fill="#fab279" fill-rule="evenodd"></path><path id="path1" d="M277.633 55.230 C 277.758 55.432,277.485 55.495,277.014 55.371 C 276.468 55.229,276.263 55.299,276.431 55.572 C 276.595 55.837,276.453 55.901,276.045 55.745 C 275.647 55.592,275.436 55.679,275.493 55.971 C 275.544 56.232,275.302 56.448,274.955 56.451 C 274.264 56.458,272.921 57.426,273.206 57.712 C 273.304 57.810,273.002 58.620,272.535 59.511 C 271.290 61.884,271.272 65.094,272.417 80.469 C 274.035 102.191,274.389 108.209,275.589 134.375 C 276.443 153.006,276.442 151.789,275.607 152.711 C 274.806 153.596,273.074 153.767,271.802 153.086 C 271.274 152.803,271.086 152.796,271.252 153.066 C 271.408 153.318,271.182 153.413,270.665 153.313 C 267.030 152.613,265.671 147.453,263.878 127.539 C 262.843 116.043,262.414 107.727,261.884 88.867 C 261.745 83.926,261.511 78.603,261.363 77.039 C 261.128 74.564,261.172 74.225,261.698 74.427 C 262.844 74.867,260.043 72.301,258.636 71.621 C 257.223 70.939,251.436 70.573,251.817 71.190 C 251.917 71.352,251.819 71.484,251.599 71.484 C 251.379 71.484,250.603 72.008,249.874 72.647 C 249.146 73.287,248.409 73.683,248.236 73.526 C 248.063 73.370,248.037 73.444,248.177 73.690 C 248.458 74.180,247.516 76.292,247.171 75.947 C 246.839 75.615,247.160 84.840,247.826 94.727 C 248.886 110.473,249.195 115.558,249.813 127.344 C 250.146 133.682,250.684 142.527,251.010 147.000 C 251.579 154.800,251.573 155.183,250.880 156.375 C 249.583 158.605,247.023 158.246,245.817 155.664 C 245.414 154.802,245.319 154.731,245.456 155.393 C 245.811 157.117,244.666 155.559,244.000 153.413 C 242.658 149.094,239.888 128.819,238.302 111.719 C 237.854 106.885,237.381 102.055,237.250 100.986 C 237.023 99.131,237.045 99.068,237.744 99.604 C 238.147 99.913,237.991 99.633,237.397 98.981 C 236.803 98.330,236.446 97.668,236.604 97.511 C 236.761 97.353,236.559 97.351,236.154 97.507 C 235.735 97.668,235.514 97.635,235.640 97.430 C 235.763 97.230,234.745 97.015,233.343 96.946 C 230.558 96.809,227.687 97.848,226.927 99.268 C 226.705 99.683,226.329 99.902,226.092 99.755 C 225.845 99.602,225.770 99.666,225.917 99.904 C 226.215 100.385,225.823 101.634,225.447 101.402 C 225.309 101.316,225.242 102.592,225.299 104.236 C 225.356 105.881,225.444 109.008,225.494 111.185 C 225.545 113.363,225.684 114.989,225.803 114.800 C 226.012 114.470,228.134 137.052,228.927 148.047 C 229.433 155.056,229.422 173.968,228.909 180.078 C 228.253 187.870,227.575 192.902,224.917 209.674 C 224.666 211.259,224.338 212.303,224.175 212.038 C 224.014 211.777,223.984 212.329,224.110 213.264 C 224.289 214.603,224.229 214.896,223.827 214.648 C 223.482 214.434,223.411 214.485,223.608 214.804 C 223.951 215.358,223.481 219.995,223.106 219.763 C 222.966 219.677,222.905 220.424,222.970 221.424 C 223.043 222.537,222.958 223.051,222.750 222.750 C 222.547 222.456,222.460 223.240,222.534 224.704 C 222.607 226.132,222.530 226.853,222.349 226.437 C 221.931 225.474,222.172 232.779,222.733 238.086 C 222.983 240.449,223.200 242.939,223.215 243.620 C 223.230 244.300,223.315 244.784,223.403 244.696 C 223.680 244.419,225.786 251.340,225.587 251.876 C 225.473 252.186,225.576 252.275,225.852 252.105 C 226.157 251.916,226.221 252.044,226.047 252.495 C 225.906 252.864,225.931 253.079,226.102 252.973 C 226.542 252.701,229.371 258.549,229.050 259.068 C 228.901 259.309,228.964 259.385,229.195 259.243 C 229.703 258.929,231.375 262.372,231.005 262.970 C 230.854 263.215,230.916 263.292,231.148 263.149 C 232.821 262.115,234.582 272.506,235.937 291.406 C 236.377 297.529,237.274 309.482,237.931 317.969 C 238.589 326.455,239.038 334.365,238.931 335.547 C 238.822 336.747,238.862 337.264,239.022 336.719 C 239.219 336.045,239.391 336.873,239.574 339.390 C 239.720 341.396,239.939 343.198,240.060 343.394 C 240.191 343.606,256.620 343.713,280.589 343.658 C 302.759 343.607,314.722 343.517,307.172 343.457 L 293.446 343.349 293.238 322.358 C 293.123 310.813,292.848 299.258,292.625 296.680 C 291.891 288.168,291.771 286.942,291.362 283.789 C 290.169 274.597,288.164 271.501,280.725 267.360 C 275.562 264.486,275.422 263.752,279.801 262.499 C 289.869 259.619,295.751 256.868,301.172 252.504 C 303.213 250.861,306.369 248.351,308.185 246.926 C 319.408 238.122,327.015 230.079,334.478 219.128 C 342.871 206.812,345.785 197.798,348.238 176.563 C 349.818 162.884,354.779 141.069,357.201 137.151 C 357.291 137.005,356.982 136.839,356.514 136.782 C 354.876 136.582,349.652 136.501,349.830 136.679 C 350.046 136.895,346.485 138.771,345.822 138.789 C 345.566 138.796,345.390 138.911,345.432 139.044 C 345.555 139.436,342.519 142.393,342.112 142.275 C 341.907 142.216,341.830 142.315,341.941 142.495 C 342.221 142.949,340.828 144.995,340.477 144.644 C 340.321 144.488,340.320 144.691,340.475 145.096 C 340.671 145.604,340.618 145.745,340.305 145.552 C 340.000 145.363,339.937 145.491,340.110 145.942 C 340.298 146.433,340.229 146.527,339.850 146.293 C 339.521 146.090,339.426 146.125,339.589 146.389 C 339.910 146.908,339.480 148.110,339.066 147.854 C 338.898 147.750,338.768 147.882,338.778 148.149 C 338.826 149.485,338.640 150.026,338.221 149.767 C 337.944 149.597,337.876 149.660,338.044 149.932 C 338.425 150.549,337.474 153.545,336.991 153.247 C 336.765 153.108,336.719 153.200,336.883 153.465 C 337.235 154.035,336.769 156.327,336.353 156.070 C 336.186 155.967,336.138 156.343,336.246 156.906 C 336.393 157.675,336.316 157.851,335.934 157.615 C 335.602 157.410,335.521 157.455,335.701 157.746 C 336.044 158.300,335.567 160.996,335.170 160.751 C 335.010 160.652,334.966 161.031,335.074 161.593 C 335.194 162.219,335.118 162.522,334.879 162.375 C 334.640 162.227,334.564 162.530,334.683 163.156 C 334.803 163.782,334.727 164.085,334.488 163.937 C 334.249 163.789,334.173 164.092,334.293 164.718 C 334.412 165.344,334.337 165.647,334.097 165.500 C 333.858 165.352,333.782 165.655,333.902 166.281 C 334.022 166.907,333.946 167.210,333.707 167.062 C 333.468 166.914,333.392 167.217,333.512 167.843 C 333.659 168.613,333.581 168.788,333.199 168.552 C 332.858 168.341,332.787 168.392,332.982 168.708 C 333.332 169.275,332.468 173.122,332.049 172.862 C 331.886 172.762,331.841 173.140,331.949 173.703 C 332.074 174.359,331.997 174.635,331.734 174.472 C 331.473 174.311,331.403 174.526,331.543 175.061 C 331.678 175.577,331.611 175.809,331.368 175.659 C 331.123 175.507,331.047 175.803,331.168 176.437 C 331.293 177.093,331.216 177.369,330.952 177.206 C 330.692 177.045,330.622 177.260,330.762 177.795 C 330.903 178.335,330.833 178.545,330.567 178.381 C 330.300 178.216,330.230 178.427,330.371 178.967 C 330.536 179.595,330.461 179.729,330.079 179.493 C 329.738 179.282,329.661 179.328,329.848 179.631 C 330.214 180.224,329.738 181.718,329.273 181.431 C 329.076 181.309,329.031 181.510,329.172 181.880 C 329.346 182.331,329.282 182.459,328.977 182.270 C 328.678 182.085,328.606 182.204,328.766 182.620 C 328.930 183.046,328.749 183.317,328.208 183.459 C 327.768 183.574,327.200 184.169,326.947 184.781 C 326.570 185.691,325.406 186.423,320.567 188.796 C 309.424 194.260,300.164 202.861,291.128 216.139 C 289.932 217.897,288.041 220.654,286.927 222.266 C 285.813 223.877,284.763 225.547,284.593 225.977 C 283.743 228.126,284.077 225.446,284.991 222.786 C 288.418 212.808,295.765 202.443,307.471 191.071 C 316.570 182.232,318.430 178.913,320.290 168.199 C 322.275 156.769,322.235 146.494,320.099 119.141 C 319.571 112.373,318.790 99.805,318.364 91.211 C 317.939 82.617,317.481 74.355,317.347 72.852 L 317.104 70.117 318.239 71.094 C 318.863 71.631,318.663 71.367,317.795 70.508 C 316.927 69.648,316.250 68.842,316.291 68.715 C 316.331 68.588,314.623 68.484,312.495 68.484 C 309.989 68.484,308.711 68.623,308.869 68.879 C 309.016 69.118,308.848 69.172,308.442 69.016 C 308.071 68.874,307.871 68.919,307.994 69.118 C 308.116 69.316,307.886 69.710,307.482 69.993 C 307.079 70.276,306.306 71.159,305.766 71.956 C 305.226 72.752,304.719 73.340,304.638 73.262 C 304.008 72.647,304.010 78.540,304.650 98.953 C 305.452 124.526,305.012 151.269,303.801 150.521 C 303.560 150.372,303.512 150.460,303.684 150.738 C 304.510 152.074,301.069 153.419,299.018 152.562 C 297.510 151.932,297.335 151.685,296.866 149.518 L 296.506 147.852 296.649 149.480 C 296.777 150.941,296.693 151.133,295.824 151.351 C 293.465 151.943,292.315 150.467,291.802 146.188 C 291.462 143.350,291.253 139.891,290.218 119.922 C 289.989 115.518,289.208 105.322,288.482 97.266 C 287.313 84.305,286.914 78.501,286.129 63.033 C 285.879 58.124,286.113 57.254,287.287 58.726 C 288.004 59.626,288.114 59.664,288.114 59.012 C 288.114 58.599,288.001 58.330,287.864 58.415 C 287.455 58.668,285.904 56.807,286.227 56.451 C 286.390 56.272,286.309 56.248,286.047 56.399 C 285.784 56.549,284.993 56.372,284.289 56.004 C 282.899 55.278,277.257 54.622,277.633 55.230 M115.895 55.590 C 116.048 55.838,115.886 55.893,115.473 55.735 C 115.075 55.582,114.900 55.634,115.042 55.864 C 115.270 56.234,114.693 56.430,113.867 56.264 C 113.652 56.220,113.610 56.318,113.773 56.481 C 114.176 56.884,112.488 58.632,111.992 58.326 C 111.775 58.192,111.707 58.259,111.841 58.476 C 112.160 58.992,110.738 61.771,110.339 61.411 C 110.170 61.258,110.141 61.326,110.276 61.562 C 110.410 61.799,110.363 63.557,110.171 65.469 C 109.979 67.381,109.513 72.770,109.135 77.445 C 108.758 82.119,108.341 85.770,108.210 85.558 C 108.079 85.346,108.024 86.355,108.087 87.801 C 108.173 89.750,108.102 90.228,107.813 89.648 C 107.503 89.025,107.470 89.126,107.651 90.145 C 107.948 91.817,106.574 110.093,106.223 109.134 C 106.075 108.729,106.047 109.612,106.160 111.094 C 106.310 113.053,106.245 113.715,105.922 113.515 C 105.634 113.337,105.561 113.458,105.715 113.858 C 105.845 114.198,105.820 116.536,105.659 119.054 C 105.482 121.825,105.251 123.324,105.074 122.852 C 104.913 122.422,104.862 123.301,104.959 124.805 C 105.096 126.907,105.034 127.404,104.691 126.953 C 104.331 126.480,104.296 126.543,104.505 127.286 C 104.812 128.369,103.880 140.434,103.534 139.873 C 103.403 139.662,103.340 140.756,103.393 142.303 C 103.459 144.240,103.385 144.813,103.158 144.141 C 102.944 143.508,102.892 144.126,103.012 145.898 C 103.209 148.814,102.488 151.838,101.639 151.660 C 101.382 151.606,101.216 151.782,101.270 152.051 C 101.414 152.774,98.179 152.911,97.134 152.226 C 96.638 151.901,95.756 151.747,95.015 151.856 C 89.018 152.736,88.317 145.060,90.638 103.906 C 90.849 100.146,91.137 90.969,91.277 83.511 C 91.457 73.880,91.654 70.026,91.956 70.207 C 92.191 70.348,92.165 70.193,91.898 69.863 C 91.631 69.534,91.491 69.186,91.586 69.091 C 91.831 68.846,90.550 68.717,86.642 68.592 C 84.350 68.519,83.270 68.623,83.322 68.910 C 83.364 69.144,83.093 69.312,82.719 69.282 C 82.345 69.253,82.120 69.359,82.219 69.519 C 82.488 69.954,80.657 71.537,80.279 71.195 C 80.100 71.032,80.065 71.095,80.202 71.335 C 80.457 71.783,79.200 74.769,78.885 74.462 C 78.789 74.369,78.683 74.935,78.649 75.720 C 78.614 76.506,78.217 81.816,77.765 87.522 C 76.771 100.073,75.614 117.600,74.946 130.216 C 74.675 135.341,74.356 139.258,74.238 138.919 C 74.120 138.581,74.023 140.453,74.023 143.078 C 74.023 145.703,73.891 150.576,73.729 153.906 C 73.567 157.236,73.262 164.092,73.051 169.141 C 72.711 177.291,72.440 181.105,72.046 183.287 C 71.870 184.263,73.896 185.788,76.294 186.485 C 91.410 190.880,112.320 211.320,115.393 224.707 C 116.024 227.455,112.372 223.996,106.893 216.658 C 96.512 202.752,87.648 195.083,74.332 188.489 C 66.333 184.528,65.694 183.505,62.724 169.910 C 61.951 166.372,60.777 161.016,60.115 158.008 C 58.618 151.205,56.533 144.584,55.042 141.900 C 53.676 139.441,53.628 139.097,54.785 140.073 L 55.664 140.815 54.782 139.812 C 54.296 139.260,54.000 138.708,54.124 138.584 C 54.248 138.461,54.030 138.386,53.639 138.418 C 53.249 138.450,52.972 138.263,53.023 138.002 C 53.080 137.710,52.868 137.623,52.470 137.776 C 52.040 137.941,51.918 137.872,52.105 137.571 C 52.293 137.266,52.166 137.202,51.714 137.376 C 51.343 137.518,51.143 137.472,51.266 137.273 C 51.527 136.852,50.897 136.761,46.607 136.602 C 44.848 136.537,43.497 136.625,43.603 136.797 C 43.780 137.083,43.198 137.269,42.480 137.156 C 42.319 137.130,42.231 137.329,42.285 137.598 C 42.339 137.866,42.150 138.038,41.865 137.979 C 41.581 137.920,41.450 138.036,41.574 138.236 C 41.848 138.680,41.425 139.901,41.072 139.685 C 40.934 139.600,40.820 140.551,40.820 141.799 C 40.820 143.047,40.921 143.904,41.044 143.704 C 41.399 143.130,43.063 152.983,42.781 153.984 C 42.609 154.593,42.644 154.715,42.889 154.362 C 43.318 153.743,44.374 160.937,43.998 161.918 C 43.866 162.260,43.919 162.442,44.114 162.321 C 44.566 162.042,45.089 166.793,44.742 168.021 C 44.540 168.735,44.574 168.812,44.890 168.359 C 45.224 167.883,45.302 167.956,45.307 168.750 C 45.310 169.287,45.669 173.066,46.103 177.148 C 46.538 181.230,47.249 187.998,47.684 192.188 C 48.119 196.377,48.763 201.123,49.115 202.734 C 49.467 204.346,49.766 206.131,49.780 206.701 C 49.794 207.271,49.964 207.639,50.159 207.519 C 50.354 207.398,50.415 207.679,50.293 208.143 C 50.152 208.683,50.222 208.893,50.489 208.729 C 50.755 208.564,50.825 208.774,50.684 209.314 C 50.563 209.778,50.606 210.069,50.780 209.962 C 51.196 209.705,52.017 212.081,51.693 212.605 C 51.555 212.829,51.613 212.906,51.822 212.777 C 52.307 212.477,54.401 216.703,54.049 217.272 C 53.895 217.521,53.966 217.588,54.217 217.432 C 54.725 217.118,55.615 218.587,55.262 219.158 C 55.129 219.374,55.253 219.502,55.537 219.443 C 55.822 219.384,56.033 219.630,56.006 219.989 C 55.979 220.348,56.154 220.567,56.396 220.477 C 56.925 220.279,57.893 222.210,57.546 222.771 C 57.411 222.989,57.484 223.054,57.708 222.916 C 58.233 222.592,59.132 223.664,58.794 224.211 C 58.652 224.441,58.712 224.580,58.928 224.521 C 59.471 224.373,61.359 226.978,61.059 227.462 C 60.926 227.678,60.996 227.744,61.216 227.609 C 61.775 227.263,63.033 228.751,62.673 229.333 C 62.499 229.614,62.542 229.707,62.778 229.562 C 63.337 229.216,64.595 230.704,64.236 231.286 C 64.063 231.565,64.105 231.661,64.336 231.518 C 64.903 231.167,66.553 233.041,66.192 233.625 C 66.017 233.908,66.057 234.005,66.289 233.861 C 66.780 233.558,68.374 235.208,68.537 236.188 C 68.604 236.587,68.841 236.875,69.064 236.827 C 69.633 236.704,71.943 239.418,71.659 239.877 C 71.531 240.084,71.571 240.207,71.748 240.149 C 71.925 240.092,72.430 240.307,72.869 240.628 C 73.846 241.341,75.994 244.141,75.564 244.141 C 75.394 244.141,75.662 244.575,76.161 245.105 C 76.659 245.636,77.186 245.996,77.332 245.906 C 77.659 245.704,83.573 251.608,83.585 252.148 C 83.590 252.363,83.726 252.552,83.887 252.567 C 85.256 252.697,88.230 255.531,88.465 256.928 C 88.528 257.307,88.737 257.586,88.928 257.549 C 89.120 257.511,89.712 257.834,90.244 258.266 C 90.776 258.699,91.035 258.966,90.820 258.860 C 90.605 258.755,90.430 259.162,90.430 259.766 C 90.430 260.369,90.550 260.788,90.698 260.697 C 90.845 260.606,91.089 261.357,91.240 262.365 C 91.745 265.730,90.459 281.404,89.761 280.400 C 89.518 280.050,89.482 280.169,89.650 280.766 C 89.941 281.796,89.485 286.003,89.109 285.771 C 88.968 285.684,88.921 286.324,89.004 287.194 C 89.119 288.400,89.036 288.702,88.657 288.468 C 88.319 288.258,88.257 288.317,88.464 288.652 C 88.895 289.350,87.066 300.936,86.625 300.303 C 86.400 299.981,86.365 300.118,86.526 300.688 C 86.808 301.692,85.969 307.488,85.576 307.245 C 85.435 307.157,85.382 307.733,85.458 308.523 C 85.568 309.659,85.505 309.838,85.156 309.375 C 84.798 308.900,84.762 308.957,84.964 309.675 C 85.311 310.908,83.981 318.794,83.478 318.483 C 83.243 318.338,83.204 318.435,83.381 318.722 C 83.814 319.423,82.813 325.437,82.315 325.129 C 82.071 324.979,82.029 325.072,82.209 325.362 C 82.598 325.991,81.652 332.084,81.208 331.810 C 81.021 331.694,80.971 331.868,81.096 332.195 C 81.383 332.941,80.496 338.344,80.124 338.114 C 79.974 338.021,79.924 338.572,80.013 339.339 C 80.108 340.153,80.023 340.637,79.807 340.504 C 79.593 340.371,79.513 340.782,79.615 341.482 C 79.729 342.257,79.647 342.599,79.386 342.438 C 79.135 342.283,79.057 342.485,79.184 342.968 C 79.383 343.733,79.713 343.750,94.175 343.750 L 108.961 343.750 113.367 340.979 C 120.236 336.661,122.622 334.867,125.803 331.634 C 138.668 318.559,147.303 298.679,149.216 277.734 C 150.309 265.763,151.315 262.967,157.229 255.469 C 165.699 244.730,168.046 237.264,168.097 220.898 C 168.122 212.803,167.871 209.123,166.379 195.703 C 164.269 176.728,164.332 163.494,166.624 144.141 C 167.374 137.808,169.230 123.161,170.508 113.477 C 171.019 109.609,171.543 105.127,171.674 103.516 C 172.116 98.055,172.177 97.856,173.169 98.679 C 174.010 99.377,174.012 99.376,173.330 98.624 C 172.949 98.204,172.334 97.858,171.963 97.856 C 171.592 97.854,171.337 97.619,171.396 97.334 C 171.455 97.050,171.368 96.896,171.201 96.993 C 171.035 97.090,169.551 97.056,167.904 96.917 C 166.256 96.778,164.981 96.781,165.069 96.924 C 165.305 97.305,164.063 97.703,163.576 97.402 C 163.348 97.261,163.271 97.324,163.407 97.544 C 163.543 97.763,163.281 98.274,162.825 98.678 C 161.598 99.767,160.575 102.346,160.291 105.068 C 160.153 106.391,159.919 107.279,159.771 107.041 C 159.624 106.802,159.574 107.625,159.661 108.870 C 159.783 110.616,159.718 110.999,159.376 110.547 C 159.016 110.071,158.980 110.127,159.182 110.844 C 159.491 111.942,158.566 120.899,158.204 120.314 C 158.059 120.080,158.012 120.906,158.099 122.151 C 158.220 123.897,158.155 124.280,157.814 123.828 C 157.455 123.354,157.419 123.414,157.625 124.143 C 158.007 125.497,157.393 132.032,156.976 131.055 C 156.746 130.515,156.715 130.676,156.876 131.578 C 157.191 133.344,155.428 148.203,154.980 147.561 C 154.766 147.255,154.735 147.418,154.898 147.994 C 155.223 149.142,154.736 153.982,154.322 153.726 C 154.155 153.623,154.107 154.000,154.215 154.562 C 154.348 155.261,154.270 155.498,153.967 155.311 C 153.673 155.130,153.611 155.263,153.782 155.708 C 153.955 156.160,153.891 156.287,153.586 156.098 C 153.296 155.919,153.213 156.025,153.355 156.395 C 153.487 156.739,153.242 157.150,152.745 157.416 C 151.667 157.993,149.771 157.781,149.912 157.100 C 149.971 156.815,149.838 156.695,149.616 156.832 C 149.394 156.969,149.082 156.763,148.922 156.373 C 148.719 155.875,148.185 155.650,147.131 155.616 C 143.745 155.508,143.223 153.082,144.300 142.466 C 144.653 138.983,145.284 131.475,145.701 125.781 C 146.830 110.361,147.546 101.680,148.950 86.402 C 149.968 75.328,150.120 72.527,149.723 72.197 C 149.450 71.971,149.322 71.633,149.439 71.445 C 149.555 71.257,149.348 71.218,148.980 71.360 C 148.575 71.515,148.406 71.461,148.552 71.224 C 148.993 70.511,142.547 70.814,141.066 71.576 C 140.341 71.948,139.590 72.155,139.396 72.035 C 139.202 71.915,139.091 72.050,139.150 72.334 C 139.210 72.619,139.038 72.808,138.770 72.754 C 138.501 72.700,138.313 72.788,138.352 72.949 C 138.460 73.399,137.012 76.158,136.752 75.997 C 136.626 75.919,136.492 76.235,136.453 76.697 C 135.897 83.337,135.369 87.844,135.182 87.541 C 135.053 87.334,135.005 88.514,135.074 90.164 C 135.165 92.348,135.087 93.005,134.788 92.578 C 134.479 92.139,134.438 92.312,134.621 93.268 C 134.939 94.925,133.142 115.370,132.734 114.739 C 132.563 114.474,132.531 114.823,132.664 115.515 C 132.944 116.975,130.823 143.932,130.472 143.365 C 130.343 143.156,130.300 144.168,130.377 145.614 C 130.470 147.361,130.392 148.061,130.144 147.701 C 129.893 147.337,129.835 147.726,129.967 148.891 C 130.230 151.224,128.763 153.125,126.700 153.125 C 125.775 153.125,125.433 152.982,125.623 152.674 C 125.787 152.408,125.731 152.329,125.486 152.480 C 124.853 152.871,123.829 152.341,123.822 151.618 C 123.819 151.229,123.703 151.139,123.529 151.391 C 122.859 152.358,119.626 152.071,118.912 150.981 C 117.850 149.360,118.625 135.221,121.299 107.422 C 122.988 89.871,123.950 77.953,124.611 66.406 C 125.169 56.642,125.611 55.582,127.361 59.806 C 127.624 60.442,127.917 60.885,128.011 60.791 C 128.369 60.433,126.942 58.284,125.450 56.936 C 124.595 56.163,123.963 55.464,124.047 55.381 C 124.130 55.297,122.274 55.220,119.922 55.208 C 117.083 55.194,115.730 55.323,115.895 55.590 M270.815 65.039 C 270.818 66.113,270.894 66.506,270.983 65.913 C 271.073 65.319,271.071 64.440,270.978 63.959 C 270.885 63.479,270.812 63.965,270.815 65.039 M128.231 67.188 C 128.231 68.154,128.308 68.550,128.401 68.066 C 128.494 67.583,128.494 66.792,128.401 66.309 C 128.308 65.825,128.231 66.221,128.231 67.188 M289.965 68.555 C 289.967 69.844,290.040 70.324,290.127 69.622 C 290.214 68.920,290.212 67.865,290.123 67.278 C 290.034 66.691,289.963 67.266,289.965 68.555 M127.851 72.656 C 127.851 73.838,127.925 74.321,128.014 73.730 C 128.104 73.140,128.104 72.173,128.014 71.582 C 127.925 70.991,127.851 71.475,127.851 72.656 M290.351 75.000 C 290.351 76.182,290.425 76.665,290.514 76.074 C 290.604 75.483,290.604 74.517,290.514 73.926 C 290.425 73.335,290.351 73.818,290.351 75.000 M262.122 75.053 C 262.115 75.190,262.372 75.805,262.693 76.420 C 263.014 77.036,263.278 77.265,263.279 76.930 C 263.281 76.357,262.148 74.520,262.122 75.053 M127.434 79.297 C 127.434 80.049,127.515 80.356,127.613 79.980 C 127.711 79.604,127.711 78.989,127.613 78.613 C 127.515 78.237,127.434 78.545,127.434 79.297 M290.716 79.688 C 290.716 80.439,290.796 80.747,290.894 80.371 C 290.993 79.995,290.993 79.380,290.894 79.004 C 290.796 78.628,290.716 78.936,290.716 79.688 M263.778 80.859 C 263.778 81.826,263.854 82.222,263.948 81.738 C 264.041 81.255,264.041 80.464,263.948 79.980 C 263.854 79.497,263.778 79.893,263.778 80.859 M321.596 82.227 C 321.599 83.301,321.675 83.694,321.765 83.100 C 321.854 82.506,321.852 81.627,321.759 81.147 C 321.667 80.667,321.593 81.152,321.596 82.227 M95.434 83.398 C 95.436 84.688,95.509 85.168,95.596 84.466 C 95.683 83.764,95.681 82.709,95.592 82.122 C 95.502 81.535,95.431 82.109,95.434 83.398 M127.070 84.766 C 127.070 85.947,127.143 86.431,127.233 85.840 C 127.322 85.249,127.322 84.282,127.233 83.691 C 127.143 83.101,127.070 83.584,127.070 84.766 M152.851 85.156 C 152.851 86.338,152.925 86.821,153.014 86.230 C 153.104 85.640,153.104 84.673,153.014 84.082 C 152.925 83.491,152.851 83.975,152.851 85.156 M264.153 85.156 C 264.153 85.908,264.234 86.216,264.332 85.840 C 264.430 85.464,264.430 84.849,264.332 84.473 C 264.234 84.097,264.153 84.404,264.153 85.156 M321.974 87.695 C 321.978 88.555,322.058 88.860,322.151 88.374 C 322.245 87.888,322.241 87.185,322.143 86.812 C 322.046 86.438,321.969 86.836,321.974 87.695 M264.552 88.867 C 264.556 89.727,264.636 90.032,264.729 89.546 C 264.823 89.060,264.819 88.357,264.722 87.984 C 264.624 87.610,264.547 88.008,264.552 88.867 M152.434 91.797 C 152.434 92.549,152.515 92.856,152.613 92.480 C 152.711 92.104,152.711 91.489,152.613 91.113 C 152.515 90.737,152.434 91.045,152.434 91.797 M322.356 93.359 C 322.356 94.111,322.437 94.419,322.535 94.043 C 322.633 93.667,322.633 93.052,322.535 92.676 C 322.437 92.300,322.356 92.607,322.356 93.359 M264.955 94.336 C 264.958 95.410,265.034 95.803,265.124 95.209 C 265.214 94.616,265.211 93.737,265.119 93.256 C 265.026 92.776,264.953 93.262,264.955 94.336 M95.071 98.242 C 95.072 100.820,95.135 101.824,95.211 100.473 C 95.288 99.122,95.287 97.012,95.210 95.785 C 95.133 94.559,95.070 95.664,95.071 98.242 M291.903 95.313 C 291.903 96.279,291.979 96.675,292.073 96.191 C 292.166 95.708,292.166 94.917,292.073 94.434 C 291.979 93.950,291.903 94.346,291.903 95.313 M304.005 95.508 C 304.009 96.367,304.089 96.673,304.183 96.187 C 304.276 95.701,304.272 94.998,304.175 94.624 C 304.077 94.251,304.000 94.648,304.005 95.508 M126.270 96.680 C 126.275 97.539,126.355 97.845,126.448 97.359 C 126.542 96.873,126.538 96.170,126.440 95.796 C 126.342 95.423,126.266 95.820,126.270 96.680 M152.070 97.266 C 152.070 98.447,152.143 98.931,152.233 98.340 C 152.322 97.749,152.322 96.782,152.233 96.191 C 152.143 95.601,152.070 96.084,152.070 97.266 M322.747 98.047 C 322.747 98.799,322.827 99.106,322.926 98.730 C 323.024 98.354,323.024 97.739,322.926 97.363 C 322.827 96.987,322.747 97.295,322.747 98.047 M265.351 99.609 C 265.351 100.791,265.425 101.274,265.514 100.684 C 265.604 100.093,265.604 99.126,265.514 98.535 C 265.425 97.944,265.351 98.428,265.351 99.609 M292.299 100.195 C 292.302 101.270,292.378 101.663,292.468 101.069 C 292.558 100.475,292.555 99.596,292.462 99.116 C 292.370 98.635,292.296 99.121,292.299 100.195 M125.893 102.148 C 125.896 103.223,125.972 103.616,126.062 103.022 C 126.151 102.428,126.149 101.549,126.056 101.069 C 125.964 100.588,125.890 101.074,125.893 102.148 M323.159 103.320 C 323.162 104.395,323.237 104.788,323.327 104.194 C 323.417 103.600,323.415 102.721,323.322 102.241 C 323.229 101.760,323.156 102.246,323.159 103.320 M174.347 104.883 C 174.349 106.387,174.419 106.954,174.504 106.144 C 174.588 105.333,174.587 104.103,174.501 103.409 C 174.414 102.716,174.345 103.379,174.347 104.883 M265.737 104.102 C 265.740 105.176,265.816 105.569,265.905 104.975 C 265.995 104.381,265.993 103.502,265.900 103.022 C 265.807 102.542,265.734 103.027,265.737 104.102 M292.677 105.664 C 292.681 106.523,292.761 106.829,292.854 106.343 C 292.948 105.857,292.944 105.154,292.847 104.781 C 292.749 104.407,292.672 104.805,292.677 105.664 M125.508 108.203 C 125.508 109.385,125.581 109.868,125.670 109.277 C 125.760 108.687,125.760 107.720,125.670 107.129 C 125.581 106.538,125.508 107.021,125.508 108.203 M266.106 108.984 C 266.106 109.736,266.187 110.044,266.285 109.668 C 266.383 109.292,266.383 108.677,266.285 108.301 C 266.187 107.925,266.106 108.232,266.106 108.984 M323.544 109.766 C 323.544 110.732,323.620 111.128,323.713 110.645 C 323.806 110.161,323.806 109.370,323.713 108.887 C 323.620 108.403,323.544 108.799,323.544 109.766 M173.935 110.547 C 173.935 111.514,174.011 111.909,174.104 111.426 C 174.197 110.942,174.197 110.151,174.104 109.668 C 174.011 109.185,173.935 109.580,173.935 110.547 M151.278 110.938 C 151.278 111.904,151.354 112.300,151.448 111.816 C 151.541 111.333,151.541 110.542,151.448 110.059 C 151.354 109.575,151.278 109.971,151.278 110.938 M240.341 110.938 C 240.341 111.904,240.417 112.300,240.510 111.816 C 240.603 111.333,240.603 110.542,240.510 110.059 C 240.417 109.575,240.341 109.971,240.341 110.938 M293.067 110.742 C 293.072 111.602,293.152 111.907,293.245 111.421 C 293.338 110.935,293.335 110.232,293.237 109.859 C 293.139 109.485,293.063 109.883,293.067 110.742 M95.449 113.281 C 95.449 115.107,95.516 115.854,95.599 114.941 C 95.681 114.028,95.681 112.534,95.599 111.621 C 95.516 110.708,95.449 111.455,95.449 113.281 M94.696 118.750 C 94.696 123.154,94.753 124.956,94.823 122.754 C 94.892 120.552,94.892 116.948,94.823 114.746 C 94.753 112.544,94.696 114.346,94.696 118.750 M125.134 115.430 C 125.135 117.148,125.204 117.803,125.287 116.884 C 125.369 115.965,125.368 114.559,125.284 113.759 C 125.200 112.959,125.132 113.711,125.134 115.430 M266.518 114.258 C 266.521 115.332,266.597 115.725,266.687 115.131 C 266.776 114.538,266.774 113.659,266.681 113.178 C 266.589 112.698,266.515 113.184,266.518 114.258 M240.724 114.648 C 240.728 115.508,240.808 115.813,240.901 115.327 C 240.995 114.842,240.991 114.138,240.893 113.765 C 240.796 113.392,240.719 113.789,240.724 114.648 M173.536 115.039 C 173.540 115.898,173.620 116.204,173.714 115.718 C 173.807 115.232,173.804 114.529,173.706 114.156 C 173.608 113.782,173.532 114.180,173.536 115.039 M293.450 114.844 C 293.450 115.596,293.530 115.903,293.629 115.527 C 293.727 115.151,293.727 114.536,293.629 114.160 C 293.530 113.784,293.450 114.092,293.450 114.844 M323.945 116.016 C 323.945 117.197,324.018 117.681,324.108 117.090 C 324.197 116.499,324.197 115.532,324.108 114.941 C 324.018 114.351,323.945 114.834,323.945 116.016 M150.902 117.773 C 150.904 119.063,150.977 119.543,151.064 118.841 C 151.151 118.139,151.149 117.084,151.060 116.497 C 150.971 115.910,150.900 116.484,150.902 117.773 M241.106 117.969 C 241.106 118.721,241.187 119.028,241.285 118.652 C 241.383 118.276,241.383 117.661,241.285 117.285 C 241.187 116.909,241.106 117.217,241.106 117.969 M266.895 118.555 C 266.900 119.414,266.980 119.720,267.073 119.234 C 267.167 118.748,267.163 118.045,267.065 117.671 C 266.967 117.298,266.891 117.695,266.895 118.555 M173.153 119.922 C 173.153 120.889,173.229 121.284,173.323 120.801 C 173.416 120.317,173.416 119.526,173.323 119.043 C 173.229 118.560,173.153 118.955,173.153 119.922 M324.344 121.875 C 324.344 123.271,324.415 123.843,324.501 123.145 C 324.588 122.446,324.588 121.304,324.501 120.605 C 324.415 119.907,324.344 120.479,324.344 121.875 M267.278 123.047 C 267.278 123.799,267.359 124.106,267.457 123.730 C 267.555 123.354,267.555 122.739,267.457 122.363 C 267.359 121.987,267.278 122.295,267.278 123.047 M124.721 124.023 C 124.724 125.098,124.800 125.491,124.890 124.897 C 124.979 124.303,124.977 123.424,124.884 122.944 C 124.792 122.463,124.718 122.949,124.721 124.023 M241.888 125.391 C 241.888 126.143,241.968 126.450,242.066 126.074 C 242.164 125.698,242.164 125.083,242.066 124.707 C 241.968 124.331,241.888 124.639,241.888 125.391 M150.489 126.367 C 150.493 127.227,150.573 127.532,150.667 127.046 C 150.760 126.560,150.757 125.857,150.659 125.484 C 150.561 125.110,150.485 125.508,150.489 126.367 M124.344 130.078 C 124.344 131.475,124.415 132.046,124.501 131.348 C 124.588 130.649,124.588 129.507,124.501 128.809 C 124.415 128.110,124.344 128.682,124.344 130.078 M324.721 129.492 C 324.724 130.566,324.800 130.959,324.890 130.366 C 324.979 129.772,324.977 128.893,324.884 128.413 C 324.792 127.932,324.718 128.418,324.721 129.492 M94.689 134.961 C 94.690 138.398,94.750 139.752,94.822 137.970 C 94.895 136.187,94.894 133.375,94.821 131.720 C 94.748 130.065,94.689 131.523,94.689 134.961 M268.067 131.836 C 268.072 132.695,268.152 133.001,268.245 132.515 C 268.338 132.029,268.335 131.326,268.237 130.952 C 268.139 130.579,268.063 130.977,268.067 131.836 M150.106 132.813 C 150.106 133.779,150.183 134.175,150.276 133.691 C 150.369 133.208,150.369 132.417,150.276 131.934 C 150.183 131.450,150.106 131.846,150.106 132.813 M171.974 132.617 C 171.978 133.477,172.058 133.782,172.151 133.296 C 172.245 132.810,172.241 132.107,172.143 131.734 C 172.046 131.360,171.969 131.758,171.974 132.617 M242.669 132.422 C 242.669 133.174,242.749 133.481,242.847 133.105 C 242.946 132.729,242.946 132.114,242.847 131.738 C 242.749 131.362,242.669 131.670,242.669 132.422 M295.028 132.813 C 295.028 133.779,295.104 134.175,295.198 133.691 C 295.291 133.208,295.291 132.417,295.198 131.934 C 295.104 131.450,295.028 131.846,295.028 132.813 M243.059 135.547 C 243.059 136.299,243.140 136.606,243.238 136.230 C 243.336 135.854,243.336 135.239,243.238 134.863 C 243.140 134.487,243.059 134.795,243.059 135.547 M268.476 136.719 C 268.476 137.900,268.550 138.384,268.639 137.793 C 268.729 137.202,268.729 136.235,268.639 135.645 C 268.550 135.054,268.476 135.537,268.476 136.719 M123.949 137.305 C 123.951 138.594,124.024 139.074,124.111 138.372 C 124.198 137.670,124.196 136.615,124.107 136.028 C 124.018 135.441,123.947 136.016,123.949 137.305 M171.601 137.109 C 171.601 138.291,171.675 138.774,171.764 138.184 C 171.854 137.593,171.854 136.626,171.764 136.035 C 171.675 135.444,171.601 135.928,171.601 137.109 M295.419 137.109 C 295.419 138.076,295.495 138.472,295.588 137.988 C 295.681 137.505,295.681 136.714,295.588 136.230 C 295.495 135.747,295.419 136.143,295.419 137.109 M325.128 138.086 C 325.130 139.590,325.201 140.157,325.285 139.347 C 325.370 138.536,325.368 137.306,325.282 136.612 C 325.196 135.919,325.126 136.582,325.128 138.086 M149.730 138.477 C 149.733 139.766,149.806 140.246,149.892 139.544 C 149.979 138.842,149.978 137.787,149.888 137.200 C 149.799 136.613,149.728 137.188,149.730 138.477 M304.395 138.867 C 304.400 139.727,304.480 140.032,304.573 139.546 C 304.667 139.060,304.663 138.357,304.565 137.984 C 304.467 137.610,304.391 138.008,304.395 138.867 M243.458 139.258 C 243.462 140.117,243.542 140.423,243.636 139.937 C 243.729 139.451,243.726 138.748,243.628 138.374 C 243.530 138.001,243.454 138.398,243.458 139.258 M95.411 140.430 C 95.415 141.289,95.495 141.595,95.589 141.109 C 95.682 140.623,95.679 139.920,95.581 139.546 C 95.483 139.173,95.407 139.570,95.411 140.430 M268.841 140.234 C 268.841 140.986,268.921 141.294,269.019 140.918 C 269.118 140.542,269.118 139.927,269.019 139.551 C 268.921 139.175,268.841 139.482,268.841 140.234 M55.808 139.977 C 56.047 140.266,56.113 140.661,55.954 140.856 C 55.794 141.051,55.824 141.081,56.019 140.921 C 56.214 140.762,56.653 140.845,56.995 141.105 C 57.337 141.365,57.191 141.100,56.670 140.516 C 55.719 139.449,54.993 138.996,55.808 139.977 M171.200 141.406 C 171.200 142.373,171.276 142.769,171.369 142.285 C 171.463 141.802,171.463 141.011,171.369 140.527 C 171.276 140.044,171.200 140.439,171.200 141.406 M295.794 141.797 C 295.794 142.549,295.874 142.856,295.972 142.480 C 296.071 142.104,296.071 141.489,295.972 141.113 C 295.874 140.737,295.794 141.045,295.794 141.797 M243.849 142.773 C 243.853 143.633,243.933 143.938,244.026 143.452 C 244.120 142.967,244.116 142.263,244.018 141.890 C 243.921 141.517,243.844 141.914,243.849 142.773 M123.544 143.750 C 123.544 144.717,123.620 145.112,123.713 144.629 C 123.806 144.146,123.806 143.354,123.713 142.871 C 123.620 142.388,123.544 142.783,123.544 143.750 M149.330 143.945 C 149.333 145.020,149.409 145.413,149.499 144.819 C 149.589 144.225,149.586 143.346,149.494 142.866 C 149.401 142.385,149.328 142.871,149.330 143.945 M325.502 145.117 C 325.505 146.191,325.581 146.584,325.671 145.991 C 325.761 145.397,325.758 144.518,325.666 144.038 C 325.573 143.557,325.499 144.043,325.502 145.117 M170.820 145.703 C 170.820 146.885,170.893 147.368,170.983 146.777 C 171.072 146.187,171.072 145.220,170.983 144.629 C 170.893 144.038,170.820 144.521,170.820 145.703 M296.192 145.117 C 296.197 145.977,296.277 146.282,296.370 145.796 C 296.463 145.310,296.460 144.607,296.362 144.234 C 296.264 143.860,296.188 144.258,296.192 145.117 M244.231 146.484 C 244.231 147.236,244.312 147.544,244.410 147.168 C 244.508 146.792,244.508 146.177,244.410 145.801 C 244.312 145.425,244.231 145.732,244.231 146.484 M148.945 148.828 C 148.945 150.010,149.018 150.493,149.108 149.902 C 149.197 149.312,149.197 148.345,149.108 147.754 C 149.018 147.163,148.945 147.646,148.945 148.828 M94.928 149.251 C 94.931 149.771,95.107 150.459,95.318 150.781 C 95.588 151.193,95.628 150.962,95.451 150.000 C 95.142 148.315,94.920 147.998,94.928 149.251 M170.403 151.172 C 170.403 151.924,170.484 152.231,170.582 151.855 C 170.680 151.479,170.680 150.864,170.582 150.488 C 170.484 150.112,170.403 150.420,170.403 151.172 M325.913 153.125 C 325.913 154.736,325.982 155.396,326.066 154.590 C 326.150 153.784,326.150 152.466,326.066 151.660 C 325.982 150.854,325.913 151.514,325.913 153.125 M245.013 153.125 C 245.013 153.877,245.093 154.185,245.191 153.809 C 245.289 153.433,245.289 152.817,245.191 152.441 C 245.093 152.065,245.013 152.373,245.013 153.125 M148.536 153.711 C 148.540 154.570,148.620 154.876,148.714 154.390 C 148.807 153.904,148.804 153.201,148.706 152.827 C 148.608 152.454,148.532 152.852,148.536 153.711 M250.872 154.297 C 250.872 155.049,250.952 155.356,251.051 154.980 C 251.149 154.604,251.149 153.989,251.051 153.613 C 250.952 153.237,250.872 153.545,250.872 154.297 M356.341 154.297 C 356.341 155.049,356.421 155.356,356.519 154.980 C 356.618 154.604,356.618 153.989,356.519 153.613 C 356.421 153.237,356.341 153.545,356.341 154.297 M355.950 157.422 C 355.950 158.174,356.030 158.481,356.129 158.105 C 356.227 157.729,356.227 157.114,356.129 156.738 C 356.030 156.362,355.950 156.670,355.950 157.422 M170.794 160.547 C 170.794 161.299,170.874 161.606,170.972 161.230 C 171.071 160.854,171.071 160.239,170.972 159.863 C 170.874 159.487,170.794 159.795,170.794 160.547 M170.078 165.430 C 170.079 168.652,170.139 169.919,170.213 168.244 C 170.286 166.569,170.286 163.932,170.212 162.384 C 170.138 160.837,170.078 162.207,170.078 165.430 M326.297 163.281 C 326.297 164.678,326.368 165.249,326.454 164.551 C 326.541 163.853,326.541 162.710,326.454 162.012 C 326.368 161.313,326.297 161.885,326.297 163.281 M326.696 175.195 C 326.698 176.914,326.767 177.569,326.849 176.650 C 326.932 175.731,326.930 174.325,326.846 173.525 C 326.763 172.725,326.695 173.477,326.696 175.195 M353.997 174.219 C 353.997 174.971,354.077 175.278,354.176 174.902 C 354.274 174.526,354.274 173.911,354.176 173.535 C 354.077 173.159,353.997 173.467,353.997 174.219 M306.616 175.947 C 307.203 176.654,305.505 177.684,298.782 180.698 C 277.963 190.029,268.746 196.450,252.855 212.687 C 241.824 223.958,241.134 224.517,241.565 221.818 C 243.514 209.630,265.064 190.085,285.352 182.107 C 296.549 177.703,299.079 176.778,301.668 176.142 C 305.185 175.278,306.033 175.244,306.616 175.947 M101.467 179.885 C 124.335 185.276,150.866 203.852,156.701 218.555 C 159.192 224.834,158.274 224.508,150.200 216.248 C 134.069 199.744,122.966 192.091,104.281 184.600 C 93.425 180.247,91.856 177.619,101.467 179.885 M170.794 181.250 C 170.794 182.002,170.874 182.310,170.972 181.934 C 171.071 181.558,171.071 180.942,170.972 180.566 C 170.874 180.190,170.794 180.498,170.794 181.250 M352.833 184.961 C 352.837 185.820,352.917 186.126,353.011 185.640 C 353.104 185.154,353.101 184.451,353.003 184.077 C 352.905 183.704,352.829 184.102,352.833 184.961 M352.442 188.867 C 352.447 189.727,352.527 190.032,352.620 189.546 C 352.713 189.060,352.710 188.357,352.612 187.984 C 352.514 187.610,352.438 188.008,352.442 188.867 M352.052 191.992 C 352.056 192.852,352.136 193.157,352.229 192.671 C 352.323 192.185,352.319 191.482,352.222 191.109 C 352.124 190.735,352.047 191.133,352.052 191.992 M349.344 206.925 C 348.877 208.591,348.558 210.016,348.634 210.092 C 348.841 210.300,350.459 204.696,350.316 204.267 C 350.248 204.063,349.810 205.260,349.344 206.925 M346.865 213.503 C 346.655 214.054,346.287 214.889,346.046 215.358 C 345.758 215.918,345.751 216.077,346.026 215.820 C 346.527 215.352,347.756 212.500,347.457 212.500 C 347.341 212.500,347.075 212.951,346.865 213.503 M340.192 224.316 C 339.035 225.874,336.787 228.730,335.196 230.664 C 333.605 232.598,332.913 233.605,333.658 232.903 C 334.403 232.201,335.161 231.762,335.342 231.927 C 335.524 232.092,335.547 232.009,335.394 231.743 C 335.040 231.127,339.380 225.690,339.946 226.040 C 340.190 226.190,340.238 226.104,340.066 225.824 C 339.705 225.240,340.568 224.138,341.120 224.479 C 341.357 224.625,341.410 224.541,341.247 224.276 C 341.092 224.027,341.341 223.297,341.799 222.654 C 343.506 220.256,342.216 221.590,340.192 224.316 M177.060 225.781 C 177.060 226.748,177.136 227.144,177.229 226.660 C 177.322 226.177,177.322 225.386,177.229 224.902 C 177.136 224.419,177.060 224.814,177.060 225.781 M177.472 232.227 C 177.474 233.730,177.544 234.298,177.629 233.487 C 177.713 232.677,177.712 231.446,177.626 230.753 C 177.539 230.060,177.470 230.723,177.472 232.227 M331.030 235.645 L 329.883 236.914 331.152 235.767 C 331.851 235.136,332.422 234.564,332.422 234.497 C 332.422 234.195,332.100 234.461,331.030 235.645 M177.044 237.500 C 177.044 238.252,177.124 238.560,177.222 238.184 C 177.321 237.808,177.321 237.192,177.222 236.816 C 177.124 236.440,177.044 236.748,177.044 237.500 M328.125 238.867 C 327.176 239.834,326.488 240.625,326.595 240.625 C 326.703 240.625,327.567 239.834,328.516 238.867 C 329.464 237.900,330.153 237.109,330.045 237.109 C 329.938 237.109,329.074 237.900,328.125 238.867 M323.815 243.652 L 321.680 245.898 323.926 243.763 C 326.012 241.780,326.351 241.406,326.061 241.406 C 326.000 241.406,324.989 242.417,323.815 243.652 M175.244 246.695 C 175.110 247.044,175.015 247.623,175.034 247.981 C 175.052 248.340,175.222 248.114,175.411 247.481 C 175.780 246.248,175.649 245.638,175.244 246.695 M321.879 246.675 C 321.613 246.995,321.252 247.168,321.076 247.060 C 320.901 246.951,320.665 247.012,320.552 247.194 C 320.152 247.841,321.491 247.515,322.129 246.810 C 322.486 246.416,322.684 246.094,322.569 246.094 C 322.455 246.094,322.144 246.355,321.879 246.675 M173.872 251.215 C 173.631 251.906,173.502 252.539,173.586 252.622 C 173.669 252.706,173.935 252.209,174.175 251.519 C 174.416 250.829,174.545 250.196,174.461 250.112 C 174.377 250.028,174.112 250.525,173.872 251.215 M314.250 253.613 L 310.742 257.227 314.355 253.719 C 317.711 250.461,318.147 250.000,317.863 250.000 C 317.805 250.000,316.179 251.626,314.250 253.613 M172.531 254.510 C 171.613 256.435,171.742 256.762,172.702 254.944 C 173.137 254.118,173.425 253.373,173.340 253.288 C 173.256 253.204,172.892 253.754,172.531 254.510 M93.232 259.977 C 95.882 261.386,101.707 263.118,107.588 264.246 C 114.112 265.497,114.672 266.053,111.032 267.663 C 105.220 270.234,97.145 267.999,92.749 262.603 C 90.120 259.376,90.297 258.416,93.232 259.977 M168.926 261.758 C 168.370 262.853,167.982 263.815,168.062 263.895 C 168.142 263.975,168.679 263.079,169.256 261.903 C 169.832 260.728,170.221 259.766,170.120 259.766 C 170.018 259.766,169.481 260.662,168.926 261.758 M308.711 271.094 C 308.711 272.275,308.784 272.759,308.874 272.168 C 308.963 271.577,308.963 270.610,308.874 270.020 C 308.784 269.429,308.711 269.912,308.711 271.094 M164.934 276.563 C 164.934 277.314,165.015 277.622,165.113 277.246 C 165.211 276.870,165.211 276.255,165.113 275.879 C 165.015 275.503,164.934 275.811,164.934 276.563 M309.466 278.906 C 309.466 279.658,309.546 279.966,309.644 279.590 C 309.743 279.214,309.743 278.599,309.644 278.223 C 309.546 277.847,309.466 278.154,309.466 278.906 M164.161 284.180 C 164.165 285.039,164.245 285.345,164.339 284.859 C 164.432 284.373,164.429 283.670,164.331 283.296 C 164.233 282.923,164.157 283.320,164.161 284.180 M163.372 294.141 C 163.372 294.893,163.452 295.200,163.551 294.824 C 163.649 294.448,163.649 293.833,163.551 293.457 C 163.452 293.081,163.372 293.389,163.372 294.141 M163.008 299.219 C 163.008 300.400,163.081 300.884,163.170 300.293 C 163.260 299.702,163.260 298.735,163.170 298.145 C 163.081 297.554,163.008 298.037,163.008 299.219 M162.606 304.688 C 162.606 305.654,162.683 306.050,162.776 305.566 C 162.869 305.083,162.869 304.292,162.776 303.809 C 162.683 303.325,162.606 303.721,162.606 304.688 M162.226 309.766 C 162.226 310.947,162.300 311.431,162.389 310.840 C 162.479 310.249,162.479 309.282,162.389 308.691 C 162.300 308.101,162.226 308.584,162.226 309.766 M161.825 314.063 C 161.825 315.029,161.901 315.425,161.994 314.941 C 162.088 314.458,162.088 313.667,161.994 313.184 C 161.901 312.700,161.825 313.096,161.825 314.063 M315.325 315.234 C 315.325 315.986,315.405 316.294,315.504 315.918 C 315.602 315.542,315.602 314.927,315.504 314.551 C 315.405 314.175,315.325 314.482,315.325 315.234 M161.427 318.945 C 161.431 319.805,161.511 320.110,161.604 319.624 C 161.698 319.138,161.694 318.435,161.597 318.062 C 161.499 317.688,161.422 318.086,161.427 318.945 M161.028 323.047 C 161.028 323.799,161.109 324.106,161.207 323.730 C 161.305 323.354,161.305 322.739,161.207 322.363 C 161.109 321.987,161.028 322.295,161.028 323.047 M160.247 332.422 C 160.247 333.174,160.327 333.481,160.426 333.105 C 160.524 332.729,160.524 332.114,160.426 331.738 C 160.327 331.362,160.247 331.670,160.247 332.422 M159.856 336.328 C 159.856 337.080,159.937 337.388,160.035 337.012 C 160.133 336.636,160.133 336.021,160.035 335.645 C 159.937 335.269,159.856 335.576,159.856 336.328 M134.570 343.359 L 109.570 343.563 134.668 343.657 C 151.202 343.718,159.766 343.617,159.766 343.359 C 159.766 343.145,159.722 343.011,159.668 343.062 C 159.614 343.113,148.320 343.247,134.570 343.359 " stroke="none" fill="#fbc494" fill-rule="evenodd"></path><path id="path2" d="M0.000 200.000 L 0.000 400.000 200.000 400.000 L 400.000 400.000 400.000 200.000 L 400.000 0.000 200.000 0.000 L 0.000 0.000 0.000 200.000 M124.913 55.729 C 129.599 58.626,129.723 59.849,127.967 85.938 C 126.886 101.995,126.136 114.371,125.397 128.320 C 125.158 132.832,124.795 139.245,124.590 142.571 C 124.031 151.677,124.234 152.734,126.541 152.734 C 129.210 152.734,129.397 152.015,130.659 136.914 C 131.001 132.832,131.805 123.252,132.447 115.625 C 133.089 107.998,134.054 96.484,134.592 90.039 C 135.135 83.536,135.827 77.532,136.148 76.550 C 138.911 68.076,150.380 67.839,153.329 76.195 C 154.086 78.343,154.058 81.168,153.137 95.582 C 152.713 102.201,152.095 113.154,151.763 119.922 C 151.190 131.594,149.890 150.234,149.401 153.794 C 149.042 156.412,150.478 158.030,152.298 157.056 C 153.731 156.289,154.040 154.388,157.001 128.125 C 157.861 120.498,158.843 111.797,159.184 108.789 C 160.284 99.077,162.232 96.207,167.773 96.132 C 174.079 96.047,175.779 99.702,174.837 111.328 C 173.949 122.298,173.065 132.341,172.841 133.984 C 172.057 139.767,171.094 156.552,171.094 164.446 C 171.094 177.333,171.730 183.678,175.205 205.469 C 179.946 235.197,179.388 243.214,171.482 259.009 C 166.892 268.179,165.952 272.745,164.454 293.164 C 164.013 299.180,163.402 307.090,163.097 310.742 C 162.791 314.395,162.084 322.920,161.524 329.688 C 160.964 336.455,160.419 342.563,160.313 343.262 L 160.121 344.531 119.311 344.531 L 78.501 344.531 78.697 343.652 C 79.216 341.329,81.134 330.560,84.766 309.570 C 86.907 297.198,88.221 289.123,89.693 279.297 C 90.664 272.805,90.688 261.260,89.733 259.343 C 89.349 258.573,85.864 254.794,81.988 250.944 C 66.569 235.631,55.366 221.478,51.398 212.297 C 48.865 206.437,48.184 202.751,46.288 184.639 C 44.319 165.826,43.436 159.004,41.765 149.718 C 40.378 142.006,40.310 139.569,41.441 138.131 C 45.364 133.143,55.079 136.529,59.765 144.517 C 61.383 147.274,62.505 150.563,64.438 158.203 C 68.192 173.049,70.242 180.224,71.229 181.969 C 71.676 182.761,71.809 181.551,72.220 172.985 C 76.340 86.945,77.437 74.094,80.977 70.362 C 86.232 64.823,95.427 68.254,96.353 76.101 C 96.471 77.107,96.366 85.312,96.120 94.336 C 95.641 111.852,95.508 147.790,95.918 149.048 C 97.074 152.595,100.465 153.538,101.766 150.673 C 102.343 149.404,104.482 126.856,107.001 95.508 C 109.629 62.789,109.694 62.204,110.952 59.737 C 113.483 54.775,120.236 52.837,124.913 55.729 M284.618 55.401 C 286.510 56.376,288.347 58.291,289.455 60.442 C 290.392 62.263,290.516 63.331,291.797 80.664 C 293.732 106.831,295.758 131.354,297.091 144.727 C 297.795 151.784,298.867 153.353,302.131 152.101 C 304.557 151.170,305.120 136.310,304.095 100.300 C 303.362 74.569,303.381 74.146,305.385 71.484 C 310.888 64.171,320.515 67.556,322.051 77.344 C 322.327 79.102,323.746 97.214,324.224 105.078 C 325.900 132.652,326.782 150.169,327.340 166.992 C 327.837 181.938,327.964 183.340,328.694 181.932 C 329.187 180.981,330.933 175.789,331.419 173.828 C 337.059 151.065,338.680 146.285,342.210 142.013 C 347.311 135.841,354.597 133.849,358.105 137.669 C 359.593 139.288,359.774 141.408,358.816 145.971 C 357.883 150.413,356.354 161.386,355.290 171.289 C 351.935 202.487,351.636 204.456,349.378 210.304 C 345.498 220.349,336.355 232.227,318.369 250.586 C 311.366 257.735,310.740 258.561,309.922 261.741 C 308.491 267.300,310.402 281.785,318.754 328.711 C 319.922 335.270,321.478 344.242,321.482 344.435 C 321.483 344.490,302.995 344.490,280.397 344.435 L 239.309 344.336 239.192 343.164 C 238.991 341.140,236.740 310.962,235.725 296.680 C 233.856 270.390,233.425 268.020,228.907 259.228 C 221.049 243.936,220.108 234.730,224.012 211.328 C 228.066 187.030,229.190 174.615,228.771 158.789 C 228.532 149.785,228.031 143.125,225.759 118.750 C 224.014 100.031,224.674 97.280,231.154 96.256 C 237.170 95.305,239.989 98.817,241.052 108.588 C 241.437 112.136,242.204 119.082,242.755 124.023 C 243.305 128.965,244.294 137.832,244.952 143.729 C 246.399 156.708,246.998 158.429,249.590 157.042 C 250.863 156.360,250.933 155.086,250.251 144.957 C 249.895 139.674,249.422 131.748,249.199 127.344 C 248.796 119.386,248.015 106.328,247.272 95.117 C 246.488 83.281,246.369 77.991,246.847 76.247 C 248.758 69.273,258.869 68.135,262.870 74.444 C 264.593 77.162,264.460 75.975,267.985 119.922 C 269.002 132.595,270.774 150.526,271.092 151.364 C 271.754 153.104,273.990 153.676,275.144 152.400 C 275.786 151.691,274.475 117.304,273.057 97.656 C 272.848 94.756,272.207 85.879,271.633 77.930 C 270.640 64.172,270.621 63.370,271.236 61.256 C 272.913 55.493,279.339 52.681,284.618 55.401 " stroke="none" fill="#fcfcfb" fill-rule="evenodd"></path><path id="path3" d="M304.403 110.547 C 304.403 111.514,304.479 111.909,304.573 111.426 C 304.666 110.942,304.666 110.151,304.573 109.668 C 304.479 109.185,304.403 109.580,304.403 110.547 M95.449 119.531 C 95.449 121.357,95.516 122.104,95.599 121.191 C 95.681 120.278,95.681 118.784,95.599 117.871 C 95.516 116.958,95.449 117.705,95.449 119.531 M304.409 135.742 C 304.412 136.816,304.487 137.209,304.577 136.616 C 304.667 136.022,304.665 135.143,304.572 134.663 C 304.479 134.182,304.406 134.668,304.409 135.742 M170.840 164.844 C 170.840 166.670,170.907 167.417,170.989 166.504 C 171.071 165.591,171.071 164.097,170.989 163.184 C 170.907 162.271,170.840 163.018,170.840 164.844 M90.742 265.625 C 90.742 266.807,90.815 267.290,90.905 266.699 C 90.994 266.108,90.994 265.142,90.905 264.551 C 90.815 263.960,90.742 264.443,90.742 265.625 M99.346 344.434 C 110.481 344.491,128.586 344.491,139.581 344.433 C 150.575 344.376,141.465 344.329,119.336 344.329 C 97.207 344.329,88.212 344.376,99.346 344.434 M260.284 344.434 C 271.633 344.491,290.090 344.491,301.299 344.434 C 312.509 344.376,303.223 344.329,280.664 344.329 C 258.105 344.329,248.934 344.376,260.284 344.434 " stroke="none" fill="#fce7cc" fill-rule="evenodd"></path><path id="path4" d="M95.815 101.367 C 95.818 102.441,95.894 102.834,95.983 102.241 C 96.073 101.647,96.071 100.768,95.978 100.288 C 95.885 99.807,95.812 100.293,95.815 101.367 M95.446 125.586 C 95.448 127.305,95.517 127.959,95.599 127.040 C 95.682 126.122,95.680 124.715,95.596 123.915 C 95.513 123.115,95.445 123.867,95.446 125.586 M95.449 134.375 C 95.449 136.201,95.516 136.948,95.599 136.035 C 95.681 135.122,95.681 133.628,95.599 132.715 C 95.516 131.802,95.449 132.549,95.449 134.375 M327.044 162.109 C 327.044 162.861,327.124 163.169,327.222 162.793 C 327.321 162.417,327.321 161.802,327.222 161.426 C 327.124 161.050,327.044 161.357,327.044 162.109 M327.825 182.422 C 327.825 183.174,327.905 183.481,328.004 183.105 C 328.102 182.729,328.102 182.114,328.004 181.738 C 327.905 181.362,327.825 181.670,327.825 182.422 " stroke="none" fill="#fcf0e0" fill-rule="evenodd"></path></g></svg>