<svg id="svg" version="1.1" xmlns="http://www.w3.org/2000/svg" xmlns:xlink="http://www.w3.org/1999/xlink" width="200" height="200" viewBox="0, 0, 400,400"><g id="svgg"><path id="path0" d="M0.000 200.000 L 0.000 400.000 200.000 400.000 L 400.000 400.000 400.000 200.000 L 400.000 0.000 200.000 0.000 L 0.000 0.000 0.000 200.000 M211.380 48.685 C 226.306 68.545,229.072 89.103,219.600 109.766 C 215.416 118.891,209.675 126.523,196.094 141.016 C 181.694 156.381,176.435 164.002,173.687 173.483 C 169.572 187.683,172.628 205.635,181.411 218.869 C 182.182 220.029,182.812 221.081,182.812 221.206 C 182.812 221.502,176.857 217.121,172.706 213.772 C 152.561 197.516,144.708 173.703,153.092 154.297 C 157.465 144.175,164.944 135.175,182.617 118.768 C 193.962 108.236,198.362 103.423,203.288 96.156 C 214.003 80.349,216.016 61.307,208.551 46.375 C 206.574 42.422,206.831 42.631,211.380 48.685 M244.713 95.605 C 251.620 110.122,252.930 125.248,248.446 138.719 C 244.748 149.832,240.138 156.542,225.509 172.105 C 201.111 198.063,198.368 209.597,209.775 238.281 C 221.014 266.542,219.976 274.643,202.342 296.289 C 189.739 311.760,185.497 328.410,190.877 341.288 C 192.171 344.383,190.912 342.801,189.275 339.274 C 182.438 324.544,183.805 311.890,194.317 292.578 C 209.180 265.274,210.229 248.301,198.263 228.711 C 188.771 213.170,187.113 194.701,193.945 180.613 C 196.483 175.382,200.628 170.157,207.862 163.072 C 211.380 159.627,216.952 154.178,220.245 150.963 C 239.598 132.066,247.959 111.047,243.119 93.457 C 242.650 91.751,243.289 92.613,244.713 95.605 " stroke="none" fill="#fbfbfb" fill-rule="evenodd"></path><path id="path1" d="M209.167 47.305 C 215.003 60.146,214.543 74.379,207.837 88.513 C 203.081 98.535,196.818 105.880,178.437 122.988 C 157.054 142.891,150.244 154.313,150.222 170.313 C 150.196 189.290,159.785 205.019,179.994 219.144 L 182.839 221.133 181.504 219.258 C 179.916 217.029,176.893 211.453,175.934 208.984 C 175.558 208.018,175.004 207.078,174.702 206.896 C 174.340 206.677,174.235 206.213,174.393 205.529 C 174.543 204.883,174.505 204.684,174.293 205.000 C 173.592 206.047,167.589 192.168,165.871 185.527 C 162.726 173.368,163.834 162.417,169.322 151.401 C 171.890 146.247,177.519 137.737,178.420 137.646 C 178.687 137.620,179.082 137.576,179.297 137.549 C 179.512 137.522,179.688 137.303,179.688 137.062 C 179.688 136.759,179.506 136.773,179.102 137.109 C 178.775 137.381,178.516 137.423,178.516 137.205 C 178.516 136.710,179.497 135.878,179.765 136.146 C 179.876 136.256,180.212 136.035,180.511 135.654 C 181.005 135.024,180.993 135.010,180.371 135.497 C 178.042 137.324,184.118 130.248,191.231 122.852 L 194.611 119.336 191.739 122.576 C 190.160 124.358,187.433 127.435,185.680 129.412 C 182.732 132.737,181.841 134.087,183.464 132.771 C 184.045 132.299,184.087 132.304,183.777 132.813 C 183.298 133.600,183.201 134.375,183.583 134.375 C 183.754 134.375,183.990 134.006,184.108 133.554 C 184.226 133.103,184.510 132.850,184.739 132.992 C 184.969 133.133,185.156 133.078,185.156 132.868 C 185.156 132.658,184.937 132.409,184.668 132.313 C 184.399 132.217,184.291 132.018,184.426 131.871 C 184.562 131.724,184.955 131.886,185.300 132.230 C 185.932 132.863,185.385 134.159,184.668 133.725 C 184.507 133.627,184.375 133.715,184.375 133.920 C 184.375 134.124,184.613 134.383,184.903 134.494 C 185.466 134.710,186.812 133.426,186.426 133.041 C 186.301 132.915,186.403 132.813,186.654 132.813 C 186.904 132.813,187.109 132.988,187.109 133.203 C 187.109 133.418,187.417 133.580,187.793 133.563 C 188.201 133.544,188.280 133.453,187.988 133.335 C 187.720 133.227,187.507 132.669,187.516 132.096 L 187.531 131.055 188.145 132.187 C 188.691 133.197,188.939 133.942,189.033 134.863 C 189.049 135.024,189.213 135.156,189.398 135.156 C 189.860 135.156,189.740 133.075,189.258 132.721 C 189.040 132.561,189.189 132.431,189.593 132.428 C 190.040 132.424,190.241 132.623,190.117 132.946 C 190.006 133.234,190.073 133.717,190.265 134.020 C 190.603 134.554,190.819 134.081,190.676 133.120 C 190.653 132.966,190.900 132.943,191.226 133.067 C 191.686 133.244,191.716 133.416,191.361 133.844 C 190.995 134.285,191.031 134.344,191.546 134.147 C 191.899 134.012,192.188 133.744,192.188 133.552 C 192.188 133.360,192.495 133.200,192.871 133.197 C 193.455 133.192,193.469 133.136,192.969 132.813 C 192.646 132.604,192.559 132.431,192.773 132.428 C 192.988 132.425,193.675 132.862,194.299 133.399 C 195.608 134.524,195.757 134.579,195.469 133.828 C 195.353 133.525,195.489 133.291,195.774 133.304 C 197.236 133.368,197.658 133.151,197.681 132.324 C 197.706 131.454,197.709 131.453,198.039 132.270 C 198.390 133.138,199.348 133.725,200.481 133.765 C 200.853 133.778,201.116 133.965,201.067 134.180 C 201.017 134.395,200.832 134.522,200.655 134.463 C 200.477 134.404,200.441 134.530,200.573 134.744 C 200.705 134.958,198.060 138.082,194.697 141.687 C 183.190 154.020,175.983 163.927,174.443 169.531 C 174.296 170.068,174.954 168.907,175.905 166.950 C 179.627 159.298,184.517 153.034,197.678 139.063 C 205.780 130.461,210.454 124.810,206.543 128.345 L 205.273 129.492 206.417 128.227 C 207.046 127.531,207.647 127.048,207.752 127.153 C 208.010 127.411,209.375 126.154,209.375 125.660 C 209.375 125.445,208.979 125.604,208.496 126.014 L 207.617 126.758 208.353 125.888 C 208.758 125.410,209.228 125.104,209.397 125.209 C 210.227 125.722,216.943 115.179,219.707 109.024 C 229.413 87.409,225.718 66.644,208.304 44.941 C 208.037 44.608,208.425 45.672,209.167 47.305 M243.667 95.117 C 245.542 108.287,242.171 122.960,234.604 134.570 C 232.274 138.145,232.025 138.688,233.105 137.841 C 233.724 137.356,233.738 137.369,233.257 137.984 C 232.964 138.358,232.587 138.579,232.419 138.475 C 232.252 138.371,231.156 139.472,229.984 140.921 C 228.812 142.369,224.183 147.158,219.698 151.563 C 203.280 167.686,199.023 172.176,197.473 175.000 C 196.979 175.899,197.668 175.129,200.094 172.070 C 201.286 170.566,204.873 166.782,208.065 163.660 C 211.256 160.538,216.899 155.007,220.605 151.370 C 224.312 147.733,227.365 144.926,227.390 145.132 C 227.415 145.339,227.415 145.640,227.390 145.801 C 227.302 146.358,227.708 146.091,228.120 145.321 C 228.472 144.664,228.431 144.588,227.841 144.808 C 227.235 145.036,227.215 144.986,227.681 144.413 C 227.974 144.053,228.374 143.858,228.570 143.979 C 228.765 144.100,228.900 144.054,228.870 143.877 C 228.731 143.081,228.940 142.553,229.303 142.777 C 229.522 142.912,229.622 143.150,229.526 143.305 C 229.430 143.461,229.732 143.617,230.198 143.652 C 230.869 143.702,230.924 143.639,230.464 143.348 C 229.972 143.037,229.988 142.980,230.566 142.975 C 230.942 142.971,231.250 143.145,231.250 143.359 C 231.250 143.574,231.436 143.750,231.664 143.750 C 231.891 143.750,231.969 143.574,231.836 143.359 C 231.703 143.145,231.887 142.969,232.245 142.969 C 232.695 142.969,232.823 143.180,232.658 143.652 C 232.445 144.264,232.471 144.271,232.909 143.716 C 233.556 142.896,234.752 142.897,234.504 143.717 C 234.363 144.182,234.426 144.165,234.757 143.649 C 235.000 143.272,235.074 142.761,234.922 142.515 C 234.757 142.248,234.817 142.173,235.069 142.329 C 235.709 142.724,236.119 141.768,235.499 141.326 C 235.074 141.023,235.098 140.986,235.611 141.149 C 236.113 141.309,236.549 140.699,237.535 138.455 C 238.809 135.555,239.649 134.558,238.499 137.310 C 238.165 138.112,237.897 138.878,237.904 139.013 C 237.933 139.514,239.056 137.242,239.667 135.446 C 240.015 134.424,240.460 133.687,240.657 133.809 C 240.960 133.996,241.077 133.583,240.998 132.596 C 240.989 132.477,241.385 132.024,241.877 131.590 C 242.370 131.155,242.510 130.931,242.188 131.092 C 241.812 131.280,241.882 131.056,242.383 130.469 C 242.865 129.904,242.940 129.675,242.578 129.870 C 242.256 130.045,242.636 129.562,243.424 128.798 C 244.211 128.033,244.753 127.306,244.628 127.180 C 244.503 127.055,244.616 126.953,244.880 126.953 C 245.143 126.953,245.266 126.803,245.153 126.620 C 245.040 126.437,245.218 125.953,245.549 125.546 C 245.881 125.138,246.040 125.024,245.904 125.293 C 245.768 125.562,245.843 125.781,246.071 125.781 C 246.298 125.781,246.484 125.595,246.484 125.368 C 246.484 125.140,246.672 125.070,246.901 125.212 C 247.131 125.353,247.415 125.101,247.533 124.649 C 247.651 124.197,247.882 123.828,248.047 123.828 C 248.212 123.828,248.440 123.472,248.554 123.036 C 248.668 122.600,248.996 122.292,249.283 122.352 C 249.651 122.429,249.880 121.772,250.062 120.117 C 250.204 118.828,250.258 120.674,250.181 124.219 C 249.871 138.613,244.371 150.756,231.999 164.357 C 230.191 166.345,227.067 169.773,225.057 171.974 C 221.831 175.507,221.959 175.404,226.145 171.094 C 251.895 144.580,257.244 122.704,244.580 95.703 L 243.389 93.164 243.667 95.117 M197.656 116.134 C 197.656 116.200,196.997 116.859,196.191 117.599 L 194.727 118.945 196.073 117.480 C 197.326 116.117,197.656 115.836,197.656 116.134 M204.665 130.762 C 202.207 133.570,201.810 133.942,201.484 133.740 C 201.288 133.619,201.324 133.295,201.565 133.004 C 201.896 132.605,201.848 132.506,201.358 132.578 C 201.006 132.630,200.576 132.903,200.402 133.185 C 200.014 133.812,198.572 132.932,198.670 132.129 C 198.703 131.860,198.752 131.476,198.779 131.274 C 198.806 131.073,199.149 130.932,199.540 130.962 C 200.071 131.002,200.216 131.269,200.110 132.012 L 199.967 133.008 200.617 132.129 C 200.975 131.646,201.609 131.250,202.027 131.250 C 202.628 131.250,202.735 131.434,202.541 132.129 C 202.302 132.983,202.317 132.981,203.070 132.042 C 203.496 131.511,203.744 130.913,203.620 130.712 C 203.496 130.512,203.578 130.461,203.802 130.599 C 204.025 130.738,204.426 130.589,204.691 130.269 C 204.957 129.949,205.271 129.688,205.389 129.688 C 205.508 129.688,205.182 130.171,204.665 130.762 M196.878 132.614 C 196.406 133.182,194.531 133.283,194.531 132.741 C 194.531 132.540,194.328 132.501,194.080 132.654 C 193.790 132.834,193.736 132.761,193.929 132.448 C 194.094 132.181,194.560 132.050,194.966 132.156 C 195.371 132.262,195.796 132.197,195.911 132.012 C 196.025 131.826,196.381 131.775,196.702 131.899 C 197.122 132.060,197.171 132.260,196.878 132.614 M230.773 141.399 C 230.508 141.824,230.027 142.273,229.705 142.397 C 229.383 142.520,229.542 142.172,230.058 141.623 C 231.182 140.426,231.429 140.349,230.773 141.399 M219.857 177.637 C 216.246 181.428,207.934 192.578,208.720 192.578 C 208.815 192.578,209.660 191.394,210.599 189.947 C 212.453 187.087,217.583 180.512,220.045 177.842 C 220.891 176.923,221.509 176.172,221.418 176.172 C 221.327 176.172,220.624 176.831,219.857 177.637 M194.317 180.114 C 193.974 180.779,193.762 181.392,193.846 181.477 C 193.931 181.561,194.293 181.018,194.650 180.269 C 195.454 178.584,195.175 178.455,194.317 180.114 M171.591 181.641 C 171.591 182.607,171.667 183.003,171.760 182.520 C 171.853 182.036,171.853 181.245,171.760 180.762 C 171.667 180.278,171.591 180.674,171.591 181.641 M171.583 191.602 C 171.587 192.461,171.667 192.767,171.761 192.281 C 171.854 191.795,171.851 191.092,171.753 190.718 C 171.655 190.345,171.579 190.742,171.583 191.602 M206.178 197.081 C 205.299 198.914,204.648 200.479,204.731 200.560 C 204.815 200.641,205.617 199.141,206.515 197.228 C 207.413 195.315,208.064 193.750,207.962 193.750 C 207.860 193.750,207.057 195.249,206.178 197.081 M202.873 213.086 C 202.872 215.020,202.938 215.860,203.020 214.953 C 203.102 214.047,203.103 212.465,203.022 211.438 C 202.941 210.411,202.874 211.152,202.873 213.086 M216.547 265.625 C 216.547 267.666,216.613 268.501,216.693 267.480 C 216.774 266.460,216.774 264.790,216.693 263.770 C 216.613 262.749,216.547 263.584,216.547 265.625 M214.732 275.865 C 214.376 276.977,214.150 277.952,214.229 278.032 C 214.309 278.111,214.673 277.274,215.039 276.172 C 215.405 275.070,215.631 274.095,215.542 274.005 C 215.452 273.916,215.088 274.753,214.732 275.865 M201.047 279.901 C 200.129 281.825,200.258 282.153,201.217 280.334 C 201.653 279.508,201.941 278.763,201.856 278.679 C 201.772 278.595,201.407 279.144,201.047 279.901 M212.326 281.528 C 210.659 284.766,207.591 289.089,203.512 293.945 C 198.441 299.984,195.445 304.330,192.202 310.352 C 191.448 311.751,191.377 311.584,192.034 309.961 C 192.321 309.251,191.379 309.168,190.703 309.844 C 190.339 310.208,190.234 310.208,190.234 309.844 C 190.234 309.583,189.714 309.375,189.063 309.375 C 188.303 309.375,187.891 309.573,187.891 309.938 C 187.891 310.247,187.723 310.605,187.517 310.731 C 187.049 311.021,188.019 307.717,189.488 304.016 C 190.680 301.013,194.150 294.040,198.065 286.783 C 199.378 284.347,200.390 282.291,200.313 282.215 C 200.139 282.040,195.161 291.180,191.947 297.576 C 184.107 313.178,183.186 324.643,188.730 337.599 C 190.655 342.096,190.802 342.192,189.775 338.281 C 186.106 324.323,190.565 310.136,203.524 294.531 C 208.924 288.028,214.654 279.368,213.993 278.707 C 213.915 278.629,213.165 279.899,212.326 281.528 " stroke="none" fill="#ed4b15" fill-rule="evenodd"></path><path id="path2" d="M196.073 117.480 L 194.727 118.945 196.191 117.599 C 196.997 116.859,197.656 116.200,197.656 116.134 C 197.656 115.836,197.326 116.117,196.073 117.480 M249.922 120.215 C 249.837 121.839,249.660 122.431,249.283 122.352 C 248.996 122.292,248.668 122.600,248.554 123.036 C 248.440 123.472,248.212 123.828,248.047 123.828 C 247.882 123.828,247.651 124.197,247.533 124.649 C 247.415 125.101,247.131 125.353,246.901 125.212 C 246.672 125.070,246.484 125.140,246.484 125.368 C 246.484 125.595,246.298 125.781,246.071 125.781 C 245.843 125.781,245.768 125.562,245.904 125.293 C 246.040 125.024,245.881 125.138,245.549 125.546 C 245.218 125.953,245.040 126.437,245.153 126.620 C 245.266 126.803,245.143 126.953,244.880 126.953 C 244.616 126.953,244.503 127.055,244.628 127.180 C 244.753 127.306,244.211 128.033,243.424 128.798 C 242.636 129.562,242.256 130.045,242.578 129.870 C 242.940 129.675,242.865 129.904,242.383 130.469 C 241.882 131.056,241.812 131.280,242.188 131.092 C 242.510 130.931,242.370 131.155,241.877 131.590 C 241.385 132.024,240.989 132.477,240.998 132.596 C 241.077 133.583,240.960 133.996,240.657 133.809 C 240.460 133.687,240.015 134.424,239.667 135.446 C 239.056 137.242,237.933 139.514,237.904 139.013 C 237.897 138.878,238.165 138.112,238.499 137.310 C 239.649 134.558,238.809 135.555,237.535 138.455 C 236.549 140.699,236.113 141.309,235.611 141.149 C 235.098 140.986,235.074 141.023,235.499 141.326 C 236.119 141.768,235.709 142.724,235.069 142.329 C 234.817 142.173,234.757 142.248,234.922 142.515 C 235.074 142.761,235.000 143.272,234.757 143.649 C 234.426 144.165,234.363 144.182,234.504 143.717 C 234.752 142.897,233.556 142.896,232.909 143.716 C 232.471 144.271,232.445 144.264,232.658 143.652 C 232.823 143.180,232.695 142.969,232.245 142.969 C 231.887 142.969,231.703 143.145,231.836 143.359 C 231.969 143.574,231.891 143.750,231.664 143.750 C 231.113 143.750,231.139 143.236,231.719 142.656 C 232.083 142.292,232.035 142.188,231.500 142.188 C 231.122 142.188,230.922 142.363,231.055 142.578 C 231.187 142.793,230.978 142.971,230.589 142.975 C 229.996 142.980,229.976 143.040,230.464 143.348 C 230.927 143.641,230.877 143.703,230.217 143.653 C 229.395 143.591,229.212 142.757,229.910 142.254 C 230.110 142.110,230.517 141.641,230.815 141.211 C 231.112 140.781,230.710 141.094,229.920 141.906 C 229.075 142.775,228.597 143.579,228.758 143.859 C 228.908 144.121,228.881 144.199,228.696 144.031 C 228.512 143.863,226.898 145.181,225.109 146.960 C 223.321 148.740,221.730 150.195,221.573 150.195 C 221.417 150.195,221.329 150.315,221.378 150.462 C 221.538 150.943,212.013 159.752,211.605 159.500 C 211.386 159.365,211.317 159.432,211.451 159.648 C 211.707 160.062,210.243 161.654,209.570 161.695 C 209.355 161.708,209.180 161.880,209.180 162.078 C 209.180 162.702,204.167 167.544,203.772 167.300 C 203.565 167.172,203.504 167.243,203.637 167.458 C 203.770 167.673,203.347 168.359,202.697 168.981 C 202.047 169.604,200.612 171.301,199.509 172.752 C 198.406 174.203,197.351 175.391,197.166 175.391 C 196.981 175.391,196.924 175.544,197.040 175.732 C 197.156 175.920,196.833 176.524,196.323 177.075 C 195.812 177.626,195.493 178.176,195.614 178.296 C 195.735 178.417,195.628 178.516,195.378 178.516 C 195.127 178.516,194.964 178.647,195.015 178.809 C 195.171 179.303,194.069 181.641,193.680 181.641 C 193.478 181.641,193.422 181.816,193.555 182.031 C 193.687 182.246,193.615 182.422,193.395 182.422 C 193.174 182.422,193.094 182.686,193.218 183.008 C 193.342 183.330,193.238 183.594,192.987 183.594 C 192.737 183.594,192.621 183.738,192.730 183.915 C 192.839 184.091,192.685 184.706,192.386 185.282 C 192.087 185.857,191.942 186.328,192.063 186.328 C 192.184 186.328,192.064 186.592,191.797 186.914 C 191.529 187.236,191.442 187.500,191.602 187.500 C 191.762 187.500,191.680 187.756,191.420 188.069 C 191.161 188.382,191.067 188.829,191.211 189.063 C 191.355 189.296,191.259 189.745,190.998 190.060 C 190.736 190.376,190.531 191.598,190.542 192.778 C 190.552 193.957,190.392 194.922,190.186 194.922 C 189.600 194.922,190.198 208.368,190.829 209.388 C 190.966 209.610,191.152 210.390,191.243 211.123 C 191.334 211.855,191.612 212.947,191.861 213.551 C 192.110 214.155,192.289 214.768,192.259 214.915 C 192.230 215.061,192.498 215.852,192.856 216.673 C 193.214 217.493,193.540 218.296,193.580 218.457 C 193.620 218.618,193.695 218.882,193.747 219.043 C 193.800 219.204,193.822 219.468,193.796 219.629 C 193.771 219.790,193.955 219.922,194.206 219.922 C 194.456 219.922,194.547 220.037,194.406 220.177 C 194.266 220.317,194.498 220.994,194.922 221.680 C 195.346 222.366,195.578 223.042,195.438 223.182 C 195.297 223.323,195.398 223.438,195.661 223.438 C 195.924 223.438,196.031 223.613,195.898 223.828 C 195.766 224.043,195.854 224.219,196.094 224.219 C 196.334 224.219,196.422 224.395,196.289 224.609 C 196.156 224.824,196.263 225.000,196.526 225.000 C 196.790 225.000,196.899 225.107,196.768 225.237 C 196.638 225.367,196.866 225.833,197.276 226.273 C 197.685 226.712,197.928 227.221,197.815 227.403 C 197.702 227.585,197.826 227.734,198.089 227.734 C 198.352 227.734,198.465 227.837,198.340 227.962 C 198.215 228.088,198.455 228.533,198.875 228.953 C 199.295 229.373,199.533 229.885,199.405 230.092 C 199.277 230.299,199.359 230.469,199.586 230.469 C 199.814 230.469,200.000 230.732,200.000 231.055 C 200.000 231.377,200.186 231.641,200.414 231.641 C 200.641 231.641,200.719 231.816,200.586 232.031 C 200.453 232.246,200.541 232.422,200.781 232.422 C 201.021 232.422,201.109 232.598,200.977 232.813 C 200.844 233.027,200.909 233.203,201.122 233.203 C 201.511 233.203,202.176 234.704,202.031 235.254 C 201.988 235.415,202.139 235.547,202.367 235.547 C 202.594 235.547,202.672 235.723,202.539 235.938 C 202.406 236.152,202.503 236.328,202.753 236.328 C 203.004 236.328,203.107 236.592,202.984 236.914 C 202.860 237.236,202.958 237.500,203.202 237.500 C 203.446 237.500,203.530 237.616,203.389 237.757 C 203.247 237.898,203.328 238.250,203.567 238.538 C 203.806 238.827,203.871 239.063,203.711 239.063 C 203.551 239.063,203.639 239.326,203.906 239.648 C 204.174 239.971,204.302 240.234,204.190 240.234 C 204.079 240.234,204.424 241.860,204.956 243.848 C 206.804 250.746,206.669 261.751,204.641 269.727 C 204.203 271.445,203.806 273.066,203.757 273.329 C 203.708 273.591,203.558 273.916,203.424 274.050 C 203.289 274.185,203.273 274.542,203.389 274.843 C 203.505 275.144,203.410 275.391,203.179 275.391 C 202.948 275.391,202.851 275.632,202.964 275.926 C 203.077 276.221,202.905 276.727,202.580 277.052 C 202.256 277.376,202.099 277.750,202.232 277.883 C 202.365 278.016,202.259 278.125,201.995 278.125 C 201.732 278.125,201.618 278.289,201.741 278.489 C 202.015 278.932,200.773 281.641,200.295 281.641 C 200.107 281.641,200.060 281.813,200.190 282.023 C 200.320 282.233,199.358 284.386,198.051 286.808 C 194.151 294.038,190.679 301.016,189.488 304.016 C 188.019 307.717,187.049 311.021,187.517 310.731 C 187.723 310.605,187.891 310.247,187.891 309.938 C 187.891 309.573,188.303 309.375,189.063 309.375 C 189.714 309.375,190.234 309.583,190.234 309.844 C 190.234 310.208,190.339 310.208,190.703 309.844 C 191.379 309.168,192.321 309.251,192.034 309.961 C 191.257 311.880,191.539 311.563,192.983 308.890 C 193.917 307.164,194.793 305.975,195.026 306.119 C 195.259 306.263,195.317 306.183,195.161 305.931 C 194.865 305.451,195.385 304.539,197.991 300.977 C 198.934 299.688,199.873 298.681,200.077 298.740 C 200.281 298.799,200.351 298.690,200.233 298.498 C 200.114 298.305,201.106 296.851,202.438 295.265 C 203.770 293.680,206.030 290.853,207.461 288.983 C 208.891 287.112,210.185 285.706,210.337 285.858 C 210.488 286.009,210.563 285.957,210.502 285.742 C 210.288 284.980,210.990 283.581,211.454 283.846 C 211.707 283.991,211.790 283.972,211.639 283.805 C 211.391 283.529,213.432 278.985,214.015 278.516 C 214.149 278.408,214.275 278.101,214.297 277.832 C 214.415 276.359,214.479 276.142,214.746 276.306 C 214.907 276.405,215.060 275.939,215.085 275.272 C 215.110 274.604,215.311 273.998,215.532 273.924 C 215.752 273.851,215.843 273.448,215.733 273.028 C 215.624 272.609,215.700 272.266,215.902 272.266 C 216.105 272.266,216.194 271.738,216.099 271.094 C 216.004 270.449,216.079 269.922,216.264 269.922 C 216.450 269.922,216.545 267.768,216.475 265.137 C 216.310 258.866,216.250 258.100,215.886 257.520 C 215.717 257.251,215.692 256.848,215.831 256.624 C 215.969 256.399,215.877 255.968,215.625 255.664 C 215.373 255.361,215.273 254.941,215.402 254.732 C 215.532 254.522,215.447 254.233,215.214 254.089 C 214.981 253.945,214.885 253.581,215.000 253.281 C 215.115 252.980,215.032 252.734,214.814 252.734 C 214.597 252.734,214.463 252.515,214.518 252.246 C 214.572 251.978,214.396 251.359,214.126 250.871 C 213.857 250.383,213.742 249.812,213.872 249.601 C 214.002 249.391,213.904 249.219,213.653 249.219 C 213.403 249.219,213.294 248.966,213.413 248.658 C 213.531 248.350,213.454 248.039,213.242 247.969 C 213.030 247.898,212.826 247.447,212.790 246.967 C 212.754 246.487,212.567 246.094,212.375 246.094 C 212.183 246.094,212.123 245.841,212.241 245.533 C 212.359 245.225,212.306 244.917,212.123 244.849 C 211.940 244.782,211.730 244.375,211.657 243.945 C 211.583 243.516,211.294 242.922,211.013 242.625 C 210.732 242.329,210.594 241.846,210.707 241.551 C 210.820 241.257,210.732 241.016,210.512 241.016 C 210.291 241.016,210.210 240.855,210.331 240.658 C 210.452 240.462,210.380 240.242,210.170 240.170 C 209.960 240.098,209.731 239.688,209.660 239.258 C 209.590 238.828,209.315 238.081,209.049 237.598 C 208.784 237.114,208.682 236.719,208.823 236.719 C 208.964 236.719,208.884 236.483,208.645 236.195 C 208.406 235.906,208.326 235.555,208.467 235.413 C 208.608 235.272,208.490 235.156,208.203 235.156 C 207.917 235.156,207.798 235.041,207.939 234.899 C 208.081 234.758,208.001 234.406,207.761 234.118 C 207.522 233.830,207.480 233.591,207.667 233.588 C 207.854 233.584,207.779 233.437,207.500 233.260 C 207.221 233.082,206.964 232.558,206.929 232.094 C 206.894 231.630,206.756 231.250,206.623 231.250 C 206.273 231.250,205.465 228.447,205.704 228.061 C 205.815 227.881,205.701 227.734,205.450 227.734 C 205.200 227.734,205.096 227.471,205.219 227.148 C 205.343 226.826,205.253 226.563,205.020 226.563 C 204.787 226.563,204.688 226.211,204.801 225.781 C 204.913 225.352,204.857 225.000,204.675 225.000 C 204.494 225.000,204.338 224.692,204.330 224.316 C 204.309 223.373,204.067 222.193,203.739 221.427 C 203.587 221.073,203.502 220.546,203.551 220.255 C 203.599 219.964,203.503 219.416,203.338 219.037 C 203.172 218.658,203.128 217.999,203.240 217.573 C 203.351 217.146,203.275 216.694,203.069 216.567 C 202.665 216.317,202.676 208.984,203.081 208.984 C 203.217 208.984,203.343 207.895,203.361 206.563 C 203.379 205.232,203.578 204.081,203.804 204.006 C 204.029 203.930,204.124 203.526,204.015 203.106 C 203.905 202.687,204.006 202.344,204.239 202.344 C 204.472 202.344,204.562 202.080,204.438 201.758 C 204.314 201.436,204.402 201.172,204.633 201.172 C 204.865 201.172,204.968 200.949,204.864 200.677 C 204.616 200.033,207.653 193.750,208.212 193.750 C 208.447 193.750,208.531 193.574,208.398 193.359 C 208.266 193.145,208.354 192.969,208.594 192.969 C 208.834 192.969,208.937 192.818,208.824 192.634 C 208.418 191.978,214.908 183.007,215.419 183.518 C 215.568 183.667,215.633 183.613,215.563 183.398 C 215.380 182.836,216.616 181.199,216.962 181.545 C 217.122 181.705,217.194 181.657,217.122 181.438 C 216.937 180.872,218.583 178.875,218.956 179.212 C 219.126 179.366,219.151 179.292,219.011 179.046 C 218.870 178.800,219.454 177.970,220.317 177.191 C 221.175 176.416,221.776 175.781,221.651 175.781 C 221.527 175.781,222.781 174.292,224.439 172.471 C 226.096 170.651,227.630 169.272,227.849 169.407 C 228.067 169.542,228.128 169.461,227.984 169.228 C 227.840 168.995,227.897 168.696,228.111 168.563 C 228.325 168.431,229.897 166.765,231.604 164.861 C 233.311 162.958,234.823 161.516,234.964 161.657 C 235.106 161.798,235.163 161.735,235.091 161.516 C 234.906 160.950,236.551 158.953,236.925 159.291 C 237.095 159.444,237.133 159.391,237.010 159.173 C 236.722 158.665,238.852 155.779,239.233 156.160 C 239.390 156.317,239.461 156.270,239.391 156.055 C 239.205 155.484,242.020 151.135,242.357 151.472 C 242.515 151.629,242.585 151.582,242.513 151.367 C 242.321 150.791,246.378 142.998,246.714 143.299 C 246.871 143.439,246.879 143.343,246.730 143.084 C 246.581 142.825,246.742 141.946,247.086 141.130 C 249.220 136.085,251.712 117.969,250.273 117.969 C 250.144 117.969,249.986 118.979,249.922 120.215 M189.979 124.121 C 181.889 132.777,178.063 137.307,180.371 135.497 C 180.993 135.010,181.005 135.024,180.511 135.654 C 180.212 136.035,179.876 136.256,179.765 136.146 C 179.497 135.878,178.516 136.710,178.516 137.205 C 178.516 137.423,178.775 137.381,179.102 137.109 C 179.506 136.773,179.688 136.759,179.688 137.062 C 179.688 137.303,179.512 137.522,179.297 137.549 C 179.082 137.576,178.687 137.620,178.420 137.646 C 177.519 137.737,171.890 146.247,169.322 151.401 C 162.654 164.785,162.417 178.181,168.573 193.611 C 170.980 199.641,174.596 207.032,175.137 207.025 C 175.459 207.021,175.464 206.938,175.154 206.732 C 174.716 206.441,173.792 203.964,173.590 202.539 C 173.529 202.109,173.373 201.318,173.242 200.781 C 172.874 199.265,172.676 198.033,172.428 195.703 C 172.303 194.522,172.021 193.340,171.803 193.077 C 171.560 192.784,171.512 191.682,171.679 190.244 C 171.863 188.659,171.815 187.891,171.532 187.891 C 171.237 187.891,171.233 187.575,171.519 186.823 C 171.762 186.183,171.818 184.619,171.659 182.917 C 171.475 180.962,171.525 180.078,171.819 180.078 C 172.081 180.078,172.159 179.644,172.021 178.954 C 171.897 178.335,171.973 177.720,172.190 177.586 C 172.406 177.452,172.491 176.992,172.379 176.562 C 172.266 176.133,172.354 175.781,172.574 175.781 C 172.794 175.781,172.882 175.430,172.769 175.000 C 172.657 174.570,172.756 174.219,172.989 174.219 C 173.222 174.219,173.319 173.973,173.203 173.672 C 173.088 173.372,173.174 173.015,173.394 172.879 C 173.614 172.743,173.704 172.396,173.593 172.108 C 173.483 171.820,173.622 171.343,173.903 171.046 C 174.184 170.750,174.432 170.288,174.453 170.020 C 174.575 168.491,174.642 168.334,175.060 168.592 C 175.331 168.759,175.406 168.700,175.247 168.444 C 174.954 167.969,177.342 162.844,177.742 163.091 C 177.881 163.177,177.995 163.026,177.995 162.757 C 177.995 161.582,185.313 151.655,186.024 151.865 C 186.223 151.924,186.290 151.817,186.173 151.627 C 185.937 151.245,187.858 149.028,195.623 140.723 C 198.757 137.370,200.716 134.977,200.549 134.705 C 200.392 134.452,200.440 134.359,200.657 134.494 C 201.022 134.719,202.497 133.322,204.696 130.667 C 205.429 129.782,205.467 129.663,204.851 130.179 C 204.404 130.554,203.892 130.729,203.714 130.567 C 203.536 130.406,203.493 130.454,203.618 130.675 C 203.743 130.896,203.496 131.511,203.070 132.042 C 202.317 132.981,202.302 132.983,202.541 132.129 C 202.862 130.983,201.396 130.883,200.793 132.009 C 200.444 132.662,200.502 132.746,201.205 132.611 C 201.840 132.489,201.928 132.567,201.601 132.962 C 201.369 133.241,201.258 133.550,201.356 133.648 C 201.647 133.939,199.861 133.753,199.088 133.411 C 198.694 133.237,198.222 132.723,198.039 132.270 C 197.709 131.453,197.706 131.454,197.681 132.324 C 197.658 133.151,197.236 133.368,195.774 133.304 C 195.489 133.291,195.353 133.525,195.469 133.828 C 195.757 134.579,195.608 134.524,194.299 133.399 C 193.675 132.862,192.988 132.425,192.773 132.428 C 192.559 132.431,192.646 132.604,192.969 132.813 C 193.469 133.136,193.455 133.192,192.871 133.197 C 192.495 133.200,192.188 133.360,192.188 133.552 C 192.188 133.744,191.899 134.012,191.546 134.147 C 191.031 134.344,190.995 134.285,191.361 133.844 C 191.716 133.416,191.686 133.244,191.226 133.067 C 190.900 132.943,190.653 132.966,190.676 133.120 C 190.819 134.081,190.603 134.554,190.265 134.020 C 190.073 133.717,190.006 133.234,190.117 132.946 C 190.241 132.623,190.040 132.424,189.593 132.428 C 189.189 132.431,189.040 132.561,189.258 132.721 C 189.740 133.075,189.860 135.156,189.398 135.156 C 189.213 135.156,189.049 135.024,189.033 134.863 C 188.939 133.942,188.691 133.197,188.145 132.187 L 187.531 131.055 187.516 132.096 C 187.507 132.669,187.720 133.227,187.988 133.335 C 188.280 133.453,188.201 133.544,187.793 133.563 C 187.417 133.580,187.109 133.418,187.109 133.203 C 187.109 132.988,186.904 132.813,186.654 132.813 C 186.403 132.813,186.301 132.915,186.426 133.041 C 186.812 133.426,185.466 134.710,184.903 134.494 C 184.613 134.383,184.375 134.124,184.375 133.920 C 184.375 133.715,184.507 133.627,184.668 133.725 C 185.385 134.159,185.932 132.863,185.300 132.230 C 184.955 131.886,184.562 131.724,184.426 131.871 C 184.291 132.018,184.399 132.217,184.668 132.313 C 184.937 132.409,185.156 132.658,185.156 132.868 C 185.156 133.078,184.969 133.133,184.739 132.992 C 184.510 132.850,184.226 133.103,184.108 133.554 C 183.990 134.006,183.754 134.375,183.583 134.375 C 183.201 134.375,183.298 133.600,183.777 132.813 C 184.087 132.304,184.045 132.299,183.464 132.771 C 181.053 134.727,183.935 131.211,191.741 122.674 C 193.321 120.945,194.536 119.531,194.441 119.531 C 194.347 119.531,192.339 121.597,189.979 124.121 M206.421 128.223 L 205.273 129.492 206.543 128.345 C 207.241 127.714,207.813 127.143,207.813 127.075 C 207.813 126.774,207.490 127.039,206.421 128.223 M198.779 131.274 C 198.752 131.476,198.704 131.860,198.672 132.129 C 198.617 132.584,199.523 133.553,200.029 133.581 C 200.662 133.616,200.147 131.009,199.512 130.960 C 199.136 130.932,198.806 131.073,198.779 131.274 M195.911 132.012 C 195.796 132.197,195.371 132.262,194.966 132.156 C 194.560 132.050,194.094 132.181,193.929 132.448 C 193.736 132.761,193.790 132.834,194.080 132.654 C 194.328 132.501,194.531 132.540,194.531 132.741 C 194.531 133.283,196.406 133.182,196.878 132.614 C 197.171 132.260,197.122 132.060,196.702 131.899 C 196.381 131.775,196.025 131.826,195.911 132.012 " stroke="none" fill="#fb8313" fill-rule="evenodd"></path><path id="path3" d="M176.953 124.023 C 176.004 124.990,175.316 125.781,175.423 125.781 C 175.531 125.781,176.395 124.990,177.344 124.023 C 178.293 123.057,178.981 122.266,178.874 122.266 C 178.766 122.266,177.902 123.057,176.953 124.023 M149.741 170.703 C 149.741 172.314,149.810 172.974,149.894 172.168 C 149.978 171.362,149.978 170.044,149.894 169.238 C 149.810 168.433,149.741 169.092,149.741 170.703 " stroke="none" fill="#d99a8e" fill-rule="evenodd"></path><path id="path4" d="M191.974 109.863 L 190.430 111.523 192.090 109.979 C 193.634 108.543,193.930 108.203,193.634 108.203 C 193.570 108.203,192.823 108.950,191.974 109.863 " stroke="none" fill="#ecc5a8" fill-rule="evenodd"></path></g></svg>