<svg xmlns="http://www.w3.org/2000/svg" viewBox="0 0 1000 1000" width="1000" height="1000">
  <!-- 8px Border -->
  <rect x="0" y="0" width="1000" height="1000" fill="none" stroke="#2d2d2d" stroke-width="16"/>
  
  <!-- Background -->
  <rect x="8" y="8" width="984" height="984" fill="#f9f7f4"/>
  
  <!-- Pan shadow -->
  <path d="M150 760 Q400 820 600 800 Q800 780 850 730 L810 760 Q600 830 350 810 Z" fill="#1a1a1a" opacity="0.12"/>
  
  <!-- === PAN INTERIOR/BACK (behind turkey) === -->
  
  <!-- Pan interior floor visible behind turkey -->
  <path d="M160 490 L340 410 L740 410 L870 490 L870 530 L160 530 Z" fill="#6a6a6a"/>
  
  <!-- Interior back wall -->
  <path d="M185 465 L350 395 L730 395 L855 465" fill="none" stroke="#555555" stroke-width="4"/>
  
  <!-- === TURKEY === -->
  
  <!-- Turkey shadow in pan -->
  <ellipse cx="510" cy="520" rx="230" ry="50" fill="#1a1a1a" opacity="0.3"/>
  
  <!-- Turkey body -->
  <path d="M250 490 
           Q175 385 230 285 
           Q295 190 420 165 
           Q550 145 670 180 
           Q780 220 820 320 
           Q860 420 785 510 
           Q710 580 510 590 
           Q310 575 250 490 Z" fill="#c4863a"/>
  
  <!-- Turkey left shading -->
  <path d="M250 490 
           Q175 385 230 285 
           Q265 230 320 210
           Q285 310 305 410
           Q295 470 250 490 Z" fill="#996020"/>
  
  <!-- Turkey highlight -->
  <path d="M420 180 
           Q550 160 650 195 
           Q740 240 780 320 
           Q700 250 550 225 
           Q430 225 420 180 Z" fill="#d8a858"/>
  
  <!-- Turkey texture lines -->
  <g stroke="#7a4818" stroke-width="3" fill="none" stroke-linecap="round">
    <path d="M305 305 Q350 380 325 455"/>
    <path d="M380 265 Q430 350 405 440"/>
    <path d="M460 245 Q510 335 485 430"/>
    <path d="M555 250 Q600 340 575 435"/>
    <path d="M645 280 Q690 365 665 450"/>
    <path d="M720 320 Q755 400 740 475"/>
  </g>
  
  <!-- Turkey spots -->
  <g fill="#4a2808">
    <circle cx="285" cy="350" r="5"/>
    <circle cx="305" cy="290" r="4"/>
    <circle cx="340" cy="400" r="5"/>
    <circle cx="375" cy="330" r="4"/>
    <circle cx="410" cy="460" r="4"/>
    <circle cx="450" cy="290" r="4"/>
    <circle cx="490" cy="370" r="5"/>
    <circle cx="535" cy="310" r="4"/>
    <circle cx="575" cy="395" r="5"/>
    <circle cx="620" cy="330" r="4"/>
    <circle cx="665" cy="385" r="5"/>
    <circle cx="710" cy="435" r="4"/>
    <circle cx="750" cy="380" r="5"/>
    <circle cx="350" cy="470" r="4"/>
  </g>
  
  <!-- Turkey wing (left, visible above rim) -->
  <path d="M210 485 
           Q155 455 160 505 
           Q140 550 200 565 
           Q270 580 325 540 
           Q290 505 255 495 Z" fill="#b57830"/>
  <g stroke="#7a4818" stroke-width="3" fill="none" stroke-linecap="round">
    <path d="M190 495 Q165 520 180 550"/>
    <path d="M235 510 Q215 535 230 560"/>
    <path d="M275 520 Q265 545 280 565"/>
  </g>
  
  <!-- Turkey drumstick -->
  <path d="M720 425 
           Q795 385 870 420 
           Q935 465 905 545 
           Q875 600 805 580 
           Q740 560 720 500 
           Q700 455 720 425 Z" fill="#c4863a"/>
  
  <!-- Drumstick texture -->
  <g stroke="#7a4818" stroke-width="3" fill="none" stroke-linecap="round">
    <path d="M745 440 Q810 415 870 450"/>
    <path d="M750 495 Q810 475 865 510"/>
    <path d="M770 545 Q815 530 855 555"/>
  </g>
  
  <!-- Drumstick spots -->
  <g fill="#4a2808">
    <circle cx="790" cy="465" r="4"/>
    <circle cx="830" cy="500" r="5"/>
    <circle cx="865" cy="470" r="4"/>
    <circle cx="805" cy="540" r="4"/>
  </g>
  
  <!-- Drumstick bone -->
  <ellipse cx="920" cy="475" rx="24" ry="42" fill="#e8dcc8" stroke="#5a3810" stroke-width="3"/>
  <g stroke="#7a5828" stroke-width="2">
    <line x1="907" y1="450" x2="912" y2="500"/>
    <line x1="920" y1="443" x2="920" y2="507"/>
    <line x1="933" y1="450" x2="928" y2="500"/>
  </g>
  
  <!-- Turkey outline -->
  <path d="M250 490 
           Q175 385 230 285 
           Q295 190 420 165 
           Q550 145 670 180 
           Q780 220 820 320 
           Q860 420 785 510" 
        fill="none" stroke="#2a1808" stroke-width="5" stroke-linecap="round"/>
  
  <!-- === PAN FRONT AND SIDES (in front of turkey) === -->
  
  <!-- Pan right side wall (visible due to angle) -->
  <path d="M870 490 L920 540 L890 720 L855 720 L870 540 Z" fill="#7a7a7a"/>
  <line x1="880" y1="580" x2="875" y2="700" stroke="#5a5a5a" stroke-width="2"/>
  
  <!-- Pan front face -->
  <path d="M120 555 L165 730 Q185 770 250 770 L780 770 Q845 770 865 730 L890 720 L920 540 L120 555 Z" fill="#8a8a8a"/>
  
  <!-- Pan front texture lines -->
  <g stroke="#6a6a6a" stroke-width="3" fill="none">
    <line x1="230" y1="590" x2="280" y2="735"/>
    <line x1="320" y1="580" x2="360" y2="725"/>
    <line x1="410" y1="575" x2="440" y2="720"/>
    <line x1="560" y1="575" x2="590" y2="720"/>
    <line x1="650" y1="580" x2="690" y2="725"/>
    <line x1="740" y1="590" x2="800" y2="735"/>
  </g>
  
  <!-- Pan bottom edge -->
  <path d="M165 730 Q150 775 225 780 L795 780 Q870 775 855 730" fill="#5a5a5a" stroke="#454545" stroke-width="2"/>
  
  <!-- Pan rim - top surface visible -->
  <path d="M95 520 
           L350 395 
           L730 395 
           L900 465 
           L920 540 
           L870 540 
           L855 480 
           L720 420 
           L360 420 
           L145 530 Z" fill="#a8a8a8"/>
  
  <!-- Pan rim - front lip -->
  <path d="M95 520 L120 555 L920 540 L900 510 L900 490 L95 490 Z" fill="#959595"/>
  
  <!-- Rim top highlight -->
  <path d="M140 505 L360 410 L720 410 L865 470" fill="none" stroke="#c5c5c5" stroke-width="5"/>
  
  <!-- Rim outline -->
  <path d="M95 520 Q65 490 80 460 Q95 435 140 435 L350 395 L730 395 L880 450 Q920 460 925 490 Q930 520 900 540" 
        fill="none" stroke="#404040" stroke-width="4"/>
  
  <!-- === HANDLES === -->
  
  <!-- Left handle - decorative scroll -->
  <g fill="#707070" stroke="#4a4a4a" stroke-width="3">
    <path d="M95 495 Q55 475 40 505 Q25 535 50 555 Q30 585 60 600 Q95 615 115 585 L130 535 Q120 505 95 495 Z"/>
  </g>
  <ellipse cx="60" cy="530" rx="14" ry="12" fill="none" stroke="#4a4a4a" stroke-width="3"/>
  <ellipse cx="68" cy="580" rx="12" ry="10" fill="none" stroke="#4a4a4a" stroke-width="3"/>
  <path d="M75 495 Q52 510 55 530" fill="none" stroke="#9a9a9a" stroke-width="2"/>
  
  <!-- Right handle - upright loop -->
  <g fill="#707070" stroke="#4a4a4a" stroke-width="3">
    <path d="M905 495 L920 490 L940 355 Q950 305 975 315 Q1000 325 992 375 L968 490 L985 495 L985 525 L905 525 Z"/>
  </g>
  <path d="M942 375 L960 485" fill="none" stroke="#555555" stroke-width="12"/>
  <path d="M945 360 Q955 325 975 335" fill="none" stroke="#9a9a9a" stroke-width="2"/>
  
  <!-- Pan front/side outline -->
  <path d="M120 555 L165 730 Q185 770 250 770 L780 770 Q845 770 865 730 L890 720 L920 540" 
        fill="none" stroke="#404040" stroke-width="4"/>
</svg>
