<svg id="svg" version="1.1" xmlns="http://www.w3.org/2000/svg" xmlns:xlink="http://www.w3.org/1999/xlink" width="200" height="200" viewBox="0, 0, 400,400"><g id="svgg"><path id="path0" d="M300.195 28.883 C 293.092 30.095,292.617 38.181,299.539 40.044 C 303.018 40.981,304.474 41.834,304.611 43.017 C 304.897 45.487,300.890 46.174,296.934 44.332 C 295.785 43.797,294.816 43.359,294.781 43.359 C 294.746 43.359,294.807 44.363,294.917 45.590 L 295.117 47.821 296.875 48.367 C 303.347 50.377,308.573 48.393,308.905 43.798 C 309.192 39.829,308.378 38.915,302.772 36.914 C 299.101 35.604,298.319 34.700,299.546 33.184 C 300.442 32.078,303.712 32.051,305.897 33.132 L 307.422 33.886 307.422 31.802 C 307.422 29.719,307.421 29.717,305.957 29.349 C 303.531 28.738,301.841 28.601,300.195 28.883 M35.156 38.672 L 35.156 48.438 40.833 48.438 C 47.066 48.438,48.507 48.098,49.924 46.297 C 51.823 43.882,51.206 40.406,48.663 39.194 L 47.283 38.536 48.380 37.869 C 50.715 36.448,50.981 32.832,48.903 30.754 C 47.429 29.280,45.706 28.927,39.941 28.916 L 35.156 28.906 35.156 38.672 M53.906 38.672 L 53.906 48.438 55.957 48.438 L 58.008 48.439 57.881 45.118 L 57.755 41.797 59.124 41.797 C 60.394 41.797,60.668 42.038,62.891 45.117 L 65.288 48.438 67.628 48.438 C 70.316 48.438,70.355 48.737,67.117 44.457 C 64.429 40.905,64.534 41.360,66.204 40.461 C 68.654 39.142,69.788 35.477,68.605 32.702 C 67.333 29.718,65.186 28.912,58.496 28.908 L 53.906 28.906 53.906 38.672 M78.505 29.883 C 78.336 30.312,76.511 34.694,74.450 39.619 C 72.389 44.545,70.703 48.588,70.702 48.604 C 70.702 48.620,71.728 48.575,72.982 48.504 L 75.262 48.375 76.074 46.453 L 76.886 44.531 80.794 44.531 L 84.703 44.531 85.352 46.484 L 86.000 48.438 88.313 48.438 C 89.584 48.438,90.625 48.378,90.625 48.306 C 90.625 48.161,84.939 34.158,83.620 31.055 L 82.790 29.102 80.801 29.102 C 79.176 29.102,78.756 29.244,78.505 29.883 M92.969 38.672 L 92.969 48.438 95.104 48.438 L 97.240 48.438 97.350 44.074 L 97.461 39.710 100.977 44.055 L 104.492 48.400 107.392 48.419 L 110.292 48.438 109.513 47.559 C 109.084 47.075,107.128 44.814,105.167 42.534 L 101.601 38.389 105.488 33.824 C 110.090 28.420,109.947 28.904,106.934 28.914 L 104.492 28.922 100.977 33.045 L 97.461 37.169 97.350 33.037 L 97.239 28.906 95.104 28.906 L 92.969 28.906 92.969 38.672 M112.109 38.672 L 112.109 48.438 119.141 48.438 L 126.172 48.438 126.172 46.680 L 126.172 44.922 121.289 44.922 L 116.406 44.922 116.406 42.578 L 116.406 40.234 120.313 40.234 L 124.219 40.234 124.219 38.477 L 124.219 36.719 120.313 36.719 L 116.406 36.719 116.406 34.766 L 116.406 32.813 120.898 32.813 L 125.391 32.813 125.391 30.859 L 125.391 28.906 118.750 28.906 L 112.109 28.906 112.109 38.672 M135.938 38.672 L 135.938 48.438 138.086 48.438 L 140.234 48.438 140.234 44.531 L 140.234 40.625 144.531 40.625 L 148.828 40.625 148.828 44.531 L 148.828 48.438 150.977 48.438 L 153.125 48.438 153.125 38.672 L 153.125 28.906 150.977 28.906 L 148.828 28.906 148.828 33.021 L 148.828 37.136 144.629 37.025 L 140.430 36.914 140.318 32.910 L 140.207 28.906 138.072 28.906 L 135.938 28.906 135.938 38.672 M157.031 38.672 L 157.031 48.438 163.867 48.438 L 170.703 48.438 170.703 46.680 L 170.703 44.922 166.016 44.922 L 161.328 44.922 161.328 42.578 L 161.328 40.234 165.039 40.234 L 168.750 40.234 168.750 38.477 L 168.750 36.719 165.039 36.719 L 161.328 36.719 161.328 34.766 L 161.328 32.813 165.820 32.813 L 170.313 32.813 170.313 30.859 L 170.313 28.906 163.672 28.906 L 157.031 28.906 157.031 38.672 M190.234 30.859 L 190.234 32.813 193.164 32.813 L 196.094 32.813 196.094 40.625 L 196.094 48.438 198.242 48.438 L 200.391 48.438 200.391 40.625 L 200.391 32.813 203.320 32.813 L 206.250 32.813 206.250 30.859 L 206.250 28.906 198.242 28.906 L 190.234 28.906 190.234 30.859 M215.234 30.859 L 215.234 32.813 218.164 32.813 L 221.094 32.813 221.094 40.625 L 221.094 48.438 223.242 48.438 L 225.391 48.438 225.391 40.625 L 225.391 32.813 228.320 32.813 L 231.250 32.813 231.250 30.859 L 231.250 28.906 223.242 28.906 L 215.234 28.906 215.234 30.859 M233.984 38.635 L 233.984 48.438 236.133 48.438 L 238.281 48.438 238.281 45.117 L 238.281 41.797 239.446 41.797 C 240.451 41.797,240.944 42.245,243.059 45.079 L 245.508 48.362 247.950 48.497 C 249.293 48.572,250.392 48.591,250.391 48.540 C 250.391 48.489,249.249 46.907,247.855 45.024 C 244.898 41.033,245.007 41.388,246.479 40.550 C 250.235 38.413,250.190 31.856,246.404 29.812 C 245.387 29.263,243.949 29.087,239.551 28.975 L 233.984 28.833 233.984 38.635 M259.227 29.492 C 259.142 29.707,257.364 33.926,255.276 38.867 C 253.187 43.809,251.408 48.027,251.321 48.242 C 251.221 48.490,252.042 48.561,253.559 48.438 L 255.954 48.242 256.602 46.484 L 257.249 44.727 261.320 44.727 L 265.391 44.727 265.967 46.582 L 266.543 48.438 269.028 48.438 C 271.270 48.438,271.477 48.371,271.153 47.754 C 270.955 47.378,269.177 43.087,267.201 38.218 L 263.608 29.365 261.495 29.234 C 260.322 29.160,259.313 29.275,259.227 29.492 M273.828 38.672 L 273.828 48.438 275.966 48.438 L 278.105 48.438 278.212 42.544 L 278.320 36.650 282.617 42.525 L 286.914 48.400 288.965 48.419 L 291.016 48.438 291.016 38.651 L 291.016 28.865 289.024 28.983 L 287.032 29.102 287.088 35.545 C 287.121 39.251,287.000 41.823,286.803 41.600 C 286.616 41.386,284.461 38.442,282.016 35.059 L 277.570 28.906 275.699 28.906 L 273.828 28.906 273.828 38.672 M312.500 38.672 L 312.500 48.438 314.648 48.438 L 316.797 48.438 316.797 44.531 L 316.797 40.625 320.929 40.625 L 325.061 40.625 324.930 38.826 L 324.799 37.028 320.896 36.971 L 316.992 36.914 316.874 34.863 L 316.756 32.813 321.464 32.813 L 326.172 32.813 326.172 30.859 L 326.172 28.906 319.336 28.906 L 312.500 28.906 312.500 38.672 M328.906 38.672 L 328.906 48.438 335.742 48.438 L 342.578 48.438 342.578 46.680 L 342.578 44.922 337.891 44.922 L 333.203 44.922 333.203 42.578 L 333.203 40.234 336.914 40.234 L 340.625 40.234 340.625 38.477 L 340.625 36.719 336.914 36.719 L 333.203 36.719 333.203 34.766 L 333.203 32.813 337.695 32.813 L 342.188 32.813 342.188 30.859 L 342.188 28.906 335.547 28.906 L 328.906 28.906 328.906 38.672 M346.094 38.672 L 346.094 48.438 348.242 48.438 L 350.391 48.438 350.391 45.117 L 350.391 41.797 351.555 41.797 C 352.563 41.797,353.050 42.242,355.168 45.101 L 357.617 48.405 360.105 48.421 L 362.593 48.438 361.640 47.168 C 361.117 46.470,359.910 44.858,358.959 43.587 C 357.897 42.168,357.410 41.215,357.696 41.119 C 360.548 40.169,362.135 35.853,360.793 32.702 C 359.521 29.718,357.373 28.912,350.684 28.908 L 346.094 28.906 346.094 38.672 M176.648 37.793 C 174.697 42.466,172.916 46.772,172.692 47.363 L 172.285 48.438 174.527 48.438 L 176.770 48.438 177.463 46.484 L 178.157 44.531 182.069 44.531 L 185.981 44.531 186.792 46.484 L 187.604 48.438 189.879 48.438 L 192.153 48.438 191.620 46.973 C 191.009 45.295,186.400 33.931,185.202 31.152 L 184.403 29.297 182.300 29.297 L 180.197 29.297 176.648 37.793 M43.991 32.813 C 45.329 32.813,46.298 34.430,45.672 35.618 C 44.974 36.945,44.587 37.097,41.895 37.103 L 39.453 37.109 39.453 34.713 L 39.453 32.316 41.265 32.564 C 42.262 32.701,43.489 32.813,43.991 32.813 M63.944 33.308 C 66.142 35.506,64.335 37.891,60.472 37.891 L 57.813 37.891 57.813 35.112 L 57.813 32.334 60.546 32.488 C 62.440 32.595,63.483 32.847,63.944 33.308 M244.193 33.561 C 246.140 35.966,244.602 37.891,240.733 37.891 L 238.281 37.891 238.281 35.111 L 238.281 32.331 240.873 32.496 C 242.990 32.631,243.597 32.825,244.193 33.561 M356.302 33.561 C 358.225 35.936,356.660 37.890,352.832 37.892 L 350.195 37.892 350.327 35.114 L 350.458 32.335 353.016 32.498 C 355.099 32.631,355.708 32.828,356.302 33.561 M184.741 40.918 C 184.758 41.261,184.011 41.406,182.227 41.406 C 179.265 41.406,179.343 41.651,180.930 37.293 L 182.173 33.882 183.444 37.156 C 184.144 38.956,184.727 40.649,184.741 40.918 M82.146 37.598 C 83.519 41.690,83.632 41.406,80.622 41.406 C 78.721 41.406,78.089 41.278,78.223 40.918 C 78.323 40.649,78.909 39.067,79.525 37.402 C 80.903 33.679,80.830 33.674,82.146 37.598 M262.725 37.581 C 263.353 39.344,263.926 40.926,263.997 41.096 C 264.140 41.436,259.243 41.535,258.907 41.199 C 258.664 40.956,261.026 34.382,261.358 34.378 C 261.482 34.376,262.097 35.817,262.725 37.581 M45.459 40.674 C 46.488 41.143,47.034 42.490,46.626 43.554 C 46.264 44.496,44.815 44.922,41.967 44.922 L 39.453 44.922 39.453 42.578 L 39.453 40.234 41.974 40.234 C 43.360 40.234,44.929 40.432,45.459 40.674 M250.781 148.072 C 249.376 148.660,247.291 150.772,246.675 152.232 C 245.826 154.245,245.747 187.263,246.587 188.872 C 246.922 189.514,249.091 192.236,251.408 194.922 C 264.248 209.807,269.935 220.959,272.724 236.719 C 273.634 241.861,273.425 256.719,272.369 261.914 C 269.478 276.147,262.482 288.857,250.547 301.563 C 249.437 302.744,248.069 304.395,247.506 305.230 L 246.484 306.750 246.493 323.590 C 246.501 339.147,246.557 340.549,247.225 341.992 C 250.540 349.152,256.977 347.624,273.640 335.726 C 295.620 320.031,302.378 310.167,298.051 300.095 L 297.256 298.242 299.702 295.678 C 304.094 291.074,309.015 281.182,311.881 271.197 C 319.247 245.528,314.148 214.464,299.590 196.320 L 297.003 193.096 298.013 191.177 C 299.562 188.235,299.501 182.418,297.888 179.132 C 293.079 169.338,256.930 145.503,250.781 148.072 M189.258 152.228 C 101.374 158.265,60.719 258.814,121.082 320.839 C 147.637 348.126,188.706 357.636,225.571 345.037 C 234.829 341.873,237.224 340.443,236.486 338.521 C 235.891 336.969,234.927 337.021,230.766 338.824 C 173.147 363.796,106.571 327.263,97.224 265.546 C 86.360 193.810,159.029 137.586,231.348 161.774 C 235.497 163.162,236.445 162.939,236.253 160.619 L 236.133 159.180 231.821 157.730 C 219.625 153.629,202.009 151.352,189.258 152.228 M185.128 188.467 C 150.651 194.066,127.467 225.670,132.755 259.863 C 133.430 264.226,134.028 264.304,135.005 260.157 C 135.411 258.439,135.870 257.033,136.026 257.032 C 136.182 257.032,136.201 255.122,136.067 252.788 C 133.731 211.967,174.215 182.039,214.538 194.777 C 263.792 210.336,269.123 277.912,222.989 301.901 L 219.244 303.849 220.705 305.275 L 222.166 306.702 224.565 305.491 C 250.364 292.468,264.084 262.473,257.031 234.512 C 249.277 203.766,217.241 183.251,185.128 188.467 M192.363 204.456 C 189.829 205.560,187.928 209.129,188.436 211.833 C 189.521 217.620,197.006 219.377,200.584 214.685 C 204.705 209.283,198.632 201.725,192.363 204.456 M161.328 219.188 C 156.141 221.250,155.548 228.804,160.360 231.529 C 165.543 234.464,171.864 229.591,170.319 223.852 C 169.260 219.918,165.022 217.719,161.328 219.188 M224.207 219.629 C 217.789 222.871,220.181 232.443,227.403 232.415 C 233.467 232.393,236.256 224.872,231.773 220.630 C 229.584 218.559,227.002 218.217,224.207 219.629 M189.258 224.934 C 169.435 230.043,162.864 253.943,177.308 268.397 C 193.998 285.097,222.318 272.785,221.399 249.229 C 220.754 232.705,205.079 220.857,189.258 224.934 M199.793 228.715 C 220.262 233.051,223.983 260.185,205.395 269.568 C 194.835 274.899,181.522 270.658,176.035 260.215 C 167.523 244.018,181.921 224.930,199.793 228.715 M231.250 252.000 C 225.909 254.124,225.491 261.949,230.587 264.416 C 237.086 267.562,243.206 260.116,238.988 254.193 C 237.473 252.065,233.745 251.008,231.250 252.000 M154.449 252.697 C 150.144 255.322,150.239 262.369,154.610 264.602 C 161.373 268.057,167.892 260.080,163.029 254.300 C 160.995 251.883,157.006 251.138,154.449 252.697 M139.453 275.461 C 138.701 275.676,138.024 275.912,137.949 275.986 C 137.874 276.060,138.721 277.858,139.832 279.982 C 144.020 287.991,153.367 298.699,155.775 298.247 C 159.357 297.575,159.371 297.630,154.355 292.629 C 149.586 287.875,146.314 283.586,143.359 278.217 C 142.393 276.460,141.426 275.034,141.211 275.047 C 140.996 275.060,140.205 275.246,139.453 275.461 M209.570 278.679 C 207.166 279.752,205.469 282.351,205.469 284.961 C 205.469 291.126,213.092 294.130,217.238 289.599 C 222.038 284.354,216.029 275.796,209.570 278.679 M176.367 279.069 C 171.264 281.347,170.901 288.715,175.766 291.288 C 179.437 293.230,183.799 291.741,185.400 288.001 C 187.777 282.445,181.876 276.610,176.367 279.069 M170.410 304.925 C 169.054 307.054,168.605 306.683,175.391 309.035 C 182.634 311.545,191.070 312.760,198.402 312.349 C 205.800 311.934,205.657 311.984,206.334 309.550 L 206.915 307.465 205.704 307.736 C 199.026 309.233,182.198 307.707,174.983 304.950 C 173.596 304.419,172.197 303.887,171.875 303.766 C 171.494 303.623,170.982 304.027,170.410 304.925 " stroke="none" fill="#262f37" fill-rule="evenodd"></path><path id="path1" d="M0.000 200.000 L 0.000 400.000 200.000 400.000 L 400.000 400.000 400.000 200.000 L 400.000 0.000 200.000 0.000 L 0.000 0.000 0.000 200.000 M306.543 29.316 C 307.658 29.710,308.681 33.984,307.660 33.984 C 307.576 33.984,306.741 33.637,305.804 33.212 C 302.703 31.804,299.219 32.319,299.219 34.184 C 299.219 35.384,300.245 36.067,303.600 37.104 C 307.972 38.454,309.757 40.721,309.173 44.180 C 308.425 48.608,302.538 50.500,296.289 48.321 L 294.727 47.776 294.610 45.372 C 294.487 42.830,294.639 42.592,295.744 43.592 C 297.509 45.189,302.204 45.836,303.819 44.704 C 305.838 43.290,304.577 41.466,300.977 40.593 C 295.537 39.274,293.390 36.266,295.063 32.312 C 296.464 29.002,301.746 27.624,306.543 29.316 M48.164 29.843 C 51.211 31.908,50.879 38.222,47.719 38.297 C 47.359 38.305,47.591 38.542,48.242 38.829 C 52.080 40.523,52.106 45.768,48.286 47.746 C 46.920 48.453,45.817 48.604,40.918 48.751 L 35.156 48.925 35.156 38.880 L 35.156 28.836 41.113 28.969 C 46.178 29.082,47.234 29.213,48.164 29.843 M66.002 29.785 C 69.986 31.828,70.265 38.002,66.482 40.430 C 64.888 41.452,64.845 41.293,67.773 45.132 C 70.848 49.162,70.841 48.891,67.871 48.749 L 65.430 48.633 62.959 45.313 C 60.965 42.633,60.268 41.969,59.346 41.870 L 58.203 41.747 58.203 45.307 L 58.203 48.867 55.957 48.750 L 53.711 48.633 53.607 38.770 L 53.502 28.906 58.895 28.906 C 63.719 28.906,64.468 28.999,66.002 29.785 M86.987 38.867 C 89.198 44.238,91.009 48.677,91.011 48.730 C 91.014 48.784,89.914 48.828,88.568 48.828 L 86.121 48.828 85.427 46.875 L 84.733 44.922 80.679 44.922 L 76.625 44.922 75.977 46.875 L 75.328 48.828 73.015 48.828 C 71.744 48.828,70.703 48.711,70.703 48.567 C 70.703 48.282,77.999 30.708,78.590 29.570 C 78.883 29.005,79.349 28.890,80.961 28.984 L 82.968 29.102 86.987 38.867 M97.585 32.813 C 97.517 34.962,97.549 36.710,97.656 36.696 C 97.764 36.683,99.323 34.925,101.122 32.789 L 104.392 28.906 106.884 28.906 C 109.999 28.906,110.058 28.670,105.654 33.789 C 101.195 38.973,101.145 37.784,106.055 43.378 C 110.920 48.921,110.896 48.828,107.466 48.828 L 104.776 48.828 101.155 44.336 C 99.164 41.865,97.518 39.844,97.498 39.843 C 97.477 39.843,97.461 41.821,97.461 44.238 L 97.461 48.633 95.215 48.750 L 92.969 48.867 92.969 38.887 L 92.969 28.906 95.338 28.906 L 97.708 28.906 97.585 32.813 M125.391 30.859 L 125.391 32.813 121.094 32.813 L 116.797 32.813 116.797 34.766 L 116.797 36.719 120.508 36.719 L 124.219 36.719 124.219 38.477 L 124.219 40.234 120.508 40.234 L 116.797 40.234 116.797 42.578 L 116.797 44.922 121.484 44.922 L 126.172 44.922 126.172 46.875 L 126.172 48.828 119.141 48.828 L 112.109 48.828 112.109 38.867 L 112.109 28.906 118.750 28.906 L 125.391 28.906 125.391 30.859 M140.625 32.813 L 140.625 36.719 144.727 36.719 L 148.828 36.719 148.828 32.813 L 148.828 28.906 150.977 28.906 L 153.125 28.906 153.125 38.867 L 153.125 48.828 150.977 48.828 L 148.828 48.828 148.828 44.727 L 148.828 40.625 144.740 40.625 L 140.652 40.625 140.541 44.629 L 140.430 48.633 138.184 48.750 L 135.938 48.867 135.938 38.887 L 135.938 28.906 138.281 28.906 L 140.625 28.906 140.625 32.813 M170.313 30.859 L 170.313 32.813 165.820 32.813 L 161.328 32.813 161.328 34.766 L 161.328 36.719 165.039 36.719 L 168.750 36.719 168.750 38.477 L 168.750 40.234 165.039 40.234 L 161.328 40.234 161.328 42.578 L 161.328 44.922 166.124 44.922 L 170.920 44.922 170.909 46.777 L 170.898 48.633 163.867 48.633 L 156.836 48.633 156.732 38.770 L 156.627 28.906 163.470 28.906 L 170.313 28.906 170.313 30.859 M184.990 30.371 C 187.118 35.358,192.188 48.063,192.188 48.411 C 192.188 48.660,191.256 48.828,189.883 48.828 L 187.578 48.828 186.872 46.863 L 186.165 44.897 182.099 45.007 L 178.033 45.117 177.386 46.875 L 176.739 48.633 174.502 48.750 C 171.708 48.896,171.641 49.495,175.420 40.509 C 177.155 36.383,178.938 32.085,179.381 30.957 L 180.187 28.906 182.276 28.906 C 184.318 28.906,184.378 28.939,184.990 30.371 M206.250 30.859 L 206.250 32.813 203.320 32.813 L 200.391 32.813 200.391 40.840 L 200.391 48.867 198.145 48.750 L 195.898 48.633 195.826 40.820 L 195.753 33.008 192.994 32.893 L 190.234 32.778 190.234 30.842 L 190.234 28.906 198.242 28.906 L 206.250 28.906 206.250 30.859 M231.250 30.859 L 231.250 32.813 228.320 32.813 L 225.391 32.813 225.391 40.840 L 225.391 48.867 223.145 48.750 L 220.898 48.633 220.834 40.820 L 220.769 33.008 218.002 32.893 L 215.234 32.778 215.234 30.842 L 215.234 28.906 223.242 28.906 L 231.250 28.906 231.250 30.859 M245.845 29.445 C 250.573 31.420,250.434 39.465,245.643 41.105 C 245.284 41.229,245.902 42.314,247.594 44.532 C 250.952 48.932,250.939 48.828,248.128 48.828 L 245.782 48.828 243.164 45.313 C 240.918 42.296,240.386 41.797,239.414 41.797 L 238.281 41.797 238.281 45.313 L 238.281 48.828 236.133 48.828 L 233.984 48.828 233.984 38.867 L 233.984 28.906 239.270 28.906 C 242.879 28.906,244.965 29.077,245.845 29.445 M264.369 30.957 C 264.812 32.085,266.594 36.491,268.329 40.749 C 270.065 45.006,271.484 48.574,271.484 48.677 C 271.484 48.781,270.408 48.813,269.092 48.749 L 266.700 48.633 266.015 46.875 L 265.330 45.117 261.277 45.007 L 257.223 44.897 256.525 46.863 L 255.827 48.828 253.500 48.828 C 252.219 48.828,251.172 48.743,251.172 48.638 C 251.172 48.411,255.201 38.664,257.229 33.984 C 258.020 32.158,258.823 30.269,259.012 29.785 C 259.309 29.025,259.640 28.906,261.460 28.906 L 263.563 28.906 264.369 30.957 M281.293 33.887 C 283.286 36.626,285.322 39.463,285.818 40.191 L 286.719 41.515 286.719 35.211 L 286.719 28.906 289.069 28.906 L 291.420 28.906 291.315 38.770 L 291.211 48.633 289.225 48.749 L 287.238 48.864 282.682 42.702 L 278.125 36.539 278.125 42.684 L 278.125 48.828 275.977 48.828 L 273.828 48.828 273.828 38.867 L 273.828 28.906 275.749 28.906 L 277.669 28.906 281.293 33.887 M326.172 30.859 L 326.172 32.813 321.717 32.813 L 317.263 32.813 317.128 34.766 L 316.992 36.719 320.996 36.719 L 325.000 36.719 325.000 38.672 L 325.000 40.625 321.107 40.625 L 317.215 40.625 317.104 44.629 L 316.992 48.633 314.746 48.750 L 312.500 48.867 312.500 38.887 L 312.500 28.906 319.336 28.906 L 326.172 28.906 326.172 30.859 M342.188 30.859 L 342.188 32.813 337.793 32.812 L 333.398 32.812 333.534 34.765 L 333.669 36.719 337.147 36.719 L 340.625 36.719 340.625 38.462 L 340.625 40.205 337.056 40.317 L 333.488 40.430 333.488 42.578 L 333.488 44.727 338.249 44.836 L 343.011 44.946 342.892 46.790 L 342.773 48.633 335.840 48.739 L 328.906 48.846 328.906 38.876 L 328.906 28.906 335.547 28.906 L 342.188 28.906 342.188 30.859 M358.550 29.883 C 362.205 32.041,362.299 38.239,358.710 40.486 C 358.109 40.862,357.556 41.211,357.481 41.261 C 357.373 41.334,359.754 44.619,362.611 48.340 C 362.902 48.719,362.416 48.828,360.439 48.828 L 357.891 48.828 355.273 45.313 C 353.027 42.296,352.495 41.797,351.523 41.797 L 350.391 41.797 350.391 45.332 L 350.391 48.867 348.145 48.750 L 345.898 48.633 345.794 38.734 L 345.690 28.834 351.458 28.968 C 356.372 29.082,357.423 29.217,358.550 29.883 M58.203 35.156 L 58.203 37.891 60.460 37.891 C 63.287 37.891,64.455 37.169,64.447 35.427 C 64.437 33.268,63.166 32.422,59.936 32.422 L 58.203 32.422 58.203 35.156 M238.281 35.147 L 238.281 37.979 241.058 37.822 C 246.657 37.505,246.525 32.977,240.903 32.525 L 238.281 32.315 238.281 35.147 M350.391 35.156 L 350.391 37.891 352.752 37.891 C 356.075 37.891,357.532 36.525,356.659 34.229 C 356.247 33.143,354.342 32.428,351.855 32.424 L 350.391 32.422 350.391 35.156 M39.453 34.961 L 39.453 37.109 41.504 37.104 C 44.096 37.096,45.471 36.428,45.627 35.099 C 45.821 33.440,44.815 32.813,41.964 32.813 L 39.453 32.813 39.453 34.961 M79.453 37.723 L 78.243 41.016 80.765 41.016 C 82.620 41.016,83.238 40.887,83.103 40.527 C 83.002 40.259,82.515 38.896,82.021 37.500 C 80.791 34.020,80.816 34.018,79.453 37.723 M181.140 36.997 C 180.594 38.455,180.026 39.956,179.876 40.332 C 179.633 40.941,179.883 41.016,182.175 41.016 L 184.746 41.016 183.561 37.803 C 182.910 36.036,182.322 34.535,182.255 34.468 C 182.188 34.401,181.686 35.539,181.140 36.997 M261.111 34.961 C 260.952 35.391,260.408 36.783,259.903 38.056 C 258.689 41.113,258.642 41.016,261.328 41.016 C 262.617 41.016,263.667 40.884,263.661 40.723 C 263.613 39.370,261.361 34.284,261.111 34.961 M39.453 42.527 L 39.453 44.922 41.895 44.916 C 48.079 44.902,48.511 40.713,42.369 40.319 L 39.453 40.132 39.453 42.527 M88.477 70.201 C 90.840 71.710,95.059 74.392,97.852 76.161 C 100.645 77.930,104.847 80.721,107.190 82.362 L 111.449 85.346 106.408 87.771 C 103.636 89.105,101.226 90.252,101.054 90.320 C 99.674 90.864,111.077 110.572,115.535 115.347 C 126.999 127.625,131.905 135.928,134.395 147.266 C 135.244 151.131,135.578 150.577,130.525 153.669 C 126.332 156.235,126.634 156.295,125.723 152.709 C 123.651 144.547,117.745 134.438,110.629 126.869 C 103.752 119.554,99.735 113.602,94.651 103.198 C 92.624 99.049,90.845 95.715,90.698 95.788 C 87.320 97.467,81.881 99.980,81.800 99.899 C 81.720 99.819,82.308 67.247,82.405 66.459 C 82.414 66.381,82.817 66.573,83.301 66.886 C 83.784 67.200,86.113 68.691,88.477 70.201 M142.971 73.108 C 155.521 81.150,161.435 85.219,161.046 85.545 C 160.879 85.685,158.498 86.833,155.756 88.097 C 153.013 89.360,150.822 90.490,150.887 90.607 C 150.951 90.724,152.694 94.248,154.759 98.438 C 159.247 107.542,161.389 110.904,165.484 115.271 C 171.943 122.158,176.340 128.230,179.071 134.036 C 180.837 137.789,182.201 141.794,181.717 141.801 C 181.568 141.803,179.477 142.399,177.071 143.124 L 172.696 144.444 170.502 140.437 C 167.940 135.757,164.157 130.637,159.299 125.278 C 152.688 117.983,149.531 113.157,144.244 102.259 L 141.076 95.729 136.583 97.864 C 134.112 99.039,131.991 100.000,131.869 100.000 C 131.637 100.000,131.896 82.491,132.279 72.366 C 132.403 69.090,132.617 66.481,132.756 66.567 C 132.894 66.653,137.491 69.597,142.971 73.108 M193.231 73.325 C 199.210 77.130,205.717 81.412,207.691 82.841 L 211.281 85.438 206.324 87.712 C 203.598 88.963,201.228 90.103,201.057 90.245 C 199.788 91.301,210.565 109.951,215.610 115.430 C 224.302 124.868,229.396 133.248,231.469 141.518 C 231.834 142.976,232.056 144.246,231.961 144.341 C 231.824 144.478,226.123 143.571,222.065 142.766 C 221.551 142.664,220.554 141.329,219.184 138.907 C 216.764 134.631,212.349 128.742,207.604 123.460 C 202.151 117.390,198.762 112.046,193.964 101.953 C 192.483 98.838,191.156 96.152,191.015 95.985 C 190.874 95.818,188.751 96.649,186.297 97.833 L 181.836 99.986 181.707 96.575 C 181.570 92.950,182.040 66.406,182.241 66.406 C 182.306 66.406,187.252 69.520,193.231 73.325 M255.469 94.336 L 255.469 97.266 258.398 97.266 L 261.328 97.266 261.328 94.336 L 261.328 91.406 262.891 91.406 L 264.453 91.406 264.453 98.438 L 264.453 105.469 262.891 105.469 L 261.328 105.469 261.328 102.539 L 261.328 99.609 258.398 99.609 L 255.469 99.609 255.469 102.539 L 255.469 105.469 253.906 105.469 L 252.344 105.469 252.344 98.438 L 252.344 91.406 253.906 91.406 L 255.469 91.406 255.469 94.336 M276.953 92.773 L 276.953 94.141 273.633 94.141 L 270.313 94.141 270.313 95.508 L 270.313 96.875 273.242 96.875 L 276.172 96.875 276.172 98.242 L 276.172 99.609 273.242 99.609 L 270.313 99.609 270.313 101.172 L 270.313 102.734 273.828 102.734 L 277.344 102.734 277.344 104.102 L 277.344 105.469 272.266 105.469 L 267.188 105.469 267.188 98.438 L 267.188 91.406 272.070 91.406 L 276.953 91.406 276.953 92.773 M289.908 98.457 L 292.888 105.508 291.086 105.391 C 289.425 105.283,289.255 105.174,288.921 104.004 L 288.559 102.734 285.521 102.734 L 282.482 102.734 282.031 104.102 C 281.615 105.363,281.459 105.469,280.006 105.469 C 278.672 105.469,278.470 105.365,278.683 104.785 C 278.822 104.409,280.095 101.245,281.514 97.754 L 284.093 91.406 285.511 91.406 L 286.929 91.406 289.908 98.457 M303.125 92.773 L 303.125 94.141 300.977 94.141 L 298.828 94.141 298.828 99.805 L 298.828 105.469 297.266 105.469 L 295.703 105.469 295.703 99.805 L 295.703 94.141 293.750 94.141 L 291.797 94.141 291.797 92.773 L 291.797 91.406 297.461 91.406 L 303.125 91.406 303.125 92.773 M284.475 97.724 C 283.992 99.050,283.641 100.161,283.693 100.194 C 283.746 100.226,284.593 100.181,285.575 100.093 L 287.361 99.932 286.552 97.622 C 285.553 94.772,285.548 94.772,284.475 97.724 M260.254 112.679 C 261.666 112.917,261.719 112.984,261.719 114.513 C 261.719 115.873,261.621 116.058,261.035 115.810 C 258.622 114.790,257.004 114.698,256.167 115.534 C 255.036 116.665,255.630 117.308,258.773 118.354 C 262.331 119.538,263.603 121.551,262.541 124.316 C 261.155 127.927,253.201 127.899,252.708 124.282 C 252.586 123.388,252.523 122.656,252.568 122.656 C 252.612 122.656,253.415 123.004,254.352 123.429 C 256.429 124.371,258.324 124.433,259.171 123.585 C 260.274 122.483,259.699 121.732,257.027 120.779 C 252.975 119.335,251.615 117.387,252.909 114.884 C 253.740 113.277,256.445 111.964,258.203 112.315 C 258.525 112.379,259.448 112.543,260.254 112.679 M273.501 113.125 C 274.214 113.566,273.876 116.119,273.145 115.820 C 271.132 114.997,269.756 114.794,268.885 115.191 C 267.610 115.772,267.695 117.091,269.043 117.648 C 274.889 120.064,275.791 121.179,274.466 124.349 C 272.952 127.975,264.844 127.865,264.844 124.219 C 264.844 122.645,264.848 122.641,265.771 123.246 C 267.190 124.176,270.415 124.451,271.041 123.696 C 272.173 122.332,271.545 121.662,267.788 120.226 C 261.656 117.882,265.047 111.171,271.646 112.594 C 272.486 112.775,273.321 113.014,273.501 113.125 M336.211 112.942 C 338.888 113.770,340.915 117.412,340.477 120.607 C 339.248 129.568,325.781 128.764,325.781 119.730 C 325.781 113.989,330.231 111.093,336.211 112.942 M280.469 119.768 L 280.469 126.563 278.906 126.563 L 277.344 126.563 277.344 119.619 L 277.344 112.675 278.906 112.824 L 280.469 112.973 280.469 119.768 M241.398 113.770 C 244.046 115.122,244.727 116.327,244.727 119.658 C 244.727 124.653,242.676 126.267,236.035 126.496 L 232.031 126.634 232.031 119.762 L 232.031 112.891 235.855 112.891 C 239.050 112.891,239.961 113.035,241.398 113.770 M250.000 119.727 L 250.000 126.563 248.438 126.563 L 246.875 126.563 246.875 119.727 L 246.875 112.891 248.438 112.891 L 250.000 112.891 250.000 119.727 M292.813 114.219 C 295.996 117.402,293.980 121.531,289.108 121.806 L 286.328 121.963 286.328 124.263 L 286.328 126.563 284.766 126.563 L 283.203 126.563 283.203 119.727 L 283.203 112.891 287.344 112.891 L 291.484 112.891 292.813 114.219 M303.577 115.625 C 304.157 117.021,305.425 120.054,306.394 122.363 L 308.155 126.563 306.459 126.563 C 304.927 126.563,304.725 126.450,304.355 125.391 C 303.948 124.221,303.941 124.219,300.840 124.219 C 297.739 124.219,297.732 124.221,297.324 125.391 C 296.961 126.432,296.740 126.563,295.339 126.563 L 293.763 126.563 294.440 124.897 C 294.813 123.981,296.080 120.897,297.258 118.043 L 299.398 112.854 300.960 112.970 C 302.484 113.083,302.547 113.147,303.577 115.625 M318.359 114.258 L 318.359 115.625 316.211 115.625 L 314.063 115.625 314.063 121.094 L 314.063 126.563 312.500 126.563 L 310.938 126.563 310.938 121.094 L 310.938 115.625 308.984 115.625 L 307.031 115.625 307.031 114.258 L 307.031 112.891 312.695 112.891 L 318.359 112.891 318.359 114.258 M323.438 119.727 L 323.438 126.563 321.875 126.563 L 320.313 126.563 320.313 119.727 L 320.313 112.891 321.875 112.891 L 323.438 112.891 323.438 119.727 M348.633 117.246 L 351.758 121.572 351.868 117.231 L 351.979 112.891 353.528 112.891 L 355.078 112.891 355.078 119.727 L 355.078 126.563 353.591 126.563 C 352.151 126.563,352.005 126.427,348.904 122.227 L 345.703 117.891 345.703 122.227 L 345.703 126.563 344.141 126.563 L 342.578 126.563 342.578 119.727 L 342.578 112.891 344.043 112.905 C 345.455 112.919,345.621 113.076,348.633 117.246 M286.328 117.383 L 286.328 119.531 287.804 119.531 C 289.618 119.531,291.016 118.613,291.016 117.421 C 291.016 116.086,289.824 115.234,287.958 115.234 L 286.328 115.234 286.328 117.383 M330.902 115.779 C 328.354 117.192,328.209 121.669,330.659 123.275 C 334.434 125.748,338.591 121.647,336.643 117.372 C 335.776 115.469,332.901 114.672,330.902 115.779 M235.156 119.727 L 235.156 123.828 237.148 123.828 C 238.893 123.828,239.306 123.663,240.469 122.500 C 243.445 119.524,241.441 115.625,236.933 115.625 L 235.156 115.625 235.156 119.727 M299.937 118.790 L 298.980 121.289 300.704 121.410 C 302.928 121.566,302.900 121.631,301.819 118.753 L 300.893 116.292 299.937 118.790 M258.474 149.572 C 274.331 157.147,294.811 172.383,297.984 178.963 C 299.901 182.941,299.864 188.022,297.892 191.611 C 297.041 193.160,297.040 193.195,297.774 193.955 C 305.975 202.439,313.079 219.967,314.822 236.020 C 317.243 258.312,310.234 285.495,299.298 296.219 L 297.379 298.102 298.301 300.386 C 300.132 304.919,299.799 309.913,297.391 314.021 C 291.818 323.532,261.068 346.484,253.900 346.484 C 246.966 346.484,246.094 343.964,246.094 323.939 C 246.094 305.489,245.830 306.749,250.871 301.074 C 266.586 283.382,272.611 269.984,273.312 251.172 C 274.103 229.944,267.863 214.130,250.967 194.531 C 245.181 187.820,245.644 190.000,245.782 170.150 L 245.898 153.258 247.084 151.341 C 249.617 147.245,252.625 146.778,258.474 149.572 M204.959 152.373 C 213.849 153.120,223.974 155.083,232.298 157.674 C 236.028 158.836,237.038 159.684,236.497 161.202 C 235.838 163.052,235.185 163.127,231.200 161.818 C 159.573 138.275,88.349 192.130,97.038 263.262 C 104.715 326.120,172.710 364.239,231.246 338.502 C 235.274 336.731,236.719 336.930,236.719 339.258 C 236.719 342.272,219.263 348.109,205.078 349.837 C 119.027 360.319,61.268 266.022,110.453 195.354 C 131.165 165.597,167.210 149.203,204.959 152.373 M205.859 188.527 C 264.710 197.488,278.480 274.868,226.503 304.526 L 222.312 306.918 223.853 308.423 C 225.600 310.128,225.531 310.233,222.220 310.912 L 220.027 311.362 219.770 314.189 C 219.174 320.766,217.038 326.899,213.494 332.207 C 209.601 338.035,208.103 338.765,198.877 339.330 L 194.752 339.582 197.474 337.236 C 204.315 331.338,208.102 325.603,209.782 318.599 C 210.916 313.866,211.020 314.045,207.751 315.111 C 204.423 316.196,204.479 316.227,205.226 313.709 L 205.818 311.716 204.179 312.010 C 195.389 313.588,177.774 311.133,170.486 307.315 L 169.346 306.717 167.522 309.218 L 165.698 311.720 164.803 308.008 C 164.311 305.967,163.775 304.297,163.612 304.297 C 162.739 304.297,154.671 308.137,147.751 311.845 C 140.807 315.568,139.778 316.012,139.155 315.556 C 135.361 312.787,133.227 310.750,133.684 310.336 C 134.943 309.196,146.442 302.516,150.331 300.665 L 154.672 298.599 151.527 295.491 C 146.199 290.226,141.767 284.270,138.838 278.440 C 138.265 277.300,137.748 276.312,137.688 276.244 C 137.628 276.176,136.312 276.659,134.764 277.318 C 131.307 278.789,131.529 278.809,131.785 277.051 C 131.903 276.245,132.114 274.635,132.255 273.474 L 132.512 271.361 125.338 271.604 C 119.050 271.817,116.686 272.075,110.087 273.270 L 108.650 273.531 107.454 269.704 C 106.055 265.226,105.836 265.712,109.648 264.830 C 115.269 263.530,119.292 263.111,126.298 263.099 L 133.260 263.086 133.069 262.109 C 129.869 245.785,133.590 227.845,142.870 214.864 C 157.625 194.224,180.490 184.664,205.859 188.527 M194.336 203.317 C 194.121 203.389,193.475 203.551,192.901 203.677 C 187.466 204.871,186.211 213.468,191.008 216.643 C 197.376 220.857,205.221 213.868,201.639 207.173 C 200.377 204.816,196.298 202.662,194.336 203.317 M198.501 204.525 C 202.990 206.846,203.106 214.001,198.697 216.585 C 192.712 220.092,185.896 213.628,189.054 207.439 C 190.782 204.052,195.044 202.737,198.501 204.525 M160.335 219.087 C 155.328 222.140,155.092 229.054,159.901 231.795 C 167.509 236.131,174.895 226.856,168.997 220.373 C 167.070 218.255,162.751 217.614,160.335 219.087 M224.023 219.010 C 219.168 221.576,218.490 228.164,222.750 231.387 C 229.818 236.734,238.539 227.480,232.700 220.830 C 230.576 218.411,226.697 217.597,224.023 219.010 M167.066 219.397 C 168.904 220.269,170.384 222.601,170.613 224.984 C 171.259 231.707,162.807 235.246,158.455 230.074 C 153.639 224.351,160.245 216.160,167.066 219.397 M231.399 220.055 C 236.727 224.119,233.973 232.512,227.312 232.512 C 220.302 232.512,217.777 223.147,223.817 219.545 C 225.848 218.334,229.461 218.577,231.399 220.055 M191.920 223.831 C 181.175 225.402,171.181 234.474,169.759 243.946 C 169.585 245.109,169.706 244.909,170.232 243.164 C 174.314 229.625,188.287 221.467,201.755 224.760 C 204.455 225.420,205.215 225.279,202.676 224.589 C 198.936 223.572,195.396 223.323,191.920 223.831 M207.617 227.008 C 213.525 230.132,218.511 236.048,220.557 242.362 C 221.048 243.878,221.457 244.844,221.467 244.509 C 221.632 238.766,211.913 227.283,205.469 225.609 C 204.932 225.469,205.898 226.099,207.617 227.008 M192.151 228.522 C 174.217 231.319,167.344 253.498,180.577 265.876 C 194.374 278.781,217.363 269.098,217.343 250.391 C 217.328 236.840,205.371 226.461,192.151 228.522 M221.575 246.484 C 221.575 247.236,221.655 247.544,221.754 247.168 C 221.852 246.792,221.852 246.177,221.754 245.801 C 221.655 245.425,221.575 245.732,221.575 246.484 M169.231 246.875 C 169.231 247.627,169.312 247.935,169.410 247.559 C 169.508 247.183,169.508 246.567,169.410 246.191 C 169.312 245.815,169.231 246.123,169.231 246.875 M221.992 250.000 C 221.992 251.182,222.065 251.665,222.155 251.074 C 222.244 250.483,222.244 249.517,222.155 248.926 C 222.065 248.335,221.992 248.818,221.992 250.000 M154.651 252.081 C 149.695 254.698,149.161 261.254,153.640 264.499 C 154.496 265.118,155.380 265.625,155.606 265.625 C 155.831 265.625,155.294 265.157,154.411 264.584 C 148.919 261.023,150.518 252.747,156.894 251.733 C 159.782 251.274,163.026 252.966,164.064 255.473 C 164.336 256.129,164.635 256.588,164.730 256.494 C 165.012 256.212,163.813 254.164,162.825 253.241 C 160.528 251.097,157.366 250.648,154.651 252.081 M230.657 251.716 C 229.382 252.272,226.952 254.808,226.955 255.580 C 226.955 255.841,227.290 255.508,227.697 254.839 C 230.987 249.444,239.297 251.049,240.471 257.308 C 241.031 260.292,238.786 263.962,235.742 265.038 C 234.883 265.342,234.496 265.598,234.883 265.608 C 236.571 265.649,239.798 262.943,240.601 260.814 C 242.774 255.052,236.395 249.216,230.657 251.716 M164.942 258.398 C 164.947 259.258,165.027 259.563,165.120 259.077 C 165.213 258.592,165.210 257.888,165.112 257.515 C 165.014 257.142,164.938 257.539,164.942 258.398 M157.329 265.901 C 157.815 265.995,158.518 265.991,158.891 265.893 C 159.265 265.796,158.867 265.719,158.008 265.724 C 157.148 265.728,156.843 265.808,157.329 265.901 M146.468 268.066 C 148.087 269.791,148.438 270.101,148.438 269.808 C 148.438 269.745,147.603 268.910,146.582 267.952 L 144.727 266.211 146.468 268.066 M67.578 327.930 L 67.578 330.859 70.801 330.860 L 74.023 330.861 73.895 327.931 L 73.766 325.000 75.555 325.000 L 77.344 325.000 77.344 332.255 L 77.344 339.511 75.684 339.373 L 74.023 339.235 73.909 336.414 L 73.794 333.594 70.686 333.594 L 67.578 333.594 67.578 336.523 L 67.578 339.453 66.016 339.453 L 64.453 339.453 64.453 332.227 L 64.453 325.000 66.016 325.000 L 67.578 325.000 67.578 327.930 M89.453 326.367 L 89.453 327.734 86.328 327.734 L 83.203 327.734 83.203 329.102 L 83.203 330.469 85.938 330.469 L 88.672 330.469 88.672 331.836 L 88.672 333.203 85.938 333.203 L 83.203 333.203 83.203 334.766 L 83.203 336.328 86.742 336.328 L 90.282 336.328 90.160 337.793 L 90.039 339.258 85.059 339.326 L 80.078 339.395 80.078 332.197 L 80.078 325.000 84.766 325.000 L 89.453 325.000 89.453 326.367 M102.678 331.738 C 104.238 335.444,105.611 338.696,105.729 338.965 C 105.882 339.314,105.449 339.453,104.203 339.453 C 102.535 339.453,102.437 339.388,101.848 337.891 L 101.235 336.328 98.333 336.328 L 95.431 336.328 94.817 337.891 C 94.237 339.367,94.113 339.453,92.568 339.453 C 91.412 339.453,90.991 339.310,91.134 338.965 C 91.340 338.467,96.382 326.376,96.754 325.488 C 96.866 325.220,97.607 325.000,98.400 325.000 L 99.841 325.000 102.678 331.738 M116.797 326.367 L 116.797 327.734 114.648 327.734 L 112.500 327.734 112.500 333.594 L 112.500 339.453 110.938 339.453 L 109.375 339.453 109.375 333.594 L 109.375 327.734 107.227 327.734 L 105.078 327.734 105.078 326.367 L 105.078 325.000 110.938 325.000 L 116.797 325.000 116.797 326.367 M97.499 330.967 C 97.100 332.089,96.690 333.228,96.588 333.496 C 96.455 333.843,96.921 333.984,98.200 333.984 C 100.241 333.984,100.225 334.020,99.362 331.417 C 98.464 328.707,98.314 328.670,97.499 330.967 M105.819 346.654 C 106.056 346.801,106.250 347.618,106.250 348.471 L 106.250 350.020 105.098 349.424 C 103.520 348.608,100.831 348.634,100.512 349.467 C 100.120 350.487,100.881 351.260,102.980 351.974 C 107.246 353.424,108.775 356.378,106.654 359.074 C 104.303 362.062,97.266 361.409,97.266 358.203 L 97.266 356.621 98.535 357.278 C 100.271 358.177,102.908 358.197,103.788 357.317 C 104.818 356.287,104.070 355.460,101.252 354.516 C 96.263 352.846,95.462 348.373,99.805 346.442 C 100.654 346.065,105.119 346.222,105.819 346.654 M51.563 347.852 L 51.563 349.219 49.609 349.219 L 47.656 349.219 47.656 354.883 L 47.656 360.547 45.932 360.547 L 44.207 360.547 44.272 354.883 L 44.336 349.219 42.285 349.219 L 40.234 349.219 40.234 347.852 L 40.234 346.484 45.898 346.484 L 51.563 346.484 51.563 347.852 M62.105 347.068 C 64.884 348.505,65.353 351.913,63.085 354.181 L 61.717 355.549 62.830 356.974 C 63.442 357.757,64.254 358.882,64.634 359.473 L 65.324 360.547 63.750 360.547 C 62.281 360.547,62.043 360.378,60.156 358.008 C 58.933 356.471,57.841 355.469,57.388 355.469 C 56.729 355.469,56.641 355.767,56.641 358.008 L 56.641 360.547 55.078 360.547 L 53.516 360.547 53.516 353.516 L 53.516 346.484 57.246 346.484 C 59.791 346.484,61.335 346.670,62.105 347.068 M77.539 353.159 C 79.043 356.821,80.332 359.981,80.404 360.182 C 80.475 360.383,79.742 360.547,78.774 360.547 C 77.109 360.547,76.989 360.473,76.563 359.180 L 76.111 357.813 73.217 357.813 L 70.323 357.813 69.752 359.180 C 69.233 360.421,69.036 360.547,67.608 360.547 C 65.782 360.547,65.649 361.324,68.744 353.906 C 69.865 351.221,71.019 348.452,71.309 347.754 C 71.773 346.634,72.010 346.485,73.320 346.493 L 74.805 346.502 77.539 353.159 M88.086 350.831 L 91.211 355.159 91.321 350.822 L 91.432 346.484 92.982 346.484 L 94.531 346.484 94.531 353.516 L 94.531 360.547 93.066 360.532 C 91.659 360.518,91.475 360.346,88.379 356.164 L 85.156 351.812 85.156 356.179 L 85.156 360.547 83.594 360.547 L 82.031 360.547 82.031 353.516 L 82.031 346.484 83.496 346.493 C 84.910 346.502,85.070 346.653,88.086 350.831 M119.141 347.852 L 119.141 349.219 115.820 349.219 L 112.500 349.219 112.500 350.781 L 112.500 352.344 115.430 352.344 L 118.359 352.344 118.359 353.711 L 118.359 355.078 115.430 355.078 L 112.500 355.078 112.500 357.813 L 112.500 360.547 110.938 360.547 L 109.375 360.547 109.375 353.516 L 109.375 346.484 114.258 346.484 L 119.141 346.484 119.141 347.852 M130.469 347.852 L 130.469 349.219 127.344 349.219 L 124.219 349.219 124.219 350.586 L 124.219 351.953 126.953 351.953 L 129.688 351.953 129.688 353.320 L 129.688 354.688 126.953 354.688 L 124.219 354.688 124.219 356.250 L 124.219 357.813 127.734 357.813 L 131.250 357.813 131.250 359.180 L 131.250 360.547 126.074 360.547 L 120.898 360.548 121.013 353.516 L 121.128 346.484 125.798 346.484 L 130.469 346.484 130.469 347.852 M143.185 347.694 C 145.167 349.678,144.700 353.703,142.365 354.767 L 141.408 355.203 142.384 356.508 C 142.920 357.225,143.820 358.428,144.382 359.180 L 145.405 360.547 143.674 360.547 C 142.000 360.547,141.878 360.463,140.024 358.008 C 137.302 354.404,136.207 354.404,136.392 358.009 L 136.523 360.549 134.863 360.548 L 133.203 360.547 133.203 353.482 L 133.203 346.417 137.687 346.548 C 141.910 346.672,142.231 346.739,143.185 347.694 M136.496 349.181 C 136.404 349.273,136.328 350.111,136.328 351.042 L 136.328 352.734 138.253 352.734 C 140.883 352.734,142.453 350.946,140.918 349.699 C 140.423 349.297,136.804 348.873,136.496 349.181 M56.641 350.977 L 56.641 352.734 58.516 352.734 C 60.648 352.734,61.328 352.253,61.328 350.745 C 61.328 349.516,60.751 349.219,58.366 349.219 L 56.641 349.219 56.641 350.977 M72.557 351.999 C 72.227 352.941,71.832 354.019,71.679 354.395 C 71.438 354.987,71.641 355.078,73.200 355.078 C 74.190 355.078,75.000 355.020,75.000 354.949 C 75.000 354.878,74.585 353.800,74.078 352.554 L 73.156 350.287 72.557 351.999 " stroke="none" fill="#fbfbfb" fill-rule="evenodd"></path><path id="path2" d="M82.405 66.459 C 82.308 67.247,81.720 99.819,81.800 99.899 C 81.881 99.980,87.320 97.467,90.698 95.788 C 90.845 95.715,92.624 99.049,94.651 103.198 C 99.735 113.602,103.752 119.554,110.629 126.869 C 117.745 134.438,123.651 144.547,125.723 152.709 C 126.634 156.295,126.332 156.235,130.525 153.669 C 135.578 150.577,135.244 151.131,134.395 147.266 C 131.905 135.928,126.999 127.625,115.535 115.347 C 111.077 110.572,99.674 90.864,101.054 90.320 C 101.226 90.252,103.636 89.105,106.408 87.771 L 111.449 85.346 107.190 82.362 C 104.847 80.721,100.645 77.930,97.852 76.161 C 92.947 73.055,85.109 68.059,83.301 66.886 C 82.817 66.573,82.414 66.381,82.405 66.459 M132.279 72.366 C 131.896 82.491,131.637 100.000,131.869 100.000 C 131.991 100.000,134.112 99.039,136.583 97.864 L 141.076 95.729 144.244 102.259 C 149.531 113.157,152.688 117.983,159.299 125.278 C 164.157 130.637,167.940 135.757,170.502 140.437 L 172.696 144.444 177.071 143.124 C 179.477 142.399,181.568 141.803,181.717 141.801 C 182.201 141.794,180.837 137.789,179.071 134.036 C 176.340 128.230,171.943 122.158,165.484 115.271 C 161.389 110.904,159.247 107.542,154.759 98.438 C 152.694 94.248,150.951 90.724,150.887 90.607 C 150.822 90.490,153.013 89.360,155.756 88.097 C 158.498 86.833,160.879 85.685,161.046 85.545 C 161.476 85.185,145.781 74.657,132.756 66.567 C 132.617 66.481,132.403 69.090,132.279 72.366 M181.850 79.785 C 181.700 87.144,181.636 94.699,181.707 96.575 L 181.836 99.986 186.297 97.833 C 188.751 96.649,190.874 95.818,191.015 95.985 C 191.156 96.152,192.483 98.838,193.964 101.953 C 198.762 112.046,202.151 117.390,207.604 123.460 C 212.349 128.742,216.764 134.631,219.184 138.907 C 220.554 141.329,221.551 142.664,222.065 142.766 C 226.123 143.571,231.824 144.478,231.961 144.341 C 232.056 144.246,231.834 142.976,231.469 141.518 C 229.396 133.248,224.302 124.868,215.610 115.430 C 210.565 109.951,199.788 91.301,201.057 90.245 C 201.228 90.103,203.598 88.963,206.324 87.712 L 211.281 85.438 207.691 82.841 C 204.673 80.657,182.605 66.406,182.241 66.406 C 182.175 66.406,182.000 72.427,181.850 79.785 M252.344 98.438 L 252.344 105.469 253.906 105.469 L 255.469 105.469 255.469 102.539 L 255.469 99.609 258.398 99.609 L 261.328 99.609 261.328 102.539 L 261.328 105.469 262.891 105.469 L 264.453 105.469 264.453 98.438 L 264.453 91.406 262.891 91.406 L 261.328 91.406 261.328 94.336 L 261.328 97.266 258.398 97.266 L 255.469 97.266 255.469 94.336 L 255.469 91.406 253.906 91.406 L 252.344 91.406 252.344 98.438 M267.188 98.438 L 267.188 105.469 272.266 105.469 L 277.344 105.469 277.344 104.102 L 277.344 102.734 273.828 102.734 L 270.313 102.734 270.313 101.172 L 270.313 99.609 273.242 99.609 L 276.172 99.609 276.172 98.242 L 276.172 96.875 273.242 96.875 L 270.313 96.875 270.313 95.508 L 270.313 94.141 273.633 94.141 L 276.953 94.141 276.953 92.773 L 276.953 91.406 272.070 91.406 L 267.188 91.406 267.188 98.438 M281.514 97.754 C 280.095 101.245,278.822 104.409,278.683 104.785 C 278.470 105.365,278.672 105.469,280.006 105.469 C 281.459 105.469,281.615 105.363,282.031 104.102 L 282.482 102.734 285.521 102.734 L 288.559 102.734 288.921 104.004 C 289.255 105.174,289.425 105.283,291.086 105.391 L 292.888 105.508 289.908 98.457 L 286.929 91.406 285.511 91.406 L 284.093 91.406 281.514 97.754 M291.797 92.773 L 291.797 94.141 293.750 94.141 L 295.703 94.141 295.703 99.805 L 295.703 105.469 297.266 105.469 L 298.828 105.469 298.828 99.805 L 298.828 94.141 300.977 94.141 L 303.125 94.141 303.125 92.773 L 303.125 91.406 297.461 91.406 L 291.797 91.406 291.797 92.773 M286.552 97.622 L 287.361 99.932 285.575 100.093 C 284.593 100.181,283.746 100.226,283.693 100.194 C 283.528 100.091,285.342 95.313,285.547 95.313 C 285.655 95.313,286.107 96.352,286.552 97.622 M256.445 112.476 C 250.762 113.828,251.101 118.667,257.027 120.779 C 259.699 121.732,260.274 122.483,259.171 123.585 C 258.324 124.433,256.429 124.371,254.352 123.429 C 253.415 123.004,252.612 122.656,252.568 122.656 C 252.523 122.656,252.586 123.388,252.708 124.282 C 253.201 127.899,261.155 127.927,262.541 124.316 C 263.603 121.551,262.331 119.538,258.773 118.354 C 255.630 117.308,255.036 116.665,256.167 115.534 C 257.004 114.698,258.622 114.790,261.035 115.810 C 261.621 116.058,261.719 115.873,261.719 114.513 C 261.719 112.984,261.666 112.917,260.254 112.679 C 259.448 112.543,258.525 112.379,258.203 112.315 C 257.881 112.250,257.090 112.323,256.445 112.476 M268.750 112.505 C 263.658 113.402,263.035 118.409,267.788 120.226 C 271.545 121.662,272.173 122.332,271.041 123.696 C 270.415 124.451,267.190 124.176,265.771 123.246 C 264.848 122.641,264.844 122.645,264.844 124.219 C 264.844 127.865,272.952 127.975,274.466 124.349 C 275.791 121.179,274.889 120.064,269.043 117.648 C 267.695 117.091,267.610 115.772,268.885 115.191 C 269.756 114.794,271.132 114.997,273.145 115.820 C 273.876 116.119,274.214 113.566,273.501 113.125 C 272.713 112.638,270.003 112.284,268.750 112.505 M331.112 112.538 C 327.727 113.342,325.781 115.967,325.781 119.730 C 325.781 128.764,339.248 129.568,340.477 120.607 C 341.192 115.388,336.421 111.277,331.112 112.538 M277.344 119.619 L 277.344 126.563 278.906 126.563 L 280.469 126.563 280.469 119.768 L 280.469 112.973 278.906 112.824 L 277.344 112.675 277.344 119.619 M232.031 119.762 L 232.031 126.634 236.035 126.496 C 242.676 126.267,244.727 124.653,244.727 119.658 C 244.727 114.711,242.340 112.891,235.855 112.891 L 232.031 112.891 232.031 119.762 M246.875 119.727 L 246.875 126.563 248.438 126.563 L 250.000 126.563 250.000 119.727 L 250.000 112.891 248.438 112.891 L 246.875 112.891 246.875 119.727 M283.203 119.727 L 283.203 126.563 284.766 126.563 L 286.328 126.563 286.328 124.263 L 286.328 121.963 289.108 121.806 C 293.980 121.531,295.996 117.402,292.813 114.219 L 291.484 112.891 287.344 112.891 L 283.203 112.891 283.203 119.727 M297.258 118.043 C 296.080 120.897,294.813 123.981,294.440 124.897 L 293.763 126.563 295.339 126.563 C 296.740 126.563,296.961 126.432,297.324 125.391 C 297.732 124.221,297.739 124.219,300.840 124.219 C 303.941 124.219,303.948 124.221,304.355 125.391 C 304.725 126.450,304.927 126.563,306.459 126.563 L 308.155 126.563 306.394 122.363 C 305.425 120.054,304.157 117.021,303.577 115.625 C 302.547 113.147,302.484 113.083,300.960 112.970 L 299.398 112.854 297.258 118.043 M307.031 114.258 L 307.031 115.625 308.984 115.625 L 310.938 115.625 310.938 121.094 L 310.938 126.563 312.500 126.563 L 314.063 126.563 314.063 121.094 L 314.063 115.625 316.211 115.625 L 318.359 115.625 318.359 114.258 L 318.359 112.891 312.695 112.891 L 307.031 112.891 307.031 114.258 M320.313 119.727 L 320.313 126.563 321.875 126.563 L 323.438 126.563 323.438 119.727 L 323.438 112.891 321.875 112.891 L 320.313 112.891 320.313 119.727 M342.578 119.727 L 342.578 126.563 344.141 126.563 L 345.703 126.563 345.703 122.227 L 345.703 117.891 348.904 122.227 C 352.005 126.427,352.151 126.563,353.591 126.563 L 355.078 126.563 355.078 119.727 L 355.078 112.891 353.528 112.891 L 351.979 112.891 351.868 117.231 L 351.758 121.572 348.633 117.246 C 345.621 113.076,345.455 112.919,344.043 112.905 L 342.578 112.891 342.578 119.727 M290.301 115.881 C 291.997 117.415,290.549 119.531,287.804 119.531 L 286.328 119.531 286.328 117.383 L 286.328 115.234 287.958 115.234 C 288.926 115.234,289.877 115.497,290.301 115.881 M335.100 115.791 C 337.362 116.961,337.847 120.646,336.009 122.703 C 334.149 124.786,330.242 124.165,329.279 121.634 C 327.686 117.443,331.293 113.823,335.100 115.791 M239.880 116.230 C 243.655 118.182,241.626 123.828,237.148 123.828 L 235.156 123.828 235.156 119.727 L 235.156 115.625 236.933 115.625 C 237.911 115.625,239.237 115.897,239.880 116.230 M302.586 121.372 C 302.499 121.459,301.652 121.476,300.704 121.410 L 298.980 121.289 299.937 118.790 L 300.893 116.292 301.819 118.753 C 302.328 120.107,302.673 121.286,302.586 121.372 M221.163 256.055 C 214.532 281.934,178.601 282.810,170.326 257.294 C 169.849 255.824,169.833 255.814,169.369 256.708 C 169.109 257.208,168.424 258.126,167.846 258.748 C 167.269 259.371,166.797 260.009,166.797 260.168 C 166.797 260.545,165.317 260.929,165.122 260.603 C 165.039 260.465,165.033 260.590,165.107 260.882 C 165.243 261.416,162.403 264.453,161.767 264.453 C 161.579 264.453,161.314 265.010,161.178 265.690 C 161.042 266.370,160.493 267.501,159.958 268.203 C 159.422 268.905,158.984 269.667,158.984 269.896 C 158.984 270.125,158.838 270.313,158.659 270.313 C 158.480 270.313,158.314 270.532,158.291 270.801 C 158.216 271.664,157.994 272.448,157.681 272.949 C 157.513 273.218,157.501 273.438,157.655 273.438 C 157.808 273.438,157.625 273.778,157.249 274.194 C 156.872 274.610,156.663 275.111,156.784 275.307 C 156.905 275.503,156.559 276.051,156.015 276.524 C 155.471 276.997,155.095 277.591,155.180 277.844 C 155.264 278.096,155.008 278.653,154.610 279.079 C 154.212 279.506,153.970 280.072,154.072 280.337 C 154.174 280.602,153.914 280.928,153.496 281.061 C 153.077 281.194,152.734 281.477,152.734 281.690 C 152.734 281.903,152.937 281.952,153.185 281.799 C 153.471 281.622,153.530 281.692,153.346 281.990 C 153.122 282.352,152.912 282.344,152.429 281.953 C 151.568 281.255,152.075 282.111,153.747 284.180 L 155.011 285.742 153.448 285.775 C 152.588 285.792,151.738 286.044,151.559 286.333 C 150.929 287.353,149.984 287.021,148.391 285.219 L 146.781 283.398 148.488 285.931 C 150.348 288.691,156.407 294.982,158.594 296.424 C 159.777 297.205,159.725 297.110,158.203 295.721 C 157.236 294.839,156.494 293.933,156.553 293.709 C 156.612 293.485,156.500 293.400,156.304 293.521 C 156.108 293.642,155.744 293.495,155.494 293.195 C 155.175 292.810,155.165 292.571,155.459 292.389 C 155.690 292.246,155.830 292.341,155.771 292.599 C 155.712 292.858,156.057 293.105,156.536 293.149 C 157.270 293.215,157.332 293.134,156.927 292.635 C 156.524 292.139,156.558 292.083,157.129 292.297 C 157.545 292.453,157.815 292.367,157.818 292.078 C 157.822 291.772,157.955 291.807,158.188 292.177 C 158.496 292.664,158.594 292.642,158.827 292.033 C 159.080 291.374,159.145 291.391,159.616 292.239 C 160.016 292.962,160.132 293.015,160.142 292.482 C 160.150 292.106,159.502 291.052,158.702 290.138 C 157.495 288.759,157.445 288.642,158.408 289.453 C 159.046 289.990,159.627 290.562,159.699 290.723 C 159.772 290.884,160.299 291.016,160.872 291.017 C 161.445 291.018,164.990 291.455,168.750 291.989 C 172.510 292.522,176.346 293.061,177.275 293.187 C 178.928 293.411,178.951 293.434,178.344 294.267 C 176.394 296.941,174.902 299.250,175.038 299.381 C 175.125 299.464,177.275 300.185,179.817 300.984 C 183.130 302.025,184.319 302.556,184.016 302.859 C 182.990 303.885,183.624 305.962,185.167 306.627 C 187.275 307.535,180.519 306.273,175.977 304.910 C 175.547 304.782,175.811 304.961,176.563 305.310 C 181.462 307.581,199.201 309.053,205.496 307.710 L 206.891 307.413 208.566 301.460 C 209.487 298.186,210.315 295.429,210.407 295.332 C 210.498 295.235,212.480 297.058,214.811 299.381 L 219.049 303.606 220.364 303.171 C 224.047 301.952,232.089 296.344,235.938 292.311 L 238.477 289.650 236.184 291.798 C 234.754 293.137,233.822 293.761,233.709 293.455 C 233.609 293.185,233.365 293.064,233.166 293.187 C 232.968 293.310,232.499 292.872,232.125 292.215 C 231.280 290.730,231.149 290.732,229.158 292.248 C 228.267 292.926,228.956 292.152,230.687 290.528 C 233.451 287.935,237.131 283.743,235.484 285.063 C 234.514 285.842,233.947 284.762,233.382 281.055 C 233.349 280.840,233.271 280.576,233.209 280.469 C 233.147 280.361,233.066 279.717,233.030 279.037 C 232.993 278.356,232.756 277.551,232.504 277.247 C 232.252 276.944,231.998 276.270,231.941 275.750 C 231.883 275.230,231.618 274.629,231.351 274.414 C 231.085 274.199,230.810 273.488,230.740 272.834 C 230.671 272.180,230.514 271.477,230.392 271.271 C 230.159 270.880,229.604 268.519,229.662 268.169 C 229.681 268.057,229.437 267.344,229.120 266.585 C 228.712 265.610,228.682 265.276,229.018 265.445 C 229.279 265.577,229.070 265.314,228.554 264.861 C 227.937 264.318,227.627 263.641,227.649 262.878 C 227.667 262.240,227.518 261.719,227.318 261.719 C 227.117 261.719,226.939 261.411,226.922 261.035 C 226.901 260.572,226.824 260.520,226.683 260.875 C 226.471 261.405,225.706 260.408,225.156 258.887 C 225.020 258.511,224.780 258.203,224.624 258.203 C 224.021 258.203,222.597 256.662,222.839 256.271 C 222.979 256.044,222.831 255.859,222.511 255.859 C 222.191 255.859,221.870 255.464,221.796 254.980 C 221.704 254.367,221.512 254.692,221.163 256.055 M216.215 279.469 C 220.113 282.442,219.979 288.113,215.948 290.726 C 211.411 293.668,205.465 290.356,205.471 284.889 C 205.477 279.379,211.869 276.154,216.215 279.469 M182.587 279.454 C 184.944 280.835,186.070 283.062,185.862 285.934 C 185.230 294.678,172.266 294.123,172.266 285.352 C 172.266 280.020,177.981 276.755,182.587 279.454 M84.668 336.614 C 85.581 336.696,87.075 336.696,87.988 336.614 C 88.901 336.532,88.154 336.465,86.328 336.465 C 84.502 336.465,83.755 336.532,84.668 336.614 M57.129 353.004 C 57.505 353.102,58.120 353.102,58.496 353.004 C 58.872 352.905,58.564 352.825,57.813 352.825 C 57.061 352.825,56.753 352.905,57.129 353.004 M130.958 359.180 C 130.962 360.039,131.042 360.345,131.136 359.859 C 131.229 359.373,131.226 358.670,131.128 358.296 C 131.030 357.923,130.954 358.320,130.958 359.180 " stroke="none" fill="#f6a726" fill-rule="evenodd"></path><path id="path3" d="M135.022 260.086 L 134.302 263.140 127.014 263.152 C 119.393 263.165,115.900 263.517,109.836 264.882 C 107.511 265.405,106.257 265.864,106.365 266.152 C 106.458 266.399,107.039 268.153,107.655 270.050 L 108.775 273.499 109.954 273.243 C 114.999 272.149,117.977 271.820,124.752 271.610 L 132.513 271.369 132.244 274.259 C 132.096 275.848,131.888 277.456,131.782 277.832 C 131.534 278.707,131.479 278.716,134.419 277.391 C 136.760 276.336,139.096 275.583,146.680 273.438 C 148.398 272.952,149.874 272.494,149.958 272.419 C 150.043 272.345,148.974 271.078,147.584 269.604 C 146.193 268.130,143.866 265.445,142.411 263.638 C 136.284 256.022,136.011 255.891,135.022 260.086 M176.172 267.700 C 176.172 267.768,176.743 268.339,177.441 268.970 L 178.711 270.117 177.564 268.848 C 176.494 267.664,176.172 267.399,176.172 267.700 M158.702 290.138 C 159.502 291.052,160.150 292.106,160.142 292.482 C 160.132 293.015,160.016 292.962,159.616 292.239 C 159.145 291.391,159.080 291.374,158.827 292.033 C 158.594 292.642,158.496 292.664,158.188 292.177 C 157.955 291.807,157.822 291.772,157.818 292.078 C 157.815 292.367,157.545 292.453,157.129 292.297 C 156.558 292.083,156.524 292.139,156.927 292.635 C 157.332 293.134,157.270 293.215,156.536 293.149 C 156.057 293.105,155.712 292.858,155.771 292.599 C 155.830 292.341,155.690 292.246,155.459 292.389 C 155.165 292.571,155.175 292.810,155.494 293.195 C 155.744 293.495,156.148 293.622,156.392 293.475 C 156.636 293.329,156.595 293.507,156.300 293.870 C 155.822 294.460,155.944 294.686,156.691 294.593 C 156.827 294.576,157.607 295.141,158.425 295.849 C 159.289 296.595,159.678 297.151,159.351 297.172 C 156.467 297.359,132.305 309.930,133.282 310.736 C 133.346 310.788,134.833 311.991,136.585 313.409 L 139.772 315.986 148.274 311.448 C 156.044 307.301,162.406 304.322,163.531 304.304 C 163.775 304.300,164.369 305.891,164.851 307.840 C 165.332 309.789,165.853 311.239,166.008 311.063 C 166.769 310.198,170.773 304.570,170.944 304.124 C 171.052 303.843,171.566 303.613,172.086 303.613 C 172.645 303.613,172.929 303.781,172.780 304.021 C 172.625 304.273,172.777 304.334,173.178 304.180 C 173.536 304.043,173.828 304.096,173.828 304.297 C 173.828 304.498,174.121 304.551,174.478 304.414 C 174.940 304.236,175.039 304.308,174.820 304.663 C 174.589 305.037,174.732 305.092,175.391 304.883 C 175.948 304.706,176.180 304.749,176.025 305.000 C 175.875 305.243,176.106 305.311,176.623 305.175 C 177.163 305.034,177.374 305.104,177.209 305.371 C 177.044 305.637,177.255 305.707,177.795 305.566 C 178.312 305.431,178.543 305.499,178.393 305.741 C 178.242 305.987,178.538 306.063,179.171 305.942 C 179.734 305.834,180.097 305.903,179.978 306.096 C 179.859 306.288,180.317 306.454,180.994 306.465 C 181.672 306.475,183.105 306.610,184.180 306.764 C 185.730 306.986,185.934 306.958,185.167 306.627 C 183.624 305.962,182.990 303.885,184.016 302.859 C 184.319 302.556,183.130 302.025,179.817 300.984 C 177.275 300.185,175.125 299.464,175.038 299.381 C 174.902 299.250,176.394 296.941,178.344 294.267 C 178.951 293.434,178.928 293.411,177.275 293.187 C 176.346 293.061,172.510 292.522,168.750 291.989 C 164.990 291.455,161.445 291.018,160.872 291.017 C 160.299 291.016,159.772 290.884,159.699 290.723 C 159.627 290.562,159.046 289.990,158.408 289.453 C 157.445 288.642,157.495 288.759,158.702 290.138 M208.995 299.902 C 207.051 306.786,204.714 315.782,204.837 315.905 C 204.897 315.965,206.206 315.585,207.747 315.061 L 210.547 314.109 210.547 315.000 C 210.547 321.044,205.985 329.265,198.911 335.969 L 195.117 339.564 198.828 339.282 C 207.592 338.616,209.224 337.976,212.137 334.062 C 216.219 328.576,219.053 321.087,219.729 314.000 L 219.976 311.399 222.725 310.725 L 225.474 310.052 218.112 302.682 C 214.063 298.629,210.647 295.313,210.521 295.313 C 210.395 295.313,209.708 297.378,208.995 299.902 M64.453 332.031 L 64.453 339.063 66.016 339.063 L 67.578 339.063 67.578 336.328 L 67.578 333.594 70.898 333.594 L 74.219 333.594 74.219 336.328 L 74.219 339.063 75.794 339.063 L 77.370 339.063 77.326 332.031 L 77.281 325.000 75.750 325.000 L 74.219 325.000 74.219 327.930 L 74.219 330.859 70.898 330.859 L 67.578 330.859 67.578 327.930 L 67.578 325.000 66.016 325.000 L 64.453 325.000 64.453 332.031 M80.078 332.031 L 80.078 339.063 85.059 339.063 L 90.039 339.063 90.003 337.833 L 89.966 336.604 86.585 336.686 L 83.203 336.767 83.203 334.985 L 83.203 333.203 85.938 333.203 L 88.672 333.203 88.672 331.804 L 88.672 330.405 85.937 330.534 L 83.201 330.664 83.202 329.199 L 83.203 327.734 86.328 327.734 L 89.453 327.734 89.453 326.367 L 89.453 325.000 84.766 325.000 L 80.078 325.000 80.078 332.031 M95.698 328.223 C 94.973 329.995,93.641 333.159,92.738 335.254 L 91.097 339.063 92.757 339.063 C 94.296 339.063,94.445 338.969,94.781 337.793 L 95.144 336.523 98.270 336.411 L 101.395 336.299 101.895 337.681 C 102.354 338.952,102.520 339.063,103.973 339.063 C 105.313 339.063,105.514 338.959,105.299 338.379 C 105.160 338.003,103.867 334.841,102.425 331.352 L 99.805 325.008 98.411 325.004 C 97.032 325.000,97.004 325.033,95.698 328.223 M105.244 326.366 L 105.273 327.732 107.324 327.733 L 109.375 327.734 109.375 333.398 L 109.375 339.063 110.938 339.063 L 112.500 339.063 112.500 333.398 L 112.500 327.734 114.551 327.733 L 116.602 327.732 116.631 326.366 L 116.660 325.000 110.938 325.000 L 105.215 325.000 105.244 326.366 M99.398 331.250 C 99.776 332.217,100.173 333.228,100.280 333.496 C 100.420 333.848,99.918 333.984,98.479 333.984 C 96.171 333.984,96.240 334.150,97.325 331.174 C 98.244 328.652,98.384 328.657,99.398 331.250 M99.757 346.655 C 95.693 348.424,96.539 353.080,101.175 354.457 C 103.571 355.169,104.297 355.684,104.297 356.675 C 104.297 358.285,101.121 358.624,98.461 357.297 L 97.266 356.701 97.266 358.170 C 97.266 359.933,98.114 360.455,101.506 360.777 C 108.223 361.415,109.803 354.605,103.473 352.297 C 100.732 351.297,99.658 350.297,100.385 349.421 C 101.014 348.663,103.746 348.647,105.176 349.393 L 106.250 349.954 106.250 348.433 C 106.250 346.276,102.798 345.331,99.757 346.655 M40.234 347.852 L 40.234 349.219 42.383 349.219 L 44.531 349.219 44.531 354.883 L 44.531 360.547 46.123 360.547 L 47.714 360.547 47.587 354.882 L 47.461 349.218 49.512 349.218 L 51.563 349.219 51.563 347.852 L 51.563 346.484 45.898 346.484 L 40.234 346.484 40.234 347.852 M53.516 353.516 L 53.516 360.547 55.078 360.547 L 56.641 360.547 56.641 358.008 C 56.641 355.613,56.692 355.469,57.546 355.469 C 58.213 355.469,58.934 356.138,60.279 358.008 C 62.012 360.417,62.186 360.547,63.693 360.547 C 65.485 360.547,65.502 360.644,63.147 357.501 L 61.597 355.432 62.867 354.371 C 63.871 353.533,64.174 352.944,64.311 351.558 C 64.678 347.866,62.723 346.486,57.129 346.485 L 53.516 346.484 53.516 353.516 M71.530 347.340 C 71.068 348.556,67.838 356.375,66.832 358.714 L 66.024 360.591 67.668 360.471 C 69.147 360.363,69.347 360.225,69.673 359.082 L 70.035 357.813 73.078 357.813 L 76.121 357.813 76.616 359.180 C 77.076 360.453,77.226 360.547,78.784 360.547 L 80.457 360.547 79.708 358.691 C 79.296 357.671,78.008 354.551,76.846 351.758 L 74.733 346.680 73.303 346.558 C 72.111 346.457,71.817 346.587,71.530 347.340 M82.031 353.516 L 82.031 360.547 83.581 360.547 L 85.131 360.547 85.241 356.240 L 85.352 351.932 88.578 356.240 C 91.607 360.283,91.888 360.547,93.168 360.547 L 94.531 360.547 94.531 353.516 L 94.531 346.484 92.935 346.484 L 91.339 346.484 91.470 350.977 C 91.629 356.408,91.891 356.408,88.086 350.980 C 85.059 346.661,84.915 346.521,83.496 346.503 L 82.031 346.484 82.031 353.516 M109.375 353.516 L 109.375 360.547 110.938 360.547 L 112.500 360.547 112.500 357.813 L 112.500 355.078 115.430 355.078 L 118.359 355.078 118.359 353.711 L 118.359 352.344 115.430 352.344 L 112.500 352.344 112.500 350.781 L 112.500 349.219 115.723 349.218 L 118.945 349.216 118.975 347.850 L 119.004 346.484 114.189 346.484 L 109.375 346.484 109.375 353.516 M121.094 353.516 L 121.094 360.547 125.977 360.547 L 130.859 360.547 130.859 359.180 L 130.859 357.813 127.539 357.813 L 124.219 357.813 124.219 356.250 L 124.219 354.688 126.953 354.688 L 129.688 354.688 129.688 353.320 L 129.688 351.953 126.953 351.953 L 124.219 351.953 124.219 350.586 L 124.219 349.219 127.344 349.219 L 130.469 349.219 130.469 347.852 L 130.469 346.484 125.781 346.484 L 121.094 346.484 121.094 353.516 M133.230 353.516 L 133.298 360.547 134.813 360.547 L 136.328 360.547 136.328 358.008 C 136.328 354.423,137.390 354.420,140.086 357.998 C 141.907 360.414,142.067 360.528,143.665 360.537 L 145.339 360.547 143.357 357.929 L 141.375 355.311 142.316 354.819 C 145.216 353.299,145.025 348.312,142.019 347.056 C 141.140 346.689,139.309 346.484,136.906 346.484 L 133.162 346.484 133.230 353.516 M60.293 349.197 C 62.183 349.915,61.882 352.153,59.819 352.726 C 56.914 353.533,56.641 353.383,56.641 350.977 L 56.641 348.828 57.982 348.828 C 58.720 348.828,59.760 348.994,60.293 349.197 M140.538 349.436 C 142.523 350.827,141.434 352.602,138.476 352.800 L 136.523 352.930 136.405 350.879 L 136.287 348.828 137.979 348.828 C 138.909 348.828,140.061 349.102,140.538 349.436 M74.827 354.444 C 75.017 355.198,74.875 355.273,73.260 355.273 C 71.209 355.273,71.172 355.154,72.342 352.337 L 73.200 350.273 73.910 351.944 C 74.300 352.862,74.713 353.988,74.827 354.444 " stroke="none" fill="#ef3f21" fill-rule="evenodd"></path><path id="path4" d="M53.700 38.672 L 53.711 48.633 55.859 48.662 L 58.008 48.691 55.964 48.545 L 53.920 48.399 53.805 38.555 L 53.690 28.711 53.700 38.672 M79.980 29.182 C 80.464 29.275,81.255 29.275,81.738 29.182 C 82.222 29.089,81.826 29.013,80.859 29.013 C 79.893 29.013,79.497 29.089,79.980 29.182 M97.408 32.617 C 97.409 34.766,97.475 35.595,97.554 34.460 C 97.633 33.324,97.632 31.567,97.552 30.553 C 97.472 29.540,97.407 30.469,97.408 32.617 M140.407 32.813 L 140.430 36.914 144.531 36.934 L 148.633 36.954 144.642 36.823 L 140.652 36.693 140.518 32.702 L 140.384 28.711 140.407 32.813 M156.825 38.672 L 156.836 48.633 163.862 48.633 C 170.299 48.633,170.893 48.575,170.951 47.942 C 170.995 47.458,170.959 47.429,170.830 47.844 C 170.674 48.345,169.588 48.438,163.845 48.438 L 157.045 48.438 156.930 38.574 L 156.815 28.711 156.825 38.672 M180.469 29.128 C 181.781 29.421,184.679 29.472,184.510 29.199 C 184.410 29.038,183.329 28.927,182.106 28.952 C 180.883 28.976,180.146 29.056,180.469 29.128 M260.645 29.186 C 261.235 29.276,262.202 29.276,262.793 29.186 C 263.384 29.097,262.900 29.023,261.719 29.023 C 260.537 29.023,260.054 29.097,260.645 29.186 M291.106 38.554 L 291.016 48.397 288.965 48.540 L 286.914 48.684 288.977 48.756 C 291.603 48.848,291.441 49.575,291.308 38.274 L 291.196 28.711 291.106 38.554 M345.888 38.672 L 345.898 48.633 348.047 48.662 L 350.195 48.691 348.151 48.545 L 346.107 48.399 345.992 38.555 L 345.877 28.711 345.888 38.672 M286.877 35.742 C 286.877 39.180,286.937 40.534,287.010 38.751 C 287.082 36.968,287.082 34.156,287.009 32.501 C 286.936 30.846,286.876 32.305,286.877 35.742 M307.543 31.836 C 307.545 33.125,307.618 33.605,307.705 32.903 C 307.792 32.201,307.790 31.146,307.701 30.559 C 307.612 29.972,307.541 30.547,307.543 31.836 M39.941 32.691 C 40.317 32.789,40.933 32.789,41.309 32.691 C 41.685 32.593,41.377 32.513,40.625 32.513 C 39.873 32.513,39.565 32.593,39.941 32.691 M57.944 35.156 C 57.944 36.768,58.013 37.427,58.097 36.621 C 58.181 35.815,58.181 34.497,58.097 33.691 C 58.013 32.886,57.944 33.545,57.944 35.156 M116.523 34.766 C 116.523 35.947,116.597 36.431,116.686 35.840 C 116.776 35.249,116.776 34.282,116.686 33.691 C 116.597 33.101,116.523 33.584,116.523 34.766 M316.909 34.570 C 316.912 35.645,316.987 36.038,317.077 35.444 C 317.167 34.850,317.165 33.971,317.072 33.491 C 316.979 33.010,316.906 33.496,316.909 34.570 M333.315 34.961 C 333.318 36.035,333.394 36.428,333.483 35.834 C 333.573 35.241,333.571 34.362,333.478 33.881 C 333.385 33.401,333.312 33.887,333.315 34.961 M195.885 41.016 L 195.898 48.633 198.242 48.668 L 200.586 48.703 198.348 48.551 L 196.110 48.399 195.991 40.899 L 195.872 33.398 195.885 41.016 M220.863 40.820 C 220.863 44.473,220.921 46.019,220.993 44.257 C 221.066 42.496,221.066 39.507,220.994 37.617 C 220.922 35.726,220.863 37.168,220.863 40.820 M318.848 37.006 C 319.868 37.086,321.538 37.086,322.559 37.006 C 323.579 36.925,322.744 36.860,320.703 36.860 C 318.662 36.860,317.827 36.925,318.848 37.006 M116.531 42.578 C 116.531 43.975,116.602 44.546,116.689 43.848 C 116.775 43.149,116.775 42.007,116.689 41.309 C 116.602 40.610,116.531 41.182,116.531 42.578 M97.347 44.414 L 97.266 48.399 95.020 48.539 L 92.773 48.680 95.032 48.754 C 97.762 48.844,97.727 48.908,97.558 44.111 L 97.428 40.430 97.347 44.414 M140.315 44.414 L 140.234 48.399 137.988 48.539 L 135.742 48.680 138.001 48.754 C 140.731 48.844,140.695 48.908,140.526 44.111 L 140.397 40.430 140.315 44.414 M258.849 41.113 C 258.949 41.274,260.163 41.406,261.546 41.406 C 262.930 41.406,264.063 41.274,264.063 41.113 C 264.063 40.952,262.849 40.820,261.365 40.820 C 259.882 40.820,258.750 40.952,258.849 41.113 M316.878 44.414 L 316.797 48.399 314.551 48.539 L 312.305 48.680 314.563 48.754 C 317.293 48.844,317.258 48.908,317.089 44.111 L 316.959 40.430 316.878 44.414 M79.191 41.298 C 79.884 41.384,81.114 41.385,81.925 41.301 C 82.735 41.216,82.168 41.146,80.664 41.144 C 79.160 41.142,78.497 41.211,79.191 41.298 M180.753 41.298 C 181.446 41.384,182.677 41.385,183.487 41.301 C 184.298 41.216,183.730 41.146,182.227 41.144 C 180.723 41.142,180.060 41.211,180.753 41.298 M333.310 42.578 C 333.310 43.545,333.386 43.940,333.479 43.457 C 333.572 42.974,333.572 42.183,333.479 41.699 C 333.386 41.216,333.310 41.611,333.310 42.578 M57.949 44.922 C 57.949 46.748,58.016 47.495,58.099 46.582 C 58.181 45.669,58.181 44.175,58.099 43.262 C 58.016 42.349,57.949 43.096,57.949 44.922 M309.075 42.969 C 309.075 43.721,309.155 44.028,309.254 43.652 C 309.352 43.276,309.352 42.661,309.254 42.285 C 309.155 41.909,309.075 42.217,309.075 42.969 M294.577 45.582 C 294.552 46.698,294.666 47.694,294.831 47.796 C 294.996 47.898,295.075 47.249,295.006 46.354 C 294.803 43.725,294.625 43.405,294.577 45.582 M78.809 44.819 C 79.937 44.898,81.782 44.898,82.910 44.819 C 84.038 44.740,83.115 44.676,80.859 44.676 C 78.604 44.676,77.681 44.740,78.809 44.819 M179.980 44.819 C 181.108 44.898,182.954 44.898,184.082 44.819 C 185.210 44.740,184.287 44.676,182.031 44.676 C 179.775 44.676,178.853 44.740,179.980 44.819 M258.594 44.783 C 261.863 45.071,265.538 45.094,265.371 44.824 C 265.270 44.663,263.397 44.561,261.207 44.597 C 259.018 44.633,257.842 44.717,258.594 44.783 M342.644 46.573 L 342.578 48.419 335.645 48.536 L 328.711 48.652 335.657 48.740 C 343.355 48.838,343.142 48.912,342.865 46.232 C 342.717 44.795,342.706 44.810,342.644 46.573 M69.677 47.967 C 69.856 48.257,69.206 48.444,67.687 48.539 L 65.430 48.680 67.871 48.754 C 70.153 48.823,70.913 48.464,69.862 47.814 C 69.590 47.646,69.516 47.707,69.677 47.967 M88.281 48.438 L 85.742 48.693 88.379 48.761 C 89.921 48.800,91.016 48.666,91.016 48.438 C 91.016 48.223,90.972 48.077,90.918 48.114 C 90.864 48.151,89.678 48.297,88.281 48.438 M221.056 48.558 C 221.230 48.731,222.321 48.816,223.479 48.747 L 225.586 48.622 223.163 48.432 C 221.830 48.328,220.882 48.384,221.056 48.558 M37.614 48.728 C 39.073 48.803,41.358 48.802,42.692 48.726 C 44.026 48.650,42.832 48.589,40.039 48.589 C 37.246 48.590,36.155 48.652,37.614 48.728 M72.175 48.721 C 72.877 48.808,73.932 48.806,74.519 48.717 C 75.106 48.627,74.531 48.556,73.242 48.559 C 71.953 48.561,71.473 48.634,72.175 48.721 M105.957 48.722 C 106.763 48.806,108.081 48.806,108.887 48.722 C 109.692 48.638,109.033 48.569,107.422 48.569 C 105.811 48.569,105.151 48.638,105.957 48.722 M115.527 48.729 C 117.515 48.799,120.767 48.799,122.754 48.729 C 124.741 48.658,123.115 48.600,119.141 48.600 C 115.166 48.600,113.540 48.658,115.527 48.729 M149.909 48.721 C 150.611 48.808,151.666 48.806,152.253 48.717 C 152.840 48.627,152.266 48.556,150.977 48.559 C 149.688 48.561,149.207 48.634,149.909 48.721 M173.347 48.721 C 174.049 48.808,175.104 48.806,175.691 48.717 C 176.278 48.627,175.703 48.556,174.414 48.559 C 173.125 48.561,172.645 48.634,173.347 48.721 M188.574 48.720 C 189.272 48.807,190.415 48.807,191.113 48.720 C 191.812 48.633,191.240 48.563,189.844 48.563 C 188.447 48.563,187.876 48.633,188.574 48.720 M235.066 48.721 C 235.768 48.808,236.822 48.806,237.409 48.717 C 237.996 48.627,237.422 48.556,236.133 48.559 C 234.844 48.561,234.363 48.634,235.066 48.721 M246.784 48.721 C 247.486 48.808,248.541 48.806,249.128 48.717 C 249.715 48.627,249.141 48.556,247.852 48.559 C 246.563 48.561,246.082 48.634,246.784 48.721 M252.644 48.721 C 253.346 48.808,254.400 48.806,254.987 48.717 C 255.574 48.627,255.000 48.556,253.711 48.559 C 252.422 48.561,251.942 48.634,252.644 48.721 M267.871 48.720 C 268.569 48.807,269.712 48.807,270.410 48.720 C 271.108 48.633,270.537 48.563,269.141 48.563 C 267.744 48.563,267.173 48.633,267.871 48.720 M274.909 48.721 C 275.611 48.808,276.666 48.806,277.253 48.717 C 277.840 48.627,277.266 48.556,275.977 48.559 C 274.688 48.561,274.207 48.634,274.909 48.721 M358.878 48.719 C 359.571 48.806,360.802 48.807,361.612 48.723 C 362.423 48.638,361.855 48.567,360.352 48.566 C 358.848 48.564,358.185 48.633,358.878 48.719 M245.881 169.531 C 245.881 177.803,245.932 181.187,245.996 177.051 C 246.059 172.915,246.059 166.147,245.996 162.012 C 245.932 157.876,245.881 161.260,245.881 169.531 M124.009 185.254 L 122.070 187.305 124.121 185.366 C 125.249 184.300,126.172 183.377,126.172 183.315 C 126.172 183.024,125.810 183.348,124.009 185.254 M299.309 185.547 C 299.309 186.299,299.390 186.606,299.488 186.230 C 299.586 185.854,299.586 185.239,299.488 184.863 C 299.390 184.487,299.309 184.795,299.309 185.547 M193.657 187.776 C 194.143 187.870,194.846 187.866,195.219 187.768 C 195.593 187.671,195.195 187.594,194.336 187.599 C 193.477 187.603,193.171 187.683,193.657 187.776 M187.109 192.362 C 178.794 193.564,165.625 197.950,165.625 199.518 C 165.625 199.711,165.388 199.870,165.099 199.870 C 164.296 199.870,158.889 203.730,155.307 206.862 C 142.478 218.078,135.094 235.624,136.056 252.606 L 136.286 256.676 138.038 258.514 C 139.002 259.525,140.339 261.055,141.010 261.914 C 141.680 262.773,142.800 264.004,143.498 264.648 C 144.196 265.293,144.406 265.563,143.966 265.249 C 143.525 264.935,144.319 265.814,145.732 267.202 C 147.144 268.591,147.671 269.208,146.904 268.574 C 146.136 267.940,146.605 268.530,147.946 269.885 C 150.205 272.168,150.783 273.323,149.402 272.793 C 149.086 272.672,148.828 272.762,148.828 272.993 C 148.828 273.224,148.564 273.312,148.242 273.188 C 147.920 273.064,147.656 273.156,147.656 273.391 C 147.656 273.626,147.349 273.782,146.973 273.736 C 144.165 273.398,141.141 275.020,142.285 276.251 C 142.554 276.540,142.827 277.036,142.893 277.353 C 142.958 277.670,143.222 278.106,143.478 278.322 C 143.735 278.537,143.992 278.940,144.048 279.217 C 144.230 280.105,146.188 282.974,147.361 284.071 C 148.027 284.695,148.379 285.326,148.212 285.596 C 148.046 285.865,148.093 285.955,148.325 285.812 C 148.544 285.676,149.023 285.895,149.388 286.299 C 150.128 287.117,151.066 287.132,151.559 286.333 C 151.738 286.044,152.588 285.792,153.448 285.775 L 155.011 285.742 153.747 284.180 C 152.075 282.111,151.568 281.255,152.429 281.953 C 152.912 282.344,153.122 282.352,153.346 281.990 C 153.530 281.692,153.471 281.622,153.185 281.799 C 152.937 281.952,152.734 281.903,152.734 281.690 C 152.734 281.477,153.077 281.194,153.496 281.061 C 153.914 280.928,154.174 280.602,154.072 280.337 C 153.970 280.072,154.212 279.506,154.610 279.079 C 155.008 278.653,155.264 278.096,155.180 277.844 C 155.095 277.591,155.471 276.997,156.015 276.524 C 156.559 276.051,156.905 275.503,156.784 275.307 C 156.663 275.111,156.832 274.654,157.160 274.292 C 157.488 273.929,157.769 273.501,157.785 273.340 C 157.800 273.179,157.826 273.003,157.842 272.949 C 157.993 272.456,158.257 271.192,158.291 270.801 C 158.314 270.532,158.480 270.313,158.659 270.313 C 158.838 270.313,158.984 270.125,158.984 269.896 C 158.984 269.667,159.403 268.920,159.916 268.236 C 161.062 266.704,161.493 265.382,160.953 265.049 C 160.730 264.911,160.547 264.967,160.547 265.175 C 160.547 265.382,160.168 265.453,159.705 265.332 C 159.127 265.181,158.950 265.254,159.142 265.563 C 159.334 265.874,158.979 266.016,158.008 266.016 C 157.037 266.016,156.682 265.874,156.874 265.563 C 157.069 265.248,156.875 265.184,156.233 265.352 C 155.202 265.622,152.578 264.242,152.956 263.629 C 153.081 263.427,152.950 263.310,152.666 263.369 C 152.381 263.428,152.172 263.176,152.200 262.808 C 152.229 262.441,152.053 262.177,151.810 262.222 C 151.566 262.268,151.380 261.918,151.396 261.445 C 151.412 260.972,151.289 260.670,151.123 260.772 C 150.957 260.875,150.705 260.345,150.565 259.594 C 150.275 258.051,151.150 254.836,151.824 254.965 C 152.059 255.010,152.229 254.747,152.200 254.379 C 152.172 254.012,152.381 253.759,152.666 253.818 C 152.950 253.877,153.084 253.765,152.962 253.568 C 152.659 253.077,154.603 251.855,155.150 252.193 C 155.411 252.354,155.481 252.289,155.323 252.033 C 154.968 251.459,157.414 251.010,159.136 251.333 C 161.850 251.842,165.138 255.098,164.612 256.755 C 164.452 257.260,164.516 257.429,164.802 257.252 C 165.087 257.076,165.234 257.458,165.234 258.375 C 165.234 259.140,165.059 259.766,164.844 259.766 C 164.629 259.766,164.453 259.952,164.453 260.179 C 164.453 260.407,164.659 260.466,164.910 260.311 C 165.222 260.118,165.284 260.245,165.105 260.710 C 164.962 261.085,164.841 261.509,164.838 261.653 C 164.834 261.797,164.661 261.650,164.453 261.328 C 164.226 260.976,164.072 260.928,164.068 261.207 C 164.058 262.059,164.798 262.143,165.229 261.339 C 165.462 260.903,165.910 260.547,166.225 260.547 C 166.539 260.547,166.797 260.403,166.797 260.227 C 166.797 259.638,169.434 256.935,169.581 257.374 C 169.661 257.612,169.739 256.938,169.755 255.877 C 169.770 254.815,169.682 254.008,169.559 254.084 C 169.436 254.160,169.329 252.311,169.321 249.976 C 169.313 247.625,169.450 245.941,169.628 246.204 C 169.806 246.466,169.832 245.995,169.687 245.158 C 169.499 244.075,169.550 243.715,169.863 243.909 C 170.143 244.082,170.221 243.965,170.077 243.591 C 169.781 242.818,170.662 240.163,171.121 240.446 C 171.316 240.567,171.360 240.364,171.218 239.995 C 171.045 239.544,171.109 239.416,171.414 239.605 C 171.704 239.784,171.787 239.678,171.645 239.309 C 171.368 238.585,172.178 237.009,172.671 237.314 C 172.878 237.442,172.926 237.249,172.781 236.870 C 172.619 236.448,172.677 236.295,172.936 236.455 C 173.171 236.600,173.326 236.417,173.296 236.031 C 173.266 235.657,173.441 235.389,173.685 235.434 C 173.928 235.479,174.104 235.220,174.075 234.857 C 174.047 234.495,174.270 234.194,174.572 234.189 C 174.874 234.184,175.170 233.842,175.231 233.430 C 175.373 232.459,177.772 230.061,178.742 229.918 C 179.155 229.858,179.493 229.561,179.493 229.260 C 179.494 228.958,179.789 228.709,180.149 228.706 C 180.509 228.703,180.948 228.543,181.125 228.350 C 181.312 228.146,181.216 228.133,180.897 228.318 C 180.516 228.539,180.438 228.490,180.643 228.159 C 180.806 227.896,181.182 227.775,181.480 227.889 C 181.778 228.003,181.980 227.883,181.929 227.623 C 181.878 227.362,182.142 227.173,182.515 227.202 C 182.902 227.232,183.085 227.077,182.940 226.843 C 182.779 226.583,182.933 226.525,183.355 226.687 C 183.806 226.860,183.934 226.797,183.745 226.492 C 183.557 226.187,183.684 226.123,184.136 226.296 C 184.505 226.438,184.707 226.393,184.585 226.196 C 184.298 225.731,185.792 225.254,186.385 225.621 C 186.686 225.807,186.733 225.730,186.526 225.394 C 186.283 225.002,186.470 224.946,187.344 225.150 C 188.228 225.356,188.348 225.319,187.891 224.979 C 187.436 224.641,187.611 224.595,188.672 224.771 C 189.566 224.920,189.847 224.876,189.485 224.643 C 188.215 223.826,196.054 223.344,200.164 223.986 C 201.587 224.209,201.941 224.385,201.531 224.669 C 201.125 224.949,201.212 224.985,201.855 224.804 C 202.958 224.494,204.392 224.921,204.058 225.461 C 203.897 225.722,204.120 225.766,204.688 225.586 C 205.282 225.397,205.481 225.446,205.302 225.735 C 205.140 225.997,205.258 226.078,205.609 225.944 C 206.335 225.665,208.695 226.863,208.391 227.356 C 208.261 227.566,208.451 227.615,208.833 227.468 C 209.255 227.306,209.409 227.364,209.248 227.624 C 209.103 227.859,209.286 228.014,209.672 227.983 C 210.048 227.954,210.304 228.161,210.244 228.447 C 210.185 228.732,210.299 228.864,210.497 228.742 C 210.694 228.620,211.190 228.826,211.599 229.201 C 212.007 229.576,212.070 229.707,211.737 229.492 C 211.212 229.152,211.202 229.190,211.665 229.781 C 211.958 230.154,212.365 230.357,212.569 230.231 C 213.030 229.946,216.109 233.126,215.822 233.591 C 215.707 233.778,215.818 234.058,216.070 234.213 C 216.382 234.406,216.422 234.322,216.196 233.947 C 215.914 233.479,215.965 233.479,216.544 233.949 C 216.918 234.252,217.135 234.730,217.027 235.011 C 216.919 235.292,217.026 235.643,217.265 235.790 C 217.546 235.964,217.587 235.878,217.383 235.547 C 217.167 235.198,217.219 235.130,217.544 235.331 C 217.807 235.493,217.930 235.866,217.817 236.160 C 217.704 236.453,217.808 236.814,218.046 236.962 C 218.324 237.134,218.378 237.033,218.195 236.681 C 218.039 236.380,218.191 236.479,218.534 236.903 C 218.877 237.326,219.068 237.907,218.958 238.193 C 218.849 238.479,218.912 238.618,219.100 238.502 C 219.573 238.209,220.455 240.470,220.094 241.052 C 219.895 241.375,219.965 241.426,220.314 241.210 C 220.695 240.974,220.770 241.108,220.606 241.736 C 220.466 242.271,220.536 242.486,220.797 242.325 C 221.069 242.157,221.119 242.452,220.944 243.203 C 220.738 244.083,220.776 244.205,221.111 243.750 C 221.441 243.303,221.486 243.533,221.304 244.727 C 221.125 245.894,221.171 246.141,221.483 245.703 C 221.787 245.277,221.831 245.883,221.645 247.925 C 221.297 251.729,221.750 255.859,222.515 255.859 C 222.833 255.859,222.979 256.044,222.839 256.271 C 222.597 256.662,224.021 258.203,224.624 258.203 C 224.780 258.203,225.020 258.511,225.156 258.887 C 226.029 261.300,226.486 261.522,226.764 259.667 C 226.910 258.689,226.913 257.521,226.770 257.070 C 226.620 256.597,226.681 256.250,226.915 256.250 C 227.137 256.250,227.224 256.001,227.107 255.697 C 226.824 254.959,229.648 251.854,230.356 252.126 C 230.695 252.256,230.796 252.166,230.623 251.887 C 230.435 251.583,230.616 251.510,231.189 251.660 C 231.653 251.781,231.934 251.721,231.813 251.526 C 231.497 251.014,235.331 251.090,236.493 251.620 C 237.033 251.866,237.366 252.245,237.232 252.461 C 237.098 252.678,237.163 252.747,237.376 252.616 C 237.970 252.248,239.537 253.515,239.289 254.162 C 239.165 254.484,239.241 254.623,239.466 254.484 C 240.007 254.150,241.016 256.697,241.016 258.398 C 241.016 260.229,240.008 262.647,239.401 262.272 C 239.129 262.105,239.046 262.157,239.196 262.400 C 239.422 262.766,237.125 265.149,236.412 265.289 C 235.141 265.539,231.726 265.412,231.905 265.122 C 232.030 264.920,231.796 264.866,231.376 264.999 C 230.946 265.136,230.297 264.974,229.862 264.621 C 229.444 264.282,229.348 264.133,229.650 264.289 C 230.014 264.478,230.104 264.420,229.916 264.116 C 229.761 263.865,229.459 263.767,229.245 263.899 C 229.032 264.031,228.509 263.824,228.084 263.439 C 227.337 262.763,227.320 262.765,227.601 263.498 C 227.761 263.916,228.252 264.579,228.692 264.971 C 229.132 265.364,229.279 265.577,229.018 265.445 C 228.670 265.269,228.686 265.547,229.080 266.489 C 229.375 267.196,229.619 267.908,229.622 268.073 C 229.634 268.661,230.174 270.905,230.392 271.271 C 230.514 271.477,230.671 272.180,230.740 272.834 C 230.810 273.488,231.085 274.199,231.351 274.414 C 231.618 274.629,231.883 275.230,231.941 275.750 C 231.998 276.270,232.252 276.944,232.504 277.247 C 232.756 277.551,232.993 278.356,233.030 279.037 C 233.066 279.717,233.147 280.361,233.209 280.469 C 233.271 280.576,233.349 280.840,233.382 281.055 C 233.947 284.762,234.514 285.842,235.484 285.063 C 237.131 283.743,233.451 287.935,230.687 290.528 C 228.956 292.152,228.267 292.926,229.158 292.248 C 231.149 290.732,231.280 290.730,232.125 292.215 C 232.528 292.923,232.987 293.298,233.250 293.135 C 233.524 292.965,233.619 293.068,233.498 293.403 C 233.390 293.701,233.090 293.897,232.832 293.838 C 232.575 293.779,232.474 293.909,232.609 294.127 C 232.765 294.379,233.175 294.312,233.743 293.940 C 234.232 293.619,234.717 293.441,234.821 293.545 C 234.925 293.649,235.790 292.902,236.743 291.886 L 238.477 290.039 236.719 291.603 C 235.752 292.462,236.675 291.472,238.770 289.402 C 240.864 287.332,242.578 285.354,242.578 285.007 C 242.578 284.659,242.724 284.375,242.903 284.375 C 243.081 284.375,243.795 283.584,244.489 282.617 C 245.184 281.650,245.653 280.859,245.532 280.859 C 245.411 280.859,245.644 280.528,246.049 280.123 C 247.237 278.935,250.472 272.714,250.163 272.213 C 249.997 271.945,250.047 271.858,250.283 272.004 C 250.710 272.268,253.341 264.929,252.956 264.545 C 252.838 264.427,252.940 264.090,253.184 263.796 C 253.428 263.503,253.516 263.151,253.379 263.015 C 253.243 262.879,253.293 262.573,253.489 262.337 C 254.832 260.718,255.461 248.056,254.509 241.797 C 253.156 232.904,248.451 221.151,244.521 216.848 C 243.929 216.200,243.523 215.592,243.618 215.497 C 243.713 215.401,243.348 214.975,242.807 214.550 C 242.266 214.124,241.913 213.686,242.022 213.577 C 242.131 213.468,241.672 212.917,241.002 212.353 C 240.332 211.789,239.924 211.328,240.095 211.328 C 240.267 211.328,239.284 210.195,237.912 208.811 C 236.540 207.426,235.314 206.318,235.189 206.348 C 235.064 206.378,234.308 205.771,233.510 204.998 C 223.982 195.777,203.006 190.064,187.109 192.362 M197.000 203.544 C 198.785 204.039,201.689 206.530,201.390 207.309 C 201.275 207.608,201.349 207.749,201.556 207.621 C 201.762 207.494,202.038 207.881,202.170 208.480 C 202.301 209.080,202.477 209.792,202.561 210.063 C 202.778 210.766,202.302 212.911,201.974 212.708 C 201.823 212.615,201.713 212.926,201.729 213.398 C 201.745 213.874,201.546 214.216,201.284 214.165 C 201.023 214.114,200.896 214.298,201.002 214.574 C 201.266 215.263,199.404 216.958,198.797 216.582 C 198.508 216.404,198.417 216.447,198.567 216.691 C 198.994 217.382,196.602 218.079,194.499 217.877 C 192.272 217.663,189.221 215.806,189.311 214.719 C 189.341 214.362,189.222 214.159,189.047 214.268 C 188.611 214.537,188.163 213.007,188.512 212.443 C 188.687 212.160,188.622 212.094,188.342 212.267 C 187.583 212.736,187.805 209.120,188.634 207.504 C 189.593 205.634,191.203 204.125,191.828 204.512 C 192.132 204.699,192.208 204.646,192.037 204.369 C 191.869 204.098,192.183 203.837,192.855 203.688 C 193.455 203.556,194.121 203.389,194.336 203.317 C 195.034 203.084,195.483 203.123,197.000 203.544 M166.567 218.596 C 166.906 218.726,167.069 219.016,166.930 219.242 C 166.776 219.491,166.866 219.535,167.159 219.354 C 167.781 218.969,170.014 221.071,169.741 221.783 C 169.617 222.107,169.712 222.200,169.993 222.027 C 170.298 221.838,170.361 221.965,170.188 222.417 C 170.047 222.786,170.086 222.991,170.276 222.874 C 170.772 222.567,171.094 223.633,171.094 225.586 C 171.094 227.539,170.772 228.605,170.276 228.298 C 170.086 228.180,170.047 228.386,170.188 228.755 C 170.361 229.206,170.298 229.334,169.993 229.145 C 169.712 228.972,169.617 229.065,169.743 229.393 C 170.014 230.100,168.167 231.809,167.547 231.426 C 167.217 231.222,167.167 231.291,167.387 231.647 C 167.621 232.025,167.527 232.095,167.036 231.907 C 166.656 231.761,166.464 231.809,166.593 232.017 C 166.920 232.547,163.901 233.272,162.612 232.973 C 159.429 232.234,156.245 228.742,156.252 225.998 C 156.256 224.477,157.060 222.237,157.503 222.511 C 157.773 222.678,157.821 222.596,157.634 222.292 C 157.249 221.669,159.741 219.048,160.457 219.322 C 160.744 219.432,160.880 219.364,160.760 219.170 C 160.329 218.471,165.033 218.007,166.567 218.596 M229.124 218.714 C 229.004 218.908,229.284 218.969,229.748 218.847 C 230.321 218.697,230.502 218.770,230.314 219.075 C 230.142 219.354,230.242 219.444,230.582 219.313 C 231.890 218.811,234.756 223.393,234.763 225.998 C 234.772 229.123,230.670 233.173,228.012 232.664 C 227.052 232.479,226.895 232.522,227.344 232.847 C 227.806 233.182,227.724 233.224,226.953 233.047 C 226.416 232.924,225.746 232.821,225.465 232.818 C 225.184 232.815,225.043 232.668,225.153 232.491 C 225.262 232.314,224.965 232.182,224.492 232.198 C 224.020 232.214,223.670 232.028,223.715 231.784 C 223.760 231.541,223.497 231.365,223.129 231.394 C 222.762 231.422,222.509 231.213,222.568 230.928 C 222.627 230.643,222.515 230.510,222.320 230.631 C 221.805 230.949,220.973 229.808,221.316 229.254 C 221.512 228.936,221.439 228.888,221.088 229.105 C 220.709 229.339,220.639 229.246,220.828 228.755 C 220.969 228.386,220.929 228.180,220.740 228.298 C 219.893 228.821,219.621 225.197,220.351 223.106 C 220.594 222.408,220.958 221.986,221.192 222.131 C 221.440 222.284,221.489 222.199,221.316 221.918 C 220.973 221.364,221.805 220.223,222.320 220.541 C 222.515 220.662,222.627 220.528,222.568 220.244 C 222.507 219.950,222.768 219.752,223.171 219.785 C 223.561 219.817,223.775 219.739,223.647 219.610 C 223.518 219.482,223.814 219.154,224.304 218.882 C 225.319 218.318,229.458 218.174,229.124 218.714 M222.155 251.074 C 222.065 251.665,221.992 251.182,221.992 250.000 C 221.992 248.818,222.065 248.335,222.155 248.926 C 222.244 249.517,222.244 250.483,222.155 251.074 M96.235 252.344 C 96.235 254.385,96.300 255.220,96.381 254.199 C 96.461 253.179,96.461 251.509,96.381 250.488 C 96.300 249.468,96.235 250.303,96.235 252.344 M157.329 251.839 C 157.815 251.932,158.518 251.929,158.891 251.831 C 159.265 251.733,158.867 251.657,158.008 251.661 C 157.148 251.665,156.843 251.745,157.329 251.839 M240.415 293.848 L 238.477 295.898 240.527 293.960 C 241.655 292.894,242.578 291.971,242.578 291.909 C 242.578 291.618,242.216 291.942,240.415 293.848 M246.272 323.828 C 246.272 332.529,246.323 336.089,246.386 331.738 C 246.449 327.388,246.449 320.269,246.386 315.918 C 246.323 311.567,246.272 315.127,246.272 323.828 M122.461 322.656 C 123.300 323.516,124.075 324.219,124.182 324.219 C 124.289 324.219,123.691 323.516,122.852 322.656 C 122.012 321.797,121.238 321.094,121.131 321.094 C 121.023 321.094,121.622 321.797,122.461 322.656 M73.940 327.539 C 73.943 328.613,74.019 329.006,74.108 328.413 C 74.198 327.819,74.196 326.940,74.103 326.459 C 74.010 325.979,73.937 326.465,73.940 327.539 M73.956 336.133 C 73.958 337.637,74.029 338.204,74.113 337.394 C 74.198 336.583,74.196 335.353,74.110 334.659 C 74.024 333.966,73.955 334.629,73.956 336.133 M65.332 339.332 C 65.708 339.430,66.323 339.430,66.699 339.332 C 67.075 339.234,66.768 339.153,66.016 339.153 C 65.264 339.153,64.956 339.234,65.332 339.332 M83.315 339.352 C 84.558 339.429,86.492 339.429,87.612 339.350 C 88.732 339.271,87.715 339.208,85.352 339.209 C 82.988 339.210,82.072 339.274,83.315 339.352 M103.032 339.339 C 103.518 339.432,104.221 339.429,104.594 339.331 C 104.968 339.233,104.570 339.157,103.711 339.161 C 102.852 339.165,102.546 339.245,103.032 339.339 M110.254 339.332 C 110.630 339.430,111.245 339.430,111.621 339.332 C 111.997 339.234,111.689 339.153,110.938 339.153 C 110.186 339.153,109.878 339.234,110.254 339.332 M137.598 349.097 C 137.974 349.196,138.589 349.196,138.965 349.097 C 139.341 348.999,139.033 348.919,138.281 348.919 C 137.529 348.919,137.222 348.999,137.598 349.097 M44.287 354.102 C 44.288 356.465,44.352 357.381,44.430 356.138 C 44.507 354.895,44.507 352.961,44.428 351.841 C 44.349 350.721,44.286 351.738,44.287 354.102 " stroke="none" fill="#9ba4aa" fill-rule="evenodd"></path></g></svg>