<svg id="svg" version="1.1" xmlns="http://www.w3.org/2000/svg" xmlns:xlink="http://www.w3.org/1999/xlink" width="200" height="200" viewBox="0, 0, 400,400"><g id="svgg"><path id="path0" d="M239.648 118.779 C 185.590 119.476,173.032 121.785,149.095 135.424 C 138.896 141.236,118.924 155.814,113.614 161.323 C 113.078 161.880,111.839 162.036,106.192 162.262 C 77.302 163.415,50.008 168.767,32.363 176.739 C 22.502 181.194,11.679 190.211,12.824 193.018 C 14.339 196.735,14.345 196.233,12.751 199.330 C 10.315 204.066,10.254 211.280,12.529 225.702 L 13.395 231.197 12.362 232.425 C 11.247 233.750,11.080 234.744,11.758 236.011 C 12.106 236.662,11.986 237.215,11.128 238.912 C 8.913 243.288,9.463 247.543,12.707 251.133 C 16.585 255.426,19.863 256.628,27.734 256.644 C 32.891 256.654,32.538 256.502,34.537 259.570 C 43.763 273.732,52.544 278.759,66.658 277.955 C 77.046 277.364,86.356 271.612,90.637 263.139 L 91.992 260.458 97.656 260.696 C 100.771 260.826,109.648 261.198,117.383 261.520 C 132.864 262.167,143.806 262.793,145.313 263.120 C 146.037 263.277,146.793 264.196,148.242 266.682 C 153.520 275.736,159.500 280.112,168.186 281.275 C 173.976 282.051,192.730 281.567,195.391 280.574 C 202.018 278.100,210.020 269.288,212.958 261.229 C 214.007 258.353,210.363 258.777,254.102 256.444 C 263.776 255.928,281.086 254.963,299.805 253.894 C 303.887 253.662,310.964 253.217,315.533 252.907 C 320.102 252.597,324.244 252.344,324.738 252.344 C 325.468 252.344,325.808 252.768,326.542 254.590 C 330.580 264.622,336.431 270.145,344.046 271.115 C 347.565 271.563,364.657 271.581,366.498 271.139 C 375.811 268.901,384.363 254.188,384.373 240.386 C 384.375 238.756,384.591 238.117,385.548 236.912 C 388.479 233.225,390.108 222.179,389.034 213.281 C 388.762 211.025,388.579 207.598,388.628 205.664 C 388.755 200.673,388.056 194.087,386.689 187.382 L 385.510 181.599 386.534 179.039 C 390.289 169.653,388.987 164.066,382.446 161.494 C 379.767 160.441,379.048 159.879,373.234 154.297 C 364.519 145.931,356.945 140.137,348.262 135.196 L 344.766 133.207 344.160 130.764 L 343.555 128.320 339.648 127.027 C 325.758 122.427,287.353 118.002,265.039 118.429 C 263.105 118.466,251.680 118.624,239.648 118.779 M246.875 132.734 C 238.247 140.549,231.712 147.329,219.922 160.700 L 216.211 164.909 198.047 164.673 C 174.010 164.362,127.808 163.094,127.450 162.737 C 127.041 162.328,146.233 148.273,152.810 144.165 C 172.393 131.932,178.261 130.769,223.047 130.245 C 234.756 130.108,244.409 129.926,244.499 129.841 C 244.588 129.757,245.907 129.696,247.428 129.707 L 250.195 129.727 246.875 132.734 M289.303 140.039 C 291.131 149.050,293.173 161.254,292.898 161.529 C 292.677 161.750,281.077 162.497,277.832 162.499 C 275.475 162.500,275.391 162.465,275.391 161.504 C 275.391 156.555,267.414 152.759,255.598 152.086 L 251.236 151.837 248.921 154.045 C 245.366 157.436,245.012 158.303,245.878 161.502 C 246.760 164.759,247.380 164.490,239.272 164.365 L 232.338 164.258 237.596 158.203 C 255.759 137.290,265.836 131.573,284.152 131.794 L 287.639 131.836 289.303 140.039 M308.203 133.060 C 314.920 133.799,316.159 134.439,320.645 139.491 C 325.313 144.746,334.261 158.447,333.513 159.195 C 333.439 159.269,327.758 159.688,320.888 160.126 C 300.641 161.416,302.018 161.380,301.812 160.624 C 301.492 159.452,301.190 157.370,300.207 149.549 C 299.678 145.336,298.887 139.903,298.450 137.477 C 298.014 135.051,297.656 132.820,297.656 132.518 C 297.656 131.919,297.975 131.935,308.203 133.060 M330.426 136.892 C 336.499 139.951,344.201 147.159,346.338 151.782 L 347.734 154.806 346.847 156.700 C 345.289 160.027,343.326 159.578,341.016 155.367 C 337.789 149.485,330.532 139.092,328.140 136.928 C 327.392 136.250,327.090 135.547,327.549 135.547 C 327.662 135.547,328.956 136.152,330.426 136.892 M380.889 168.720 C 382.154 169.984,382.323 171.202,381.506 173.157 C 380.278 176.095,379.375 175.886,373.965 171.410 C 370.467 168.517,370.469 168.542,373.730 168.067 C 378.617 167.357,379.618 167.448,380.889 168.720 M169.316 170.641 C 167.274 172.452,140.674 176.775,125.799 177.715 C 119.764 178.096,118.333 178.046,120.773 177.539 C 121.486 177.391,123.740 176.514,125.781 175.591 C 131.434 173.034,134.336 172.280,141.016 171.633 C 152.070 170.562,170.119 169.930,169.316 170.641 M353.583 174.084 C 354.405 174.828,354.523 176.284,353.809 176.862 C 353.018 177.502,342.298 177.922,341.597 177.340 C 339.411 175.526,341.404 174.071,346.444 173.802 C 348.722 173.680,351.099 173.548,351.727 173.509 C 352.355 173.470,353.190 173.728,353.583 174.084 M296.406 177.813 C 297.055 178.462,296.994 180.275,296.303 180.848 C 295.946 181.144,293.674 181.404,290.257 181.539 L 284.783 181.756 284.435 180.819 C 283.576 178.514,284.818 177.871,290.321 177.771 C 292.076 177.739,293.594 177.630,293.696 177.528 C 294.065 177.159,295.950 177.356,296.406 177.813 M368.082 185.347 C 376.091 187.433,381.300 192.617,382.421 199.617 C 383.216 204.587,382.984 204.804,380.330 201.571 C 364.535 182.331,341.745 193.192,335.146 223.105 L 334.659 225.311 332.076 225.567 C 324.999 226.269,313.952 227.526,304.165 228.742 C 298.184 229.485,288.603 230.444,282.875 230.872 C 263.358 232.331,228.724 235.240,224.541 235.771 L 222.714 236.003 222.515 234.310 C 222.406 233.379,222.112 230.862,221.861 228.716 C 220.787 219.516,215.802 207.589,211.053 202.854 C 194.199 186.053,167.824 190.499,157.646 211.858 C 155.038 217.331,149.245 236.537,149.213 239.815 C 149.198 241.375,148.613 241.508,146.497 240.436 L 144.448 239.398 144.718 237.179 C 148.560 205.565,165.080 185.907,187.891 185.804 C 207.004 185.718,220.584 199.276,225.976 223.828 C 226.519 226.299,227.052 228.716,227.161 229.199 C 227.408 230.297,230.353 230.380,237.891 229.502 C 243.286 228.874,252.499 227.909,269.922 226.149 C 276.260 225.509,283.730 224.729,286.523 224.414 C 294.359 223.533,307.472 222.375,317.383 221.690 C 331.854 220.690,331.249 220.773,331.256 219.793 C 331.266 218.299,334.339 209.698,336.313 205.638 C 343.388 191.089,356.927 182.441,368.082 185.347 M152.344 189.393 C 152.344 190.214,149.170 194.505,147.387 196.094 C 141.327 201.494,121.882 207.096,109.766 206.933 C 100.537 206.809,97.079 208.049,94.289 212.483 C 90.969 217.758,90.489 218.419,88.814 220.019 C 83.539 225.061,82.410 225.434,57.705 230.292 L 48.417 232.118 43.447 231.249 C 31.358 229.136,20.062 223.088,17.535 217.375 C 15.382 212.510,14.987 205.074,16.772 203.031 C 17.983 201.644,19.462 203.722,19.599 207.006 C 19.980 216.110,27.802 222.246,43.090 225.434 C 52.008 227.294,69.412 224.897,77.850 220.647 C 84.438 217.330,90.943 206.271,89.115 201.498 C 88.667 200.327,89.074 200.000,90.986 200.000 C 91.579 200.000,96.091 199.219,101.012 198.265 C 116.091 195.342,126.084 193.530,149.219 189.527 C 152.137 189.022,152.344 189.013,152.344 189.393 M51.574 196.973 C 55.109 198.758,56.252 203.202,54.115 206.848 C 51.691 210.984,44.432 210.708,42.389 206.402 C 39.531 200.381,45.728 194.019,51.574 196.973 M47.023 200.171 C 44.510 201.264,43.762 203.954,45.490 205.682 C 47.241 207.433,51.276 206.681,52.310 204.409 C 53.890 200.942,50.850 198.505,47.023 200.171 M364.532 212.158 C 380.761 215.598,383.368 249.696,368.199 260.132 C 363.800 263.159,356.189 261.495,352.368 256.671 C 340.123 241.211,348.963 208.858,364.532 212.158 M191.689 216.600 C 206.970 220.203,213.499 240.381,205.023 257.813 C 196.651 275.032,177.915 275.122,169.542 257.983 C 159.814 238.072,173.589 212.333,191.689 216.600 M23.662 236.272 C 22.029 239.430,23.790 242.540,27.539 243.120 C 30.130 243.520,47.646 244.121,64.704 244.395 L 80.775 244.653 85.993 242.396 C 92.492 239.584,91.989 239.641,115.376 239.036 C 137.020 238.476,139.584 238.580,142.021 240.120 C 144.735 241.834,143.854 243.020,137.695 245.935 C 133.284 248.024,131.856 248.156,100.391 249.384 C 98.135 249.472,88.818 249.392,79.688 249.206 C 11.549 247.820,18.318 248.113,16.802 246.489 C 15.310 244.893,14.519 242.328,15.322 241.692 C 15.656 241.427,17.726 239.750,19.921 237.965 C 24.095 234.570,24.678 234.306,23.662 236.272 " stroke="none" fill="#0b0c0b" fill-rule="evenodd"></path><path id="path1" d="M0.000 200.000 L 0.000 400.000 200.000 400.000 L 400.000 400.000 400.000 200.000 L 400.000 0.000 200.000 0.000 L 0.000 0.000 0.000 200.000 M281.836 118.746 C 305.864 119.985,327.470 123.007,339.576 126.822 C 343.252 127.981,344.033 128.686,344.358 131.140 C 344.606 133.011,344.610 133.016,347.761 134.768 C 356.469 139.614,365.372 146.440,373.845 154.769 C 378.632 159.474,379.402 160.074,381.933 161.067 C 389.090 163.875,390.524 169.544,386.560 179.358 L 385.629 181.662 386.379 185.069 C 387.800 191.527,388.340 195.923,388.717 204.102 C 388.924 208.613,389.196 214.440,389.320 217.050 C 389.720 225.486,388.202 233.738,385.651 236.993 C 384.588 238.350,384.469 238.814,384.256 242.439 C 383.406 256.850,375.265 269.517,365.625 271.428 C 362.429 272.062,343.437 271.398,340.791 270.560 C 337.812 269.617,334.321 267.167,332.026 264.409 C 330.134 262.136,325.781 254.094,325.781 252.872 C 325.781 252.581,325.649 252.346,325.488 252.348 C 325.327 252.350,323.174 252.522,320.703 252.731 C 318.232 252.939,309.531 253.468,301.367 253.907 C 293.203 254.346,280.547 255.050,273.242 255.472 C 265.938 255.894,258.027 256.337,255.664 256.458 C 240.199 257.245,213.992 258.886,213.893 259.074 C 213.863 259.132,213.423 260.234,212.917 261.523 C 209.035 271.409,200.711 279.681,193.041 281.275 C 189.814 281.946,166.800 281.543,164.206 280.771 C 158.373 279.033,152.443 273.945,148.290 267.116 C 145.999 263.351,145.989 263.340,144.188 263.110 C 141.922 262.820,122.724 261.830,109.682 261.330 C 104.249 261.122,98.035 260.838,95.872 260.701 L 91.940 260.450 91.284 262.167 C 88.769 268.754,79.312 276.123,71.484 277.595 C 55.969 280.513,44.255 274.846,34.427 259.666 L 32.721 257.031 28.958 257.018 C 14.476 256.965,6.347 248.944,10.905 239.204 C 12.033 236.794,12.079 236.536,11.530 235.698 C 10.718 234.458,10.766 234.207,12.111 232.675 L 13.285 231.338 12.323 225.194 C 10.012 210.436,10.114 204.420,12.765 199.062 L 14.211 196.139 13.157 194.202 L 12.103 192.266 13.601 190.370 C 25.812 174.922,57.065 165.081,102.808 162.281 L 113.234 161.643 114.771 160.181 C 125.023 150.428,145.113 136.792,159.159 130.053 C 173.758 123.048,182.397 121.175,207.813 119.503 C 221.810 118.582,269.249 118.097,281.836 118.746 M241.406 130.124 C 238.936 130.257,229.707 130.392,220.898 130.424 C 182.611 130.564,174.098 132.005,158.331 141.017 C 152.688 144.243,144.313 149.837,138.071 154.552 C 135.269 156.667,131.805 159.277,130.372 160.352 C 127.157 162.762,127.147 162.888,130.176 162.901 C 131.519 162.906,140.527 163.168,150.195 163.481 C 159.863 163.795,178.057 164.149,190.625 164.266 C 203.193 164.384,214.092 164.534,214.844 164.599 C 216.162 164.713,216.410 164.493,221.787 158.433 C 224.854 154.976,227.930 151.533,228.623 150.781 C 229.316 150.029,231.700 147.446,233.920 145.041 C 236.141 142.636,240.096 138.752,242.709 136.409 C 245.323 134.066,248.076 131.594,248.828 130.914 L 250.195 129.679 248.047 129.781 C 246.865 129.837,243.877 129.992,241.406 130.124 M278.516 132.084 C 266.810 132.764,258.109 137.201,247.235 148.036 C 242.185 153.067,232.318 164.089,232.606 164.377 C 233.153 164.924,246.502 163.894,246.276 163.322 C 244.663 159.261,244.998 157.969,248.620 154.277 L 250.900 151.953 254.454 151.954 C 265.815 151.958,275.363 156.205,275.545 161.334 C 275.579 162.305,275.748 162.498,276.563 162.497 C 278.257 162.494,292.753 161.674,292.852 161.575 C 293.075 161.352,290.910 148.692,289.277 140.678 C 288.300 135.879,287.500 131.883,287.500 131.797 C 287.500 131.606,285.821 131.659,278.516 132.084 M297.820 133.242 C 298.488 136.248,299.700 144.046,300.393 149.805 C 300.833 153.457,301.376 157.510,301.600 158.812 L 302.007 161.179 304.226 161.053 C 305.447 160.983,312.125 160.577,319.068 160.151 C 326.010 159.724,332.121 159.375,332.648 159.375 L 333.605 159.375 332.425 157.038 C 328.120 148.509,320.002 137.715,315.927 135.100 C 313.901 133.799,310.015 133.106,301.765 132.572 L 297.612 132.304 297.820 133.242 M330.027 138.957 C 334.356 144.455,337.004 148.296,340.135 153.613 C 343.679 159.631,344.724 160.138,346.685 156.792 L 347.741 154.990 346.122 151.723 C 343.663 146.762,336.506 140.137,330.169 136.955 L 327.331 135.530 330.027 138.957 M374.263 168.124 C 372.676 168.361,371.394 168.695,371.415 168.867 C 371.472 169.354,377.325 174.112,378.665 174.761 C 381.805 176.282,383.164 169.760,380.043 168.146 C 378.817 167.512,378.376 167.510,374.263 168.124 M158.203 170.731 C 139.570 171.283,133.810 172.156,126.172 175.585 C 124.131 176.501,122.109 177.339,121.680 177.447 C 115.282 179.055,141.267 176.381,153.516 174.171 C 161.958 172.648,171.991 170.146,168.717 170.380 C 168.198 170.417,163.467 170.575,158.203 170.731 M343.955 174.119 C 341.733 174.290,341.016 174.736,341.016 175.946 C 341.016 177.561,341.637 177.734,346.653 177.511 C 352.965 177.231,353.814 177.079,354.101 176.173 C 354.816 173.920,352.530 173.457,343.955 174.119 M287.228 178.016 C 284.582 178.175,284.047 178.717,284.551 180.728 L 284.798 181.712 290.348 181.442 C 296.361 181.150,297.026 180.888,296.794 178.907 C 296.671 177.856,294.024 177.610,287.228 178.016 M360.698 185.143 C 348.688 186.982,338.410 197.778,332.991 214.245 C 332.033 217.155,331.250 219.788,331.250 220.095 C 331.250 220.733,329.944 220.950,324.023 221.299 C 314.352 221.870,295.921 223.508,280.273 225.189 C 275.332 225.720,266.807 226.603,261.328 227.152 C 255.850 227.700,246.546 228.680,240.653 229.328 C 234.760 229.977,229.322 230.455,228.569 230.391 L 227.200 230.273 226.126 225.065 C 220.771 199.096,206.617 185.143,186.549 186.051 C 165.512 187.002,151.120 202.915,145.945 230.946 C 144.319 239.753,144.272 239.163,146.686 240.347 L 148.750 241.359 149.006 239.918 C 154.895 206.715,167.800 191.678,189.555 192.670 C 207.491 193.487,220.657 209.390,222.472 232.431 L 222.734 235.760 241.732 234.107 C 260.295 232.492,275.327 231.279,286.719 230.477 C 289.834 230.257,298.096 229.371,305.078 228.507 C 312.061 227.644,321.536 226.545,326.134 226.066 L 334.495 225.195 335.376 221.875 C 342.822 193.808,361.388 183.579,377.616 198.604 C 379.109 199.986,380.757 201.743,381.278 202.509 C 382.595 204.442,382.682 204.314,382.378 200.879 C 381.485 190.776,371.454 183.495,360.698 185.143 M148.828 189.727 C 141.792 190.819,117.071 195.305,101.953 198.233 C 95.830 199.419,90.458 200.390,90.014 200.390 C 89.272 200.391,89.221 200.574,89.375 202.696 C 89.817 208.811,84.046 217.727,77.586 220.909 C 69.275 225.001,51.797 227.391,43.164 225.614 C 27.782 222.449,19.585 215.931,19.379 206.701 C 19.316 203.876,19.296 203.823,18.088 203.315 L 16.861 202.799 16.194 205.794 C 15.278 209.913,15.423 211.405,17.204 216.165 C 19.112 221.266,28.924 227.953,37.376 229.913 C 47.208 232.194,47.822 232.205,57.031 230.272 C 59.502 229.754,64.863 228.687,68.945 227.901 C 83.725 225.057,88.386 222.411,93.077 214.203 C 96.697 207.866,98.690 207.049,111.523 206.639 L 120.117 206.364 130.469 203.346 C 144.103 199.371,147.045 197.727,150.774 192.003 C 152.780 188.925,152.922 189.092,148.828 189.727 M45.053 197.444 C 39.569 200.807,41.331 208.980,47.682 209.636 C 53.093 210.194,56.840 204.807,54.487 199.849 C 52.955 196.620,48.323 195.439,45.053 197.444 M52.020 200.256 C 53.862 201.923,52.432 205.865,49.713 206.616 C 45.828 207.689,43.044 204.340,45.366 201.387 C 46.802 199.562,50.550 198.925,52.020 200.256 M359.372 212.451 C 347.120 216.469,342.425 241.993,351.510 255.196 C 357.070 263.279,366.754 263.634,372.385 255.962 C 384.764 239.099,375.238 207.249,359.372 212.451 M183.104 216.830 C 172.358 219.363,164.314 235.730,166.954 249.689 C 171.239 272.353,193.621 278.173,204.180 259.368 C 216.014 238.291,203.052 212.129,183.104 216.830 M20.112 237.942 C 14.245 242.639,14.614 242.094,15.660 244.527 C 17.079 247.825,16.643 247.748,36.133 248.130 C 45.371 248.311,62.158 248.674,73.438 248.937 C 101.705 249.595,130.639 248.598,135.480 246.799 C 139.316 245.375,143.777 242.523,143.738 241.523 C 143.731 241.351,142.896 240.698,141.882 240.070 L 140.039 238.930 132.227 238.907 C 127.930 238.895,117.259 239.093,108.513 239.347 L 92.613 239.810 88.295 241.579 C 85.920 242.551,83.282 243.702,82.433 244.135 C 79.913 245.421,28.476 244.118,25.471 242.693 C 23.209 241.619,22.393 238.726,23.662 236.272 C 24.607 234.445,24.301 234.588,20.112 237.942 " stroke="none" fill="#fbfbfb" fill-rule="evenodd"></path><path id="path2" d="M244.829 118.636 C 245.315 118.729,246.018 118.726,246.391 118.628 C 246.765 118.530,246.367 118.454,245.508 118.458 C 244.648 118.462,244.343 118.542,244.829 118.636 M275.488 118.629 C 275.864 118.727,276.479 118.727,276.855 118.629 C 277.231 118.530,276.924 118.450,276.172 118.450 C 275.420 118.450,275.112 118.530,275.488 118.629 M220.987 119.032 C 221.681 119.118,222.911 119.120,223.722 119.035 C 224.532 118.951,223.965 118.880,222.461 118.878 C 220.957 118.876,220.294 118.946,220.987 119.032 M274.516 132.308 C 275.002 132.401,275.705 132.397,276.079 132.300 C 276.452 132.202,276.055 132.125,275.195 132.130 C 274.336 132.134,274.030 132.214,274.516 132.308 M109.473 161.988 C 109.849 162.086,110.464 162.086,110.840 161.988 C 111.216 161.890,110.908 161.809,110.156 161.809 C 109.404 161.809,109.097 161.890,109.473 161.988 M200.879 164.745 C 203.618 164.812,208.101 164.812,210.840 164.745 C 213.579 164.678,211.338 164.623,205.859 164.623 C 200.381 164.623,198.140 164.678,200.879 164.745 M120.117 177.734 C 119.430 178.030,119.468 178.073,120.433 178.098 C 121.071 178.113,121.429 177.961,121.289 177.734 C 121.156 177.520,121.014 177.356,120.973 177.371 C 120.932 177.386,120.547 177.550,120.117 177.734 M19.231 206.641 C 19.231 207.393,19.312 207.700,19.410 207.324 C 19.508 206.948,19.508 206.333,19.410 205.957 C 19.312 205.581,19.231 205.889,19.231 206.641 M124.316 238.941 C 124.692 239.039,125.308 239.039,125.684 238.941 C 126.060 238.843,125.752 238.763,125.000 238.763 C 124.248 238.763,123.940 238.843,124.316 238.941 M111.047 239.350 C 112.074 239.431,113.656 239.430,114.563 239.348 C 115.469 239.266,114.629 239.200,112.695 239.201 C 110.762 239.202,110.020 239.269,111.047 239.350 M52.637 244.416 C 53.120 244.509,53.911 244.509,54.395 244.416 C 54.878 244.323,54.482 244.247,53.516 244.247 C 52.549 244.247,52.153 244.323,52.637 244.416 M75.112 244.820 C 76.355 244.898,78.289 244.897,79.409 244.819 C 80.529 244.740,79.512 244.676,77.148 244.677 C 74.785 244.678,73.869 244.743,75.112 244.820 M39.355 248.323 C 39.839 248.416,40.630 248.416,41.113 248.323 C 41.597 248.229,41.201 248.153,40.234 248.153 C 39.268 248.153,38.872 248.229,39.355 248.323 M72.159 249.110 C 72.853 249.196,74.083 249.198,74.894 249.113 C 75.704 249.029,75.137 248.958,73.633 248.956 C 72.129 248.955,71.466 249.024,72.159 249.110 M95.219 249.495 C 95.705 249.588,96.408 249.585,96.782 249.487 C 97.155 249.389,96.758 249.313,95.898 249.317 C 95.039 249.322,94.733 249.402,95.219 249.495 M303.223 253.785 C 303.599 253.883,304.214 253.883,304.590 253.785 C 304.966 253.687,304.658 253.606,303.906 253.606 C 303.154 253.606,302.847 253.687,303.223 253.785 M104.785 261.207 C 105.161 261.305,105.776 261.305,106.152 261.207 C 106.528 261.109,106.221 261.028,105.469 261.028 C 104.717 261.028,104.409 261.109,104.785 261.207 " stroke="none" fill="#9b9c9b" fill-rule="evenodd"></path><path id="path3" d="M256.359 118.647 C 257.386 118.728,258.968 118.727,259.875 118.645 C 260.782 118.563,259.941 118.497,258.008 118.498 C 256.074 118.499,255.332 118.566,256.359 118.647 M282.910 119.019 C 283.286 119.118,283.901 119.118,284.277 119.019 C 284.653 118.921,284.346 118.841,283.594 118.841 C 282.842 118.841,282.534 118.921,282.910 119.019 M223.751 130.370 C 225.965 130.439,229.480 130.439,231.564 130.369 C 233.647 130.299,231.836 130.242,227.539 130.242 C 223.242 130.243,221.538 130.300,223.751 130.370 M237.683 141.113 L 235.352 143.555 237.793 141.223 C 239.136 139.941,240.234 138.842,240.234 138.782 C 240.234 138.493,239.849 138.845,237.683 141.113 M134.082 163.160 C 134.458 163.258,135.073 163.258,135.449 163.160 C 135.825 163.062,135.518 162.981,134.766 162.981 C 134.014 162.981,133.706 163.062,134.082 163.160 M145.801 163.551 C 146.177 163.649,146.792 163.649,147.168 163.551 C 147.544 163.452,147.236 163.372,146.484 163.372 C 145.732 163.372,145.425 163.452,145.801 163.551 M159.668 163.954 C 160.366 164.041,161.509 164.041,162.207 163.954 C 162.905 163.868,162.334 163.797,160.938 163.797 C 159.541 163.797,158.970 163.868,159.668 163.954 M176.074 164.345 C 176.772 164.432,177.915 164.432,178.613 164.345 C 179.312 164.258,178.740 164.188,177.344 164.188 C 175.947 164.188,175.376 164.258,176.074 164.345 M241.113 164.350 C 242.134 164.430,243.804 164.430,244.824 164.350 C 245.845 164.269,245.010 164.203,242.969 164.203 C 240.928 164.203,240.093 164.269,241.113 164.350 M112.022 206.927 C 112.941 207.010,114.347 207.009,115.147 206.925 C 115.947 206.841,115.195 206.773,113.477 206.775 C 111.758 206.776,111.103 206.845,112.022 206.927 M187.798 216.292 C 188.283 216.385,188.987 216.382,189.360 216.284 C 189.733 216.186,189.336 216.110,188.477 216.114 C 187.617 216.118,187.312 216.198,187.798 216.292 M228.613 230.347 C 228.989 230.446,229.604 230.446,229.980 230.347 C 230.356 230.249,230.049 230.169,229.297 230.169 C 228.545 230.169,228.237 230.249,228.613 230.347 M42.876 244.026 C 43.362 244.120,44.065 244.116,44.438 244.018 C 44.812 243.921,44.414 243.844,43.555 243.849 C 42.695 243.853,42.390 243.933,42.876 244.026 M57.134 244.421 C 57.728 244.511,58.607 244.508,59.087 244.416 C 59.568 244.323,59.082 244.249,58.008 244.252 C 56.934 244.255,56.541 244.331,57.134 244.421 M124.316 248.316 C 124.692 248.414,125.308 248.414,125.684 248.316 C 126.060 248.218,125.752 248.138,125.000 248.138 C 124.248 248.138,123.940 248.218,124.316 248.316 M106.934 249.111 C 107.632 249.197,108.774 249.197,109.473 249.111 C 110.171 249.024,109.600 248.953,108.203 248.953 C 106.807 248.953,106.235 249.024,106.934 249.111 M26.869 256.929 C 28.004 257.008,29.762 257.007,30.775 256.927 C 31.788 256.847,30.859 256.782,28.711 256.783 C 26.563 256.784,25.733 256.850,26.869 256.929 " stroke="none" fill="#7d7c7a" fill-rule="evenodd"></path><path id="path4" d="M248.547 118.647 C 249.574 118.728,251.156 118.727,252.063 118.645 C 252.969 118.563,252.129 118.497,250.195 118.498 C 248.262 118.499,247.520 118.566,248.547 118.647 M36.626 248.323 C 37.112 248.417,37.815 248.413,38.188 248.315 C 38.562 248.217,38.164 248.141,37.305 248.145 C 36.445 248.150,36.140 248.230,36.626 248.323 M360.059 271.760 C 360.542 271.853,361.333 271.853,361.816 271.760 C 362.300 271.667,361.904 271.591,360.938 271.591 C 359.971 271.591,359.575 271.667,360.059 271.760 " stroke="none" fill="#7e847c" fill-rule="evenodd"></path></g></svg>